%TF.GenerationSoftware,KiCad,Pcbnew,(6.0.0-0)*%
%TF.CreationDate,2022-01-23T15:20:26+01:00*%
%TF.ProjectId,engineers-thumb,656e6769-6e65-4657-9273-2d7468756d62,rev?*%
%TF.SameCoordinates,Original*%
%TF.FileFunction,Copper,L1,Top*%
%TF.FilePolarity,Positive*%
%FSLAX46Y46*%
G04 Gerber Fmt 4.6, Leading zero omitted, Abs format (unit mm)*
G04 Created by KiCad (PCBNEW (6.0.0-0)) date 2022-01-23 15:20:26*
%MOMM*%
%LPD*%
G01*
G04 APERTURE LIST*
G04 Aperture macros list*
%AMRoundRect*
0 Rectangle with rounded corners*
0 $1 Rounding radius*
0 $2 $3 $4 $5 $6 $7 $8 $9 X,Y pos of 4 corners*
0 Add a 4 corners polygon primitive as box body*
4,1,4,$2,$3,$4,$5,$6,$7,$8,$9,$2,$3,0*
0 Add four circle primitives for the rounded corners*
1,1,$1+$1,$2,$3*
1,1,$1+$1,$4,$5*
1,1,$1+$1,$6,$7*
1,1,$1+$1,$8,$9*
0 Add four rect primitives between the rounded corners*
20,1,$1+$1,$2,$3,$4,$5,0*
20,1,$1+$1,$4,$5,$6,$7,0*
20,1,$1+$1,$6,$7,$8,$9,0*
20,1,$1+$1,$8,$9,$2,$3,0*%
G04 Aperture macros list end*
%TA.AperFunction,ComponentPad*%
%ADD10R,1.600000X1.600000*%
%TD*%
%TA.AperFunction,ComponentPad*%
%ADD11C,1.600000*%
%TD*%
%TA.AperFunction,ComponentPad*%
%ADD12O,1.600000X1.600000*%
%TD*%
%TA.AperFunction,ComponentPad*%
%ADD13R,1.800000X1.800000*%
%TD*%
%TA.AperFunction,ComponentPad*%
%ADD14C,1.800000*%
%TD*%
%TA.AperFunction,ComponentPad*%
%ADD15R,1.700000X1.700000*%
%TD*%
%TA.AperFunction,ComponentPad*%
%ADD16O,1.700000X1.700000*%
%TD*%
%TA.AperFunction,ComponentPad*%
%ADD17RoundRect,0.250000X-0.550000X-0.550000X0.550000X-0.550000X0.550000X0.550000X-0.550000X0.550000X0*%
%TD*%
%TA.AperFunction,ComponentPad*%
%ADD18RoundRect,0.250000X-0.550000X0.550000X-0.550000X-0.550000X0.550000X-0.550000X0.550000X0.550000X0*%
%TD*%
%TA.AperFunction,ComponentPad*%
%ADD19C,1.500000*%
%TD*%
%TA.AperFunction,ComponentPad*%
%ADD20R,1.500000X1.500000*%
%TD*%
%TA.AperFunction,ComponentPad*%
%ADD21R,2.200000X2.200000*%
%TD*%
%TA.AperFunction,ComponentPad*%
%ADD22O,2.200000X2.200000*%
%TD*%
%TA.AperFunction,ComponentPad*%
%ADD23R,2.400000X1.600000*%
%TD*%
%TA.AperFunction,ComponentPad*%
%ADD24O,2.400000X1.600000*%
%TD*%
%TA.AperFunction,ViaPad*%
%ADD25C,1.000000*%
%TD*%
%TA.AperFunction,Conductor*%
%ADD26C,0.304800*%
%TD*%
G04 APERTURE END LIST*
D10*
%TO.P,C1,1*%
%TO.N,+9V*%
X246182000Y-104775000D03*
D11*
%TO.P,C1,2*%
%TO.N,GND*%
X249682000Y-104775000D03*
%TD*%
%TO.P,R20,1*%
%TO.N,Net-(D7-Pad2)*%
X223901000Y-100838000D03*
D12*
%TO.P,R20,2*%
%TO.N,+9V*%
X223901000Y-93218000D03*
%TD*%
D13*
%TO.P,D7,1,K*%
%TO.N,SWITCH*%
X225171000Y-106050000D03*
D14*
%TO.P,D7,2,A*%
%TO.N,Net-(D7-Pad2)*%
X225171000Y-103510000D03*
%TD*%
D15*
%TO.P,RV3,1,1*%
%TO.N,Net-(R7-Pad1)*%
X202311000Y-59944000D03*
D16*
%TO.P,RV3,2,2*%
%TO.N,Net-(C5-Pad1)*%
X202311000Y-62484000D03*
%TO.P,RV3,3,3*%
X202311000Y-65024000D03*
%TD*%
D17*
%TO.P,J2,1,Pin_1*%
%TO.N,INPUT*%
X217678000Y-109220000D03*
D11*
%TO.P,J2,2,Pin_2*%
%TO.N,GND*%
X221278000Y-109220000D03*
%TO.P,J2,3,Pin_3*%
%TO.N,SWITCH*%
X224878000Y-109220000D03*
%TO.P,J2,4,Pin_4*%
%TO.N,OUTPUT*%
X228478000Y-109220000D03*
%TD*%
D17*
%TO.P,J1,1,Pin_1*%
%TO.N,PWR*%
X233934000Y-109220000D03*
D11*
%TO.P,J1,2,Pin_2*%
%TO.N,GND*%
X237534000Y-109220000D03*
%TD*%
D12*
%TO.P,R14,2*%
%TO.N,/fb_send*%
X249682000Y-66802000D03*
D11*
%TO.P,R14,1*%
%TO.N,/amplified*%
X249682000Y-59182000D03*
%TD*%
D18*
%TO.P,RV5,1,1*%
%TO.N,+4.5V*%
X249682000Y-79458000D03*
D11*
%TO.P,RV5,2,2*%
%TO.N,Net-(RV5-Pad2)*%
X249682000Y-83058000D03*
%TO.P,RV5,3,3*%
%TO.N,/amplified*%
X249682000Y-86658000D03*
%TD*%
D19*
%TO.P,Q1,2,B*%
%TO.N,Net-(Q1-Pad2)*%
X229870000Y-70358000D03*
%TO.P,Q1,3,E*%
%TO.N,Net-(Q1-Pad3)*%
X229870000Y-72898000D03*
D20*
%TO.P,Q1,1,C*%
%TO.N,Net-(Q1-Pad1)*%
X229870000Y-67818000D03*
%TD*%
D12*
%TO.P,R15,2*%
%TO.N,/fb_send*%
X246126000Y-64516000D03*
D11*
%TO.P,R15,1*%
%TO.N,+4.5V*%
X238506000Y-64516000D03*
%TD*%
%TO.P,C2,2*%
%TO.N,Net-(C2-Pad2)*%
X201676000Y-96600000D03*
%TO.P,C2,1*%
%TO.N,Net-(C2-Pad1)*%
X201676000Y-101600000D03*
%TD*%
%TO.P,R6,1*%
%TO.N,/fb_return*%
X208788000Y-85598000D03*
D12*
%TO.P,R6,2*%
%TO.N,Net-(R6-Pad2)*%
X208788000Y-93218000D03*
%TD*%
D15*
%TO.P,RV1,1,1*%
%TO.N,Net-(R4-Pad2)*%
X202438000Y-78994000D03*
D16*
%TO.P,RV1,2,2*%
%TO.N,Net-(RV1-Pad2)*%
X202438000Y-81534000D03*
%TO.P,RV1,3,3*%
%TO.N,Net-(C2-Pad2)*%
X202438000Y-84074000D03*
%TD*%
D15*
%TO.P,RV4,1,1*%
%TO.N,Net-(R8-Pad1)*%
X202438000Y-74930000D03*
D16*
%TO.P,RV4,2,2*%
%TO.N,Net-(C5-Pad1)*%
X202438000Y-72390000D03*
%TO.P,RV4,3,3*%
X202438000Y-69850000D03*
%TD*%
D21*
%TO.P,D1,1,K*%
%TO.N,+9V*%
X241173000Y-102616000D03*
D22*
%TO.P,D1,2,A*%
%TO.N,GND*%
X231013000Y-102616000D03*
%TD*%
D12*
%TO.P,R16,2*%
%TO.N,+4.5V*%
X226314000Y-83058000D03*
D11*
%TO.P,R16,1*%
%TO.N,Net-(D6-Pad2)*%
X226314000Y-90678000D03*
%TD*%
%TO.P,R1,1*%
%TO.N,PWR*%
X232283000Y-106045000D03*
D12*
%TO.P,R1,2*%
%TO.N,+9V*%
X239903000Y-106045000D03*
%TD*%
D11*
%TO.P,R13,1*%
%TO.N,Net-(Q1-Pad1)*%
X234188000Y-67818000D03*
D12*
%TO.P,R13,2*%
%TO.N,Net-(R13-Pad2)*%
X234188000Y-75438000D03*
%TD*%
%TO.P,R12,2*%
%TO.N,GND*%
X235458000Y-77978000D03*
D11*
%TO.P,R12,1*%
%TO.N,Net-(C4-Pad1)*%
X235458000Y-85598000D03*
%TD*%
D12*
%TO.P,R17,2*%
%TO.N,Net-(Q1-Pad3)*%
X229489000Y-75438000D03*
D11*
%TO.P,R17,1*%
%TO.N,+4.5V*%
X229489000Y-83058000D03*
%TD*%
D10*
%TO.P,C7,1*%
%TO.N,Net-(C7-Pad1)*%
X250190000Y-94996000D03*
D11*
%TO.P,C7,2*%
%TO.N,Net-(C7-Pad2)*%
X250190000Y-97496000D03*
%TD*%
%TO.P,R3,1*%
%TO.N,INPUT*%
X221234000Y-102108000D03*
D12*
%TO.P,R3,2*%
%TO.N,Net-(C2-Pad1)*%
X213614000Y-102108000D03*
%TD*%
D11*
%TO.P,R8,1*%
%TO.N,Net-(R8-Pad1)*%
X206502000Y-71882000D03*
D12*
%TO.P,R8,2*%
%TO.N,Net-(D5-Pad2)*%
X206502000Y-79502000D03*
%TD*%
D13*
%TO.P,D6,1,K*%
%TO.N,+4.5V*%
X216916000Y-96520000D03*
D14*
%TO.P,D6,2,A*%
%TO.N,Net-(D6-Pad2)*%
X219456000Y-96520000D03*
%TD*%
D11*
%TO.P,R22,1*%
%TO.N,OUTPUT*%
X226568000Y-96012000D03*
D12*
%TO.P,R22,2*%
%TO.N,Net-(C7-Pad2)*%
X234188000Y-96012000D03*
%TD*%
%TO.P,R19,2*%
%TO.N,Net-(C7-Pad1)*%
X246126000Y-92202000D03*
D11*
%TO.P,R19,1*%
%TO.N,GND*%
X238506000Y-92202000D03*
%TD*%
D12*
%TO.P,R9,2*%
%TO.N,Net-(R9-Pad2)*%
X246126000Y-67818000D03*
D11*
%TO.P,R9,1*%
%TO.N,Net-(Q1-Pad1)*%
X238506000Y-67818000D03*
%TD*%
D13*
%TO.P,D3,1,K*%
%TO.N,GND*%
X210185000Y-105664000D03*
D14*
%TO.P,D3,2,A*%
%TO.N,Net-(C2-Pad1)*%
X210185000Y-103124000D03*
%TD*%
D11*
%TO.P,R5,1*%
%TO.N,GND*%
X212090000Y-93218000D03*
D12*
%TO.P,R5,2*%
%TO.N,/fb_return*%
X212090000Y-85598000D03*
%TD*%
D11*
%TO.P,R10,1*%
%TO.N,Net-(C6-Pad1)*%
X223012000Y-69088000D03*
D12*
%TO.P,R10,2*%
%TO.N,Net-(C5-Pad1)*%
X215392000Y-69088000D03*
%TD*%
D11*
%TO.P,R2,1*%
%TO.N,INPUT*%
X221234000Y-105664000D03*
D12*
%TO.P,R2,2*%
%TO.N,GND*%
X213614000Y-105664000D03*
%TD*%
D11*
%TO.P,R21,1*%
%TO.N,GND*%
X226568000Y-99314000D03*
D12*
%TO.P,R21,2*%
%TO.N,Net-(C7-Pad2)*%
X234188000Y-99314000D03*
%TD*%
D10*
%TO.P,C4,1*%
%TO.N,Net-(C4-Pad1)*%
X233934000Y-88392000D03*
D11*
%TO.P,C4,2*%
%TO.N,GND*%
X233934000Y-90892000D03*
%TD*%
%TO.P,R18,1*%
%TO.N,Net-(Q1-Pad3)*%
X226314000Y-75438000D03*
D12*
%TO.P,R18,2*%
%TO.N,Net-(Q1-Pad1)*%
X226314000Y-67818000D03*
%TD*%
D10*
%TO.P,D4,1,K*%
%TO.N,Net-(D4-Pad1)*%
X212344000Y-75184000D03*
D12*
%TO.P,D4,2,A*%
%TO.N,Net-(D4-Pad2)*%
X212344000Y-67564000D03*
%TD*%
%TO.P,R11,2*%
%TO.N,Net-(C4-Pad1)*%
X229362000Y-85598000D03*
D11*
%TO.P,R11,1*%
%TO.N,+9V*%
X229362000Y-93218000D03*
%TD*%
%TO.P,C5,1*%
%TO.N,Net-(C5-Pad1)*%
X209804000Y-63754000D03*
%TO.P,C5,2*%
%TO.N,GND*%
X214804000Y-63754000D03*
%TD*%
D14*
%TO.P,D2,2,A*%
%TO.N,GND*%
X205613000Y-105664000D03*
D13*
%TO.P,D2,1,K*%
%TO.N,Net-(C2-Pad1)*%
X205613000Y-103124000D03*
%TD*%
D11*
%TO.P,C3,1*%
%TO.N,/fb_return*%
X205740000Y-87924000D03*
%TO.P,C3,2*%
%TO.N,/amplified*%
X205740000Y-90424000D03*
%TD*%
%TO.P,R7,1*%
%TO.N,Net-(R7-Pad1)*%
X206502000Y-61722000D03*
D12*
%TO.P,R7,2*%
%TO.N,Net-(D4-Pad1)*%
X206502000Y-69342000D03*
%TD*%
D15*
%TO.P,RV2,1,1*%
%TO.N,Net-(R6-Pad2)*%
X202438000Y-92964000D03*
D16*
%TO.P,RV2,2,2*%
%TO.N,/amplified*%
X202438000Y-90424000D03*
%TO.P,RV2,3,3*%
X202438000Y-87884000D03*
%TD*%
D23*
%TO.P,U2,1*%
%TO.N,Net-(D6-Pad2)*%
X223012000Y-88138000D03*
D24*
%TO.P,U2,2,-*%
%TO.N,Net-(C4-Pad1)*%
X223012000Y-85598000D03*
%TO.P,U2,3,+*%
%TO.N,+4.5V*%
X223012000Y-83058000D03*
%TO.P,U2,4,V+*%
%TO.N,+9V*%
X223012000Y-80518000D03*
%TO.P,U2,5,+*%
%TO.N,Net-(C6-Pad1)*%
X223012000Y-77978000D03*
%TO.P,U2,6,-*%
%TO.N,Net-(Q1-Pad3)*%
X223012000Y-75438000D03*
%TO.P,U2,7*%
%TO.N,Net-(Q1-Pad2)*%
X223012000Y-72898000D03*
%TO.P,U2,8*%
%TO.N,Net-(D4-Pad2)*%
X215392000Y-72898000D03*
%TO.P,U2,9,-*%
%TO.N,Net-(D4-Pad1)*%
X215392000Y-75438000D03*
%TO.P,U2,10,+*%
%TO.N,Net-(RV1-Pad2)*%
X215392000Y-77978000D03*
%TO.P,U2,11,V-*%
%TO.N,GND*%
X215392000Y-80518000D03*
%TO.P,U2,12,+*%
%TO.N,Net-(C2-Pad2)*%
X215392000Y-83058000D03*
%TO.P,U2,13,-*%
%TO.N,/fb_return*%
X215392000Y-85598000D03*
%TO.P,U2,14*%
%TO.N,/amplified*%
X215392000Y-88138000D03*
%TD*%
%TO.P,U1,16*%
%TO.N,Net-(R9-Pad2)*%
X246126000Y-71120000D03*
%TO.P,U1,15,DIODE_BIAS*%
%TO.N,unconnected-(U1-Pad15)*%
X246126000Y-73660000D03*
%TO.P,U1,14,+*%
%TO.N,/fb_send*%
X246126000Y-76200000D03*
%TO.P,U1,13,-*%
%TO.N,+4.5V*%
X246126000Y-78740000D03*
%TO.P,U1,12*%
%TO.N,/fb_return*%
X246126000Y-81280000D03*
%TO.P,U1,11,V+*%
%TO.N,+9V*%
X246126000Y-83820000D03*
%TO.P,U1,10*%
%TO.N,Net-(RV5-Pad2)*%
X246126000Y-86360000D03*
%TO.P,U1,9*%
%TO.N,Net-(C7-Pad1)*%
X246126000Y-88900000D03*
%TO.P,U1,8*%
%TO.N,unconnected-(U1-Pad8)*%
X238506000Y-88900000D03*
%TO.P,U1,7*%
%TO.N,unconnected-(U1-Pad7)*%
X238506000Y-86360000D03*
%TO.P,U1,6,V-*%
%TO.N,GND*%
X238506000Y-83820000D03*
%TO.P,U1,5*%
%TO.N,/fb_return*%
X238506000Y-81280000D03*
%TO.P,U1,4,-*%
%TO.N,+4.5V*%
X238506000Y-78740000D03*
%TO.P,U1,3,+*%
%TO.N,/fb_send*%
X238506000Y-76200000D03*
%TO.P,U1,2,DIODE_BIAS*%
%TO.N,unconnected-(U1-Pad2)*%
X238506000Y-73660000D03*
D23*
%TO.P,U1,1*%
%TO.N,Net-(R13-Pad2)*%
X238506000Y-71120000D03*
%TD*%
D11*
%TO.P,C6,1*%
%TO.N,Net-(C6-Pad1)*%
X222504000Y-65786000D03*
%TO.P,C6,2*%
%TO.N,GND*%
X222504000Y-60786000D03*
%TD*%
D10*
%TO.P,D5,1,K*%
%TO.N,Net-(D4-Pad2)*%
X209550000Y-67564000D03*
D12*
%TO.P,D5,2,A*%
%TO.N,Net-(D5-Pad2)*%
X209550000Y-75184000D03*
%TD*%
D11*
%TO.P,R4,1*%
%TO.N,+4.5V*%
X214122000Y-96520000D03*
D12*
%TO.P,R4,2*%
%TO.N,Net-(R4-Pad2)*%
X206502000Y-96520000D03*
%TD*%
D25*
%TO.N,+9V*%
X238506000Y-95377000D03*
X246075000Y-95301000D03*
%TO.N,/fb_return*%
X236220000Y-61468000D03*
X246126000Y-61468000D03*
%TO.N,Net-(C7-Pad2)*%
X238506000Y-97536000D03*
X246126000Y-97536000D03*
%TO.N,+9V*%
X232410000Y-85598000D03*
X232410000Y-77978000D03*
%TO.N,/amplified*%
X238506000Y-59182000D03*
X246126000Y-59182000D03*
%TD*%
D26*
%TO.N,+9V*%
X238506000Y-95377000D02*
X245999000Y-95377000D01*
X245999000Y-95377000D02*
X246075000Y-95301000D01*
%TO.N,/fb_return*%
X236220000Y-61468000D02*
X246126000Y-61468000D01*
%TO.N,/amplified*%
X246126000Y-59182000D02*
X238506000Y-59182000D01*
%TO.N,Net-(C7-Pad2)*%
X246126000Y-97536000D02*
X238506000Y-97536000D01*
%TO.N,+9V*%
X232410000Y-77978000D02*
X232410000Y-85598000D01*
%TD*%
M02*
