%TF.GenerationSoftware,KiCad,Pcbnew,(6.0.0-0)*%
%TF.CreationDate,2022-01-23T15:20:27+01:00*%
%TF.ProjectId,engineers-thumb,656e6769-6e65-4657-9273-2d7468756d62,rev?*%
%TF.SameCoordinates,Original*%
%TF.FileFunction,Legend,Top*%
%TF.FilePolarity,Positive*%
%FSLAX46Y46*%
G04 Gerber Fmt 4.6, Leading zero omitted, Abs format (unit mm)*
G04 Created by KiCad (PCBNEW (6.0.0-0)) date 2022-01-23 15:20:27*
%MOMM*%
%LPD*%
G01*
G04 APERTURE LIST*
%ADD10C,0.150000*%
%ADD11C,0.120000*%
G04 APERTURE END LIST*
D10*
%TO.C,C1*%
X247765333Y-99882142D02*
X247717714Y-99929761D01*
X247574857Y-99977380D01*
X247479619Y-99977380D01*
X247336761Y-99929761D01*
X247241523Y-99834523D01*
X247193904Y-99739285D01*
X247146285Y-99548809D01*
X247146285Y-99405952D01*
X247193904Y-99215476D01*
X247241523Y-99120238D01*
X247336761Y-99025000D01*
X247479619Y-98977380D01*
X247574857Y-98977380D01*
X247717714Y-99025000D01*
X247765333Y-99072619D01*
X248717714Y-99977380D02*
X248146285Y-99977380D01*
X248432000Y-99977380D02*
X248432000Y-98977380D01*
X248336761Y-99120238D01*
X248241523Y-99215476D01*
X248146285Y-99263095D01*
%TO.C,R20*%
X222067380Y-102496857D02*
X221591190Y-102830190D01*
X222067380Y-103068285D02*
X221067380Y-103068285D01*
X221067380Y-102687333D01*
X221115000Y-102592095D01*
X221162619Y-102544476D01*
X221257857Y-102496857D01*
X221400714Y-102496857D01*
X221495952Y-102544476D01*
X221543571Y-102592095D01*
X221591190Y-102687333D01*
X221591190Y-103068285D01*
X221162619Y-102115904D02*
X221115000Y-102068285D01*
X221067380Y-101973047D01*
X221067380Y-101734952D01*
X221115000Y-101639714D01*
X221162619Y-101592095D01*
X221257857Y-101544476D01*
X221353095Y-101544476D01*
X221495952Y-101592095D01*
X222067380Y-102163523D01*
X222067380Y-101544476D01*
X221067380Y-100925428D02*
X221067380Y-100830190D01*
X221115000Y-100734952D01*
X221162619Y-100687333D01*
X221257857Y-100639714D01*
X221448333Y-100592095D01*
X221686428Y-100592095D01*
X221876904Y-100639714D01*
X221972142Y-100687333D01*
X222019761Y-100734952D01*
X222067380Y-100830190D01*
X222067380Y-100925428D01*
X222019761Y-101020666D01*
X221972142Y-101068285D01*
X221876904Y-101115904D01*
X221686428Y-101163523D01*
X221448333Y-101163523D01*
X221257857Y-101115904D01*
X221162619Y-101068285D01*
X221115000Y-101020666D01*
X221067380Y-100925428D01*
X223353380Y-98480380D02*
X223353380Y-97861333D01*
X223734333Y-98194666D01*
X223734333Y-98051809D01*
X223781952Y-97956571D01*
X223829571Y-97908952D01*
X223924809Y-97861333D01*
X224162904Y-97861333D01*
X224258142Y-97908952D01*
X224305761Y-97956571D01*
X224353380Y-98051809D01*
X224353380Y-98337523D01*
X224305761Y-98432761D01*
X224258142Y-98480380D01*
X224258142Y-97432761D02*
X224305761Y-97385142D01*
X224353380Y-97432761D01*
X224305761Y-97480380D01*
X224258142Y-97432761D01*
X224353380Y-97432761D01*
X224353380Y-96908952D02*
X224353380Y-96718476D01*
X224305761Y-96623238D01*
X224258142Y-96575619D01*
X224115285Y-96480380D01*
X223924809Y-96432761D01*
X223543857Y-96432761D01*
X223448619Y-96480380D01*
X223401000Y-96528000D01*
X223353380Y-96623238D01*
X223353380Y-96813714D01*
X223401000Y-96908952D01*
X223448619Y-96956571D01*
X223543857Y-97004190D01*
X223781952Y-97004190D01*
X223877190Y-96956571D01*
X223924809Y-96908952D01*
X223972428Y-96813714D01*
X223972428Y-96623238D01*
X223924809Y-96528000D01*
X223877190Y-96480380D01*
X223781952Y-96432761D01*
X224353380Y-96004190D02*
X223353380Y-96004190D01*
X223972428Y-95908952D02*
X224353380Y-95623238D01*
X223686714Y-95623238D02*
X224067666Y-96004190D01*
%TO.C,D7*%
X222663380Y-105518095D02*
X221663380Y-105518095D01*
X221663380Y-105280000D01*
X221711000Y-105137142D01*
X221806238Y-105041904D01*
X221901476Y-104994285D01*
X222091952Y-104946666D01*
X222234809Y-104946666D01*
X222425285Y-104994285D01*
X222520523Y-105041904D01*
X222615761Y-105137142D01*
X222663380Y-105280000D01*
X222663380Y-105518095D01*
X221663380Y-104613333D02*
X221663380Y-103946666D01*
X222663380Y-104375238D01*
%TO.C,RV3*%
X201715761Y-58066380D02*
X201382428Y-57590190D01*
X201144333Y-58066380D02*
X201144333Y-57066380D01*
X201525285Y-57066380D01*
X201620523Y-57114000D01*
X201668142Y-57161619D01*
X201715761Y-57256857D01*
X201715761Y-57399714D01*
X201668142Y-57494952D01*
X201620523Y-57542571D01*
X201525285Y-57590190D01*
X201144333Y-57590190D01*
X202001476Y-57066380D02*
X202334809Y-58066380D01*
X202668142Y-57066380D01*
X202906238Y-57066380D02*
X203525285Y-57066380D01*
X203191952Y-57447333D01*
X203334809Y-57447333D01*
X203430047Y-57494952D01*
X203477666Y-57542571D01*
X203525285Y-57637809D01*
X203525285Y-57875904D01*
X203477666Y-57971142D01*
X203430047Y-58018761D01*
X203334809Y-58066380D01*
X203049095Y-58066380D01*
X202953857Y-58018761D01*
X202906238Y-57971142D01*
%TO.C,J2*%
X222744666Y-106672380D02*
X222744666Y-107386666D01*
X222697047Y-107529523D01*
X222601809Y-107624761D01*
X222458952Y-107672380D01*
X222363714Y-107672380D01*
X223173238Y-106767619D02*
X223220857Y-106720000D01*
X223316095Y-106672380D01*
X223554190Y-106672380D01*
X223649428Y-106720000D01*
X223697047Y-106767619D01*
X223744666Y-106862857D01*
X223744666Y-106958095D01*
X223697047Y-107100952D01*
X223125619Y-107672380D01*
X223744666Y-107672380D01*
%TO.C,J1*%
X235400666Y-106672380D02*
X235400666Y-107386666D01*
X235353047Y-107529523D01*
X235257809Y-107624761D01*
X235114952Y-107672380D01*
X235019714Y-107672380D01*
X236400666Y-107672380D02*
X235829238Y-107672380D01*
X236114952Y-107672380D02*
X236114952Y-106672380D01*
X236019714Y-106815238D01*
X235924476Y-106910476D01*
X235829238Y-106958095D01*
%TO.C,R14*%
X251658380Y-58808857D02*
X251182190Y-59142190D01*
X251658380Y-59380285D02*
X250658380Y-59380285D01*
X250658380Y-58999333D01*
X250706000Y-58904095D01*
X250753619Y-58856476D01*
X250848857Y-58808857D01*
X250991714Y-58808857D01*
X251086952Y-58856476D01*
X251134571Y-58904095D01*
X251182190Y-58999333D01*
X251182190Y-59380285D01*
X251658380Y-57856476D02*
X251658380Y-58427904D01*
X251658380Y-58142190D02*
X250658380Y-58142190D01*
X250801238Y-58237428D01*
X250896476Y-58332666D01*
X250944095Y-58427904D01*
X250991714Y-56999333D02*
X251658380Y-56999333D01*
X250610761Y-57237428D02*
X251325047Y-57475523D01*
X251325047Y-56856476D01*
X249229619Y-62396761D02*
X249229619Y-61825333D01*
X249229619Y-62111047D02*
X250229619Y-62111047D01*
X250086761Y-62015809D01*
X249991523Y-61920571D01*
X249943904Y-61825333D01*
X250229619Y-63015809D02*
X250229619Y-63111047D01*
X250182000Y-63206285D01*
X250134380Y-63253904D01*
X250039142Y-63301523D01*
X249848666Y-63349142D01*
X249610571Y-63349142D01*
X249420095Y-63301523D01*
X249324857Y-63253904D01*
X249277238Y-63206285D01*
X249229619Y-63111047D01*
X249229619Y-63015809D01*
X249277238Y-62920571D01*
X249324857Y-62872952D01*
X249420095Y-62825333D01*
X249610571Y-62777714D01*
X249848666Y-62777714D01*
X250039142Y-62825333D01*
X250134380Y-62872952D01*
X250182000Y-62920571D01*
X250229619Y-63015809D01*
X249229619Y-63777714D02*
X250229619Y-63777714D01*
X249610571Y-63872952D02*
X249229619Y-64158666D01*
X249896285Y-64158666D02*
X249515333Y-63777714D01*
%TO.C,RV5*%
X252134380Y-83653238D02*
X251658190Y-83986571D01*
X252134380Y-84224666D02*
X251134380Y-84224666D01*
X251134380Y-83843714D01*
X251182000Y-83748476D01*
X251229619Y-83700857D01*
X251324857Y-83653238D01*
X251467714Y-83653238D01*
X251562952Y-83700857D01*
X251610571Y-83748476D01*
X251658190Y-83843714D01*
X251658190Y-84224666D01*
X251134380Y-83367523D02*
X252134380Y-83034190D01*
X251134380Y-82700857D01*
X251134380Y-81891333D02*
X251134380Y-82367523D01*
X251610571Y-82415142D01*
X251562952Y-82367523D01*
X251515333Y-82272285D01*
X251515333Y-82034190D01*
X251562952Y-81938952D01*
X251610571Y-81891333D01*
X251705809Y-81843714D01*
X251943904Y-81843714D01*
X252039142Y-81891333D01*
X252086761Y-81938952D01*
X252134380Y-82034190D01*
X252134380Y-82272285D01*
X252086761Y-82367523D01*
X252039142Y-82415142D01*
%TO.C,Q1*%
X233977619Y-70453238D02*
X233930000Y-70548476D01*
X233834761Y-70643714D01*
X233691904Y-70786571D01*
X233644285Y-70881809D01*
X233644285Y-70977047D01*
X233882380Y-70929428D02*
X233834761Y-71024666D01*
X233739523Y-71119904D01*
X233549047Y-71167523D01*
X233215714Y-71167523D01*
X233025238Y-71119904D01*
X232930000Y-71024666D01*
X232882380Y-70929428D01*
X232882380Y-70738952D01*
X232930000Y-70643714D01*
X233025238Y-70548476D01*
X233215714Y-70500857D01*
X233549047Y-70500857D01*
X233739523Y-70548476D01*
X233834761Y-70643714D01*
X233882380Y-70738952D01*
X233882380Y-70929428D01*
X233882380Y-69548476D02*
X233882380Y-70119904D01*
X233882380Y-69834190D02*
X232882380Y-69834190D01*
X233025238Y-69929428D01*
X233120476Y-70024666D01*
X233168095Y-70119904D01*
%TO.C,R15*%
X236847142Y-63444380D02*
X236513809Y-62968190D01*
X236275714Y-63444380D02*
X236275714Y-62444380D01*
X236656666Y-62444380D01*
X236751904Y-62492000D01*
X236799523Y-62539619D01*
X236847142Y-62634857D01*
X236847142Y-62777714D01*
X236799523Y-62872952D01*
X236751904Y-62920571D01*
X236656666Y-62968190D01*
X236275714Y-62968190D01*
X237799523Y-63444380D02*
X237228095Y-63444380D01*
X237513809Y-63444380D02*
X237513809Y-62444380D01*
X237418571Y-62587238D01*
X237323333Y-62682476D01*
X237228095Y-62730095D01*
X238704285Y-62444380D02*
X238228095Y-62444380D01*
X238180476Y-62920571D01*
X238228095Y-62872952D01*
X238323333Y-62825333D01*
X238561428Y-62825333D01*
X238656666Y-62872952D01*
X238704285Y-62920571D01*
X238751904Y-63015809D01*
X238751904Y-63253904D01*
X238704285Y-63349142D01*
X238656666Y-63396761D01*
X238561428Y-63444380D01*
X238323333Y-63444380D01*
X238228095Y-63396761D01*
X238180476Y-63349142D01*
X240577904Y-64063619D02*
X240625523Y-64016000D01*
X240720761Y-63968380D01*
X240958857Y-63968380D01*
X241054095Y-64016000D01*
X241101714Y-64063619D01*
X241149333Y-64158857D01*
X241149333Y-64254095D01*
X241101714Y-64396952D01*
X240530285Y-64968380D01*
X241149333Y-64968380D01*
X241530285Y-64063619D02*
X241577904Y-64016000D01*
X241673142Y-63968380D01*
X241911238Y-63968380D01*
X242006476Y-64016000D01*
X242054095Y-64063619D01*
X242101714Y-64158857D01*
X242101714Y-64254095D01*
X242054095Y-64396952D01*
X241482666Y-64968380D01*
X242101714Y-64968380D01*
X242720761Y-63968380D02*
X242816000Y-63968380D01*
X242911238Y-64016000D01*
X242958857Y-64063619D01*
X243006476Y-64158857D01*
X243054095Y-64349333D01*
X243054095Y-64587428D01*
X243006476Y-64777904D01*
X242958857Y-64873142D01*
X242911238Y-64920761D01*
X242816000Y-64968380D01*
X242720761Y-64968380D01*
X242625523Y-64920761D01*
X242577904Y-64873142D01*
X242530285Y-64777904D01*
X242482666Y-64587428D01*
X242482666Y-64349333D01*
X242530285Y-64158857D01*
X242577904Y-64063619D01*
X242625523Y-64016000D01*
X242720761Y-63968380D01*
X244054095Y-64968380D02*
X243720761Y-64492190D01*
X243482666Y-64968380D02*
X243482666Y-63968380D01*
X243863619Y-63968380D01*
X243958857Y-64016000D01*
X244006476Y-64063619D01*
X244054095Y-64158857D01*
X244054095Y-64301714D01*
X244006476Y-64396952D01*
X243958857Y-64444571D01*
X243863619Y-64492190D01*
X243482666Y-64492190D01*
%TO.C,C2*%
X202033142Y-99226666D02*
X202080761Y-99274285D01*
X202128380Y-99417142D01*
X202128380Y-99512380D01*
X202080761Y-99655238D01*
X201985523Y-99750476D01*
X201890285Y-99798095D01*
X201699809Y-99845714D01*
X201556952Y-99845714D01*
X201366476Y-99798095D01*
X201271238Y-99750476D01*
X201176000Y-99655238D01*
X201128380Y-99512380D01*
X201128380Y-99417142D01*
X201176000Y-99274285D01*
X201223619Y-99226666D01*
X201223619Y-98845714D02*
X201176000Y-98798095D01*
X201128380Y-98702857D01*
X201128380Y-98464761D01*
X201176000Y-98369523D01*
X201223619Y-98321904D01*
X201318857Y-98274285D01*
X201414095Y-98274285D01*
X201556952Y-98321904D01*
X202128380Y-98893333D01*
X202128380Y-98274285D01*
%TO.C,R6*%
X210764380Y-84748666D02*
X210288190Y-85082000D01*
X210764380Y-85320095D02*
X209764380Y-85320095D01*
X209764380Y-84939142D01*
X209812000Y-84843904D01*
X209859619Y-84796285D01*
X209954857Y-84748666D01*
X210097714Y-84748666D01*
X210192952Y-84796285D01*
X210240571Y-84843904D01*
X210288190Y-84939142D01*
X210288190Y-85320095D01*
X209764380Y-83891523D02*
X209764380Y-84082000D01*
X209812000Y-84177238D01*
X209859619Y-84224857D01*
X210002476Y-84320095D01*
X210192952Y-84367714D01*
X210573904Y-84367714D01*
X210669142Y-84320095D01*
X210716761Y-84272476D01*
X210764380Y-84177238D01*
X210764380Y-83986761D01*
X210716761Y-83891523D01*
X210669142Y-83843904D01*
X210573904Y-83796285D01*
X210335809Y-83796285D01*
X210240571Y-83843904D01*
X210192952Y-83891523D01*
X210145333Y-83986761D01*
X210145333Y-84177238D01*
X210192952Y-84272476D01*
X210240571Y-84320095D01*
X210335809Y-84367714D01*
X209002285Y-88717523D02*
X208335619Y-88717523D01*
X209383238Y-88479428D02*
X208668952Y-88241333D01*
X208668952Y-88860380D01*
X208335619Y-89241333D02*
X209335619Y-89241333D01*
X208716571Y-89336571D02*
X208335619Y-89622285D01*
X209002285Y-89622285D02*
X208621333Y-89241333D01*
X209335619Y-89955619D02*
X209335619Y-90622285D01*
X208335619Y-90193714D01*
%TO.C,RV1*%
X201842761Y-77116380D02*
X201509428Y-76640190D01*
X201271333Y-77116380D02*
X201271333Y-76116380D01*
X201652285Y-76116380D01*
X201747523Y-76164000D01*
X201795142Y-76211619D01*
X201842761Y-76306857D01*
X201842761Y-76449714D01*
X201795142Y-76544952D01*
X201747523Y-76592571D01*
X201652285Y-76640190D01*
X201271333Y-76640190D01*
X202128476Y-76116380D02*
X202461809Y-77116380D01*
X202795142Y-76116380D01*
X203652285Y-77116380D02*
X203080857Y-77116380D01*
X203366571Y-77116380D02*
X203366571Y-76116380D01*
X203271333Y-76259238D01*
X203176095Y-76354476D01*
X203080857Y-76402095D01*
%TO.C,RV4*%
X201842761Y-77712380D02*
X201509428Y-77236190D01*
X201271333Y-77712380D02*
X201271333Y-76712380D01*
X201652285Y-76712380D01*
X201747523Y-76760000D01*
X201795142Y-76807619D01*
X201842761Y-76902857D01*
X201842761Y-77045714D01*
X201795142Y-77140952D01*
X201747523Y-77188571D01*
X201652285Y-77236190D01*
X201271333Y-77236190D01*
X202128476Y-76712380D02*
X202461809Y-77712380D01*
X202795142Y-76712380D01*
X203557047Y-77045714D02*
X203557047Y-77712380D01*
X203318952Y-76664761D02*
X203080857Y-77379047D01*
X203699904Y-77379047D01*
%TO.C,D1*%
X235354904Y-105538380D02*
X235354904Y-104538380D01*
X235593000Y-104538380D01*
X235735857Y-104586000D01*
X235831095Y-104681238D01*
X235878714Y-104776476D01*
X235926333Y-104966952D01*
X235926333Y-105109809D01*
X235878714Y-105300285D01*
X235831095Y-105395523D01*
X235735857Y-105490761D01*
X235593000Y-105538380D01*
X235354904Y-105538380D01*
X236878714Y-105538380D02*
X236307285Y-105538380D01*
X236593000Y-105538380D02*
X236593000Y-104538380D01*
X236497761Y-104681238D01*
X236402523Y-104776476D01*
X236307285Y-104824095D01*
X240911095Y-105168380D02*
X240911095Y-104168380D01*
X241482523Y-105168380D02*
X241053952Y-104596952D01*
X241482523Y-104168380D02*
X240911095Y-104739809D01*
%TO.C,R16*%
X225242380Y-92336857D02*
X224766190Y-92670190D01*
X225242380Y-92908285D02*
X224242380Y-92908285D01*
X224242380Y-92527333D01*
X224290000Y-92432095D01*
X224337619Y-92384476D01*
X224432857Y-92336857D01*
X224575714Y-92336857D01*
X224670952Y-92384476D01*
X224718571Y-92432095D01*
X224766190Y-92527333D01*
X224766190Y-92908285D01*
X225242380Y-91384476D02*
X225242380Y-91955904D01*
X225242380Y-91670190D02*
X224242380Y-91670190D01*
X224385238Y-91765428D01*
X224480476Y-91860666D01*
X224528095Y-91955904D01*
X224242380Y-90527333D02*
X224242380Y-90717809D01*
X224290000Y-90813047D01*
X224337619Y-90860666D01*
X224480476Y-90955904D01*
X224670952Y-91003523D01*
X225051904Y-91003523D01*
X225147142Y-90955904D01*
X225194761Y-90908285D01*
X225242380Y-90813047D01*
X225242380Y-90622571D01*
X225194761Y-90527333D01*
X225147142Y-90479714D01*
X225051904Y-90432095D01*
X224813809Y-90432095D01*
X224718571Y-90479714D01*
X224670952Y-90527333D01*
X224623333Y-90622571D01*
X224623333Y-90813047D01*
X224670952Y-90908285D01*
X224718571Y-90955904D01*
X224813809Y-91003523D01*
X226766380Y-87939428D02*
X226766380Y-88510857D01*
X226766380Y-88225142D02*
X225766380Y-88225142D01*
X225909238Y-88320380D01*
X226004476Y-88415619D01*
X226052095Y-88510857D01*
X225766380Y-87320380D02*
X225766380Y-87225142D01*
X225814000Y-87129904D01*
X225861619Y-87082285D01*
X225956857Y-87034666D01*
X226147333Y-86987047D01*
X226385428Y-86987047D01*
X226575904Y-87034666D01*
X226671142Y-87082285D01*
X226718761Y-87129904D01*
X226766380Y-87225142D01*
X226766380Y-87320380D01*
X226718761Y-87415619D01*
X226671142Y-87463238D01*
X226575904Y-87510857D01*
X226385428Y-87558476D01*
X226147333Y-87558476D01*
X225956857Y-87510857D01*
X225861619Y-87463238D01*
X225814000Y-87415619D01*
X225766380Y-87320380D01*
X225766380Y-86368000D02*
X225766380Y-86272761D01*
X225814000Y-86177523D01*
X225861619Y-86129904D01*
X225956857Y-86082285D01*
X226147333Y-86034666D01*
X226385428Y-86034666D01*
X226575904Y-86082285D01*
X226671142Y-86129904D01*
X226718761Y-86177523D01*
X226766380Y-86272761D01*
X226766380Y-86368000D01*
X226718761Y-86463238D01*
X226671142Y-86510857D01*
X226575904Y-86558476D01*
X226385428Y-86606095D01*
X226147333Y-86606095D01*
X225956857Y-86558476D01*
X225861619Y-86510857D01*
X225814000Y-86463238D01*
X225766380Y-86368000D01*
X226766380Y-85606095D02*
X225766380Y-85606095D01*
X226385428Y-85510857D02*
X226766380Y-85225142D01*
X226099714Y-85225142D02*
X226480666Y-85606095D01*
%TO.C,R1*%
X231100333Y-104973380D02*
X230767000Y-104497190D01*
X230528904Y-104973380D02*
X230528904Y-103973380D01*
X230909857Y-103973380D01*
X231005095Y-104021000D01*
X231052714Y-104068619D01*
X231100333Y-104163857D01*
X231100333Y-104306714D01*
X231052714Y-104401952D01*
X231005095Y-104449571D01*
X230909857Y-104497190D01*
X230528904Y-104497190D01*
X232052714Y-104973380D02*
X231481285Y-104973380D01*
X231767000Y-104973380D02*
X231767000Y-103973380D01*
X231671761Y-104116238D01*
X231576523Y-104211476D01*
X231481285Y-104259095D01*
X234783476Y-105497380D02*
X235402523Y-105497380D01*
X235069190Y-105878333D01*
X235212047Y-105878333D01*
X235307285Y-105925952D01*
X235354904Y-105973571D01*
X235402523Y-106068809D01*
X235402523Y-106306904D01*
X235354904Y-106402142D01*
X235307285Y-106449761D01*
X235212047Y-106497380D01*
X234926333Y-106497380D01*
X234831095Y-106449761D01*
X234783476Y-106402142D01*
X235735857Y-105497380D02*
X236354904Y-105497380D01*
X236021571Y-105878333D01*
X236164428Y-105878333D01*
X236259666Y-105925952D01*
X236307285Y-105973571D01*
X236354904Y-106068809D01*
X236354904Y-106306904D01*
X236307285Y-106402142D01*
X236259666Y-106449761D01*
X236164428Y-106497380D01*
X235878714Y-106497380D01*
X235783476Y-106449761D01*
X235735857Y-106402142D01*
X237354904Y-106497380D02*
X237021571Y-106021190D01*
X236783476Y-106497380D02*
X236783476Y-105497380D01*
X237164428Y-105497380D01*
X237259666Y-105545000D01*
X237307285Y-105592619D01*
X237354904Y-105687857D01*
X237354904Y-105830714D01*
X237307285Y-105925952D01*
X237259666Y-105973571D01*
X237164428Y-106021190D01*
X236783476Y-106021190D01*
%TO.C,R13*%
X236164380Y-67444857D02*
X235688190Y-67778190D01*
X236164380Y-68016285D02*
X235164380Y-68016285D01*
X235164380Y-67635333D01*
X235212000Y-67540095D01*
X235259619Y-67492476D01*
X235354857Y-67444857D01*
X235497714Y-67444857D01*
X235592952Y-67492476D01*
X235640571Y-67540095D01*
X235688190Y-67635333D01*
X235688190Y-68016285D01*
X236164380Y-66492476D02*
X236164380Y-67063904D01*
X236164380Y-66778190D02*
X235164380Y-66778190D01*
X235307238Y-66873428D01*
X235402476Y-66968666D01*
X235450095Y-67063904D01*
X235164380Y-66159142D02*
X235164380Y-65540095D01*
X235545333Y-65873428D01*
X235545333Y-65730571D01*
X235592952Y-65635333D01*
X235640571Y-65587714D01*
X235735809Y-65540095D01*
X235973904Y-65540095D01*
X236069142Y-65587714D01*
X236116761Y-65635333D01*
X236164380Y-65730571D01*
X236164380Y-66016285D01*
X236116761Y-66111523D01*
X236069142Y-66159142D01*
X234640380Y-69889904D02*
X234688000Y-69937523D01*
X234735619Y-70032761D01*
X234735619Y-70270857D01*
X234688000Y-70366095D01*
X234640380Y-70413714D01*
X234545142Y-70461333D01*
X234449904Y-70461333D01*
X234307047Y-70413714D01*
X233735619Y-69842285D01*
X233735619Y-70461333D01*
X234640380Y-70842285D02*
X234688000Y-70889904D01*
X234735619Y-70985142D01*
X234735619Y-71223238D01*
X234688000Y-71318476D01*
X234640380Y-71366095D01*
X234545142Y-71413714D01*
X234449904Y-71413714D01*
X234307047Y-71366095D01*
X233735619Y-70794666D01*
X233735619Y-71413714D01*
X234735619Y-72032761D02*
X234735619Y-72128000D01*
X234688000Y-72223238D01*
X234640380Y-72270857D01*
X234545142Y-72318476D01*
X234354666Y-72366095D01*
X234116571Y-72366095D01*
X233926095Y-72318476D01*
X233830857Y-72270857D01*
X233783238Y-72223238D01*
X233735619Y-72128000D01*
X233735619Y-72032761D01*
X233783238Y-71937523D01*
X233830857Y-71889904D01*
X233926095Y-71842285D01*
X234116571Y-71794666D01*
X234354666Y-71794666D01*
X234545142Y-71842285D01*
X234640380Y-71889904D01*
X234688000Y-71937523D01*
X234735619Y-72032761D01*
X233735619Y-73366095D02*
X234211809Y-73032761D01*
X233735619Y-72794666D02*
X234735619Y-72794666D01*
X234735619Y-73175619D01*
X234688000Y-73270857D01*
X234640380Y-73318476D01*
X234545142Y-73366095D01*
X234402285Y-73366095D01*
X234307047Y-73318476D01*
X234259428Y-73270857D01*
X234211809Y-73175619D01*
X234211809Y-72794666D01*
%TO.C,R12*%
X234386380Y-87256857D02*
X233910190Y-87590190D01*
X234386380Y-87828285D02*
X233386380Y-87828285D01*
X233386380Y-87447333D01*
X233434000Y-87352095D01*
X233481619Y-87304476D01*
X233576857Y-87256857D01*
X233719714Y-87256857D01*
X233814952Y-87304476D01*
X233862571Y-87352095D01*
X233910190Y-87447333D01*
X233910190Y-87828285D01*
X234386380Y-86304476D02*
X234386380Y-86875904D01*
X234386380Y-86590190D02*
X233386380Y-86590190D01*
X233529238Y-86685428D01*
X233624476Y-86780666D01*
X233672095Y-86875904D01*
X233481619Y-85923523D02*
X233434000Y-85875904D01*
X233386380Y-85780666D01*
X233386380Y-85542571D01*
X233434000Y-85447333D01*
X233481619Y-85399714D01*
X233576857Y-85352095D01*
X233672095Y-85352095D01*
X233814952Y-85399714D01*
X234386380Y-85971142D01*
X234386380Y-85352095D01*
X235910380Y-82859428D02*
X235910380Y-83430857D01*
X235910380Y-83145142D02*
X234910380Y-83145142D01*
X235053238Y-83240380D01*
X235148476Y-83335619D01*
X235196095Y-83430857D01*
X234910380Y-82240380D02*
X234910380Y-82145142D01*
X234958000Y-82049904D01*
X235005619Y-82002285D01*
X235100857Y-81954666D01*
X235291333Y-81907047D01*
X235529428Y-81907047D01*
X235719904Y-81954666D01*
X235815142Y-82002285D01*
X235862761Y-82049904D01*
X235910380Y-82145142D01*
X235910380Y-82240380D01*
X235862761Y-82335619D01*
X235815142Y-82383238D01*
X235719904Y-82430857D01*
X235529428Y-82478476D01*
X235291333Y-82478476D01*
X235100857Y-82430857D01*
X235005619Y-82383238D01*
X234958000Y-82335619D01*
X234910380Y-82240380D01*
X234910380Y-81288000D02*
X234910380Y-81192761D01*
X234958000Y-81097523D01*
X235005619Y-81049904D01*
X235100857Y-81002285D01*
X235291333Y-80954666D01*
X235529428Y-80954666D01*
X235719904Y-81002285D01*
X235815142Y-81049904D01*
X235862761Y-81097523D01*
X235910380Y-81192761D01*
X235910380Y-81288000D01*
X235862761Y-81383238D01*
X235815142Y-81430857D01*
X235719904Y-81478476D01*
X235529428Y-81526095D01*
X235291333Y-81526095D01*
X235100857Y-81478476D01*
X235005619Y-81430857D01*
X234958000Y-81383238D01*
X234910380Y-81288000D01*
X235910380Y-80526095D02*
X234910380Y-80526095D01*
X235529428Y-80430857D02*
X235910380Y-80145142D01*
X235243714Y-80145142D02*
X235624666Y-80526095D01*
%TO.C,R17*%
X228417380Y-84716857D02*
X227941190Y-85050190D01*
X228417380Y-85288285D02*
X227417380Y-85288285D01*
X227417380Y-84907333D01*
X227465000Y-84812095D01*
X227512619Y-84764476D01*
X227607857Y-84716857D01*
X227750714Y-84716857D01*
X227845952Y-84764476D01*
X227893571Y-84812095D01*
X227941190Y-84907333D01*
X227941190Y-85288285D01*
X228417380Y-83764476D02*
X228417380Y-84335904D01*
X228417380Y-84050190D02*
X227417380Y-84050190D01*
X227560238Y-84145428D01*
X227655476Y-84240666D01*
X227703095Y-84335904D01*
X227417380Y-83431142D02*
X227417380Y-82764476D01*
X228417380Y-83193047D01*
X229941380Y-79367047D02*
X229941380Y-79938476D01*
X229941380Y-79652761D02*
X228941380Y-79652761D01*
X229084238Y-79748000D01*
X229179476Y-79843238D01*
X229227095Y-79938476D01*
X229941380Y-78938476D02*
X228941380Y-78938476D01*
X229560428Y-78843238D02*
X229941380Y-78557523D01*
X229274714Y-78557523D02*
X229655666Y-78938476D01*
%TO.C,C7*%
X254297142Y-96412666D02*
X254344761Y-96460285D01*
X254392380Y-96603142D01*
X254392380Y-96698380D01*
X254344761Y-96841238D01*
X254249523Y-96936476D01*
X254154285Y-96984095D01*
X253963809Y-97031714D01*
X253820952Y-97031714D01*
X253630476Y-96984095D01*
X253535238Y-96936476D01*
X253440000Y-96841238D01*
X253392380Y-96698380D01*
X253392380Y-96603142D01*
X253440000Y-96460285D01*
X253487619Y-96412666D01*
X253392380Y-96079333D02*
X253392380Y-95412666D01*
X254392380Y-95841238D01*
%TO.C,R3*%
X222083333Y-104084380D02*
X221750000Y-103608190D01*
X221511904Y-104084380D02*
X221511904Y-103084380D01*
X221892857Y-103084380D01*
X221988095Y-103132000D01*
X222035714Y-103179619D01*
X222083333Y-103274857D01*
X222083333Y-103417714D01*
X222035714Y-103512952D01*
X221988095Y-103560571D01*
X221892857Y-103608190D01*
X221511904Y-103608190D01*
X222416666Y-103084380D02*
X223035714Y-103084380D01*
X222702380Y-103465333D01*
X222845238Y-103465333D01*
X222940476Y-103512952D01*
X222988095Y-103560571D01*
X223035714Y-103655809D01*
X223035714Y-103893904D01*
X222988095Y-103989142D01*
X222940476Y-104036761D01*
X222845238Y-104084380D01*
X222559523Y-104084380D01*
X222464285Y-104036761D01*
X222416666Y-103989142D01*
X217543047Y-101655619D02*
X218114476Y-101655619D01*
X217828761Y-101655619D02*
X217828761Y-102655619D01*
X217924000Y-102512761D01*
X218019238Y-102417523D01*
X218114476Y-102369904D01*
X217114476Y-101655619D02*
X217114476Y-102655619D01*
X217019238Y-102036571D02*
X216733523Y-101655619D01*
X216733523Y-102322285D02*
X217114476Y-101941333D01*
%TO.C,R8*%
X208478380Y-71032666D02*
X208002190Y-71366000D01*
X208478380Y-71604095D02*
X207478380Y-71604095D01*
X207478380Y-71223142D01*
X207526000Y-71127904D01*
X207573619Y-71080285D01*
X207668857Y-71032666D01*
X207811714Y-71032666D01*
X207906952Y-71080285D01*
X207954571Y-71127904D01*
X208002190Y-71223142D01*
X208002190Y-71604095D01*
X207906952Y-70461238D02*
X207859333Y-70556476D01*
X207811714Y-70604095D01*
X207716476Y-70651714D01*
X207668857Y-70651714D01*
X207573619Y-70604095D01*
X207526000Y-70556476D01*
X207478380Y-70461238D01*
X207478380Y-70270761D01*
X207526000Y-70175523D01*
X207573619Y-70127904D01*
X207668857Y-70080285D01*
X207716476Y-70080285D01*
X207811714Y-70127904D01*
X207859333Y-70175523D01*
X207906952Y-70270761D01*
X207906952Y-70461238D01*
X207954571Y-70556476D01*
X208002190Y-70604095D01*
X208097428Y-70651714D01*
X208287904Y-70651714D01*
X208383142Y-70604095D01*
X208430761Y-70556476D01*
X208478380Y-70461238D01*
X208478380Y-70270761D01*
X208430761Y-70175523D01*
X208383142Y-70127904D01*
X208287904Y-70080285D01*
X208097428Y-70080285D01*
X208002190Y-70127904D01*
X207954571Y-70175523D01*
X207906952Y-70270761D01*
X206049619Y-74525333D02*
X206049619Y-73953904D01*
X206049619Y-74239619D02*
X207049619Y-74239619D01*
X206906761Y-74144380D01*
X206811523Y-74049142D01*
X206763904Y-73953904D01*
X207049619Y-75144380D02*
X207049619Y-75239619D01*
X207002000Y-75334857D01*
X206954380Y-75382476D01*
X206859142Y-75430095D01*
X206668666Y-75477714D01*
X206430571Y-75477714D01*
X206240095Y-75430095D01*
X206144857Y-75382476D01*
X206097238Y-75334857D01*
X206049619Y-75239619D01*
X206049619Y-75144380D01*
X206097238Y-75049142D01*
X206144857Y-75001523D01*
X206240095Y-74953904D01*
X206430571Y-74906285D01*
X206668666Y-74906285D01*
X206859142Y-74953904D01*
X206954380Y-75001523D01*
X207002000Y-75049142D01*
X207049619Y-75144380D01*
X207049619Y-76096761D02*
X207049619Y-76192000D01*
X207002000Y-76287238D01*
X206954380Y-76334857D01*
X206859142Y-76382476D01*
X206668666Y-76430095D01*
X206430571Y-76430095D01*
X206240095Y-76382476D01*
X206144857Y-76334857D01*
X206097238Y-76287238D01*
X206049619Y-76192000D01*
X206049619Y-76096761D01*
X206097238Y-76001523D01*
X206144857Y-75953904D01*
X206240095Y-75906285D01*
X206430571Y-75858666D01*
X206668666Y-75858666D01*
X206859142Y-75906285D01*
X206954380Y-75953904D01*
X207002000Y-76001523D01*
X207049619Y-76096761D01*
X206049619Y-77430095D02*
X206525809Y-77096761D01*
X206049619Y-76858666D02*
X207049619Y-76858666D01*
X207049619Y-77239619D01*
X207002000Y-77334857D01*
X206954380Y-77382476D01*
X206859142Y-77430095D01*
X206716285Y-77430095D01*
X206621047Y-77382476D01*
X206573428Y-77334857D01*
X206525809Y-77239619D01*
X206525809Y-76858666D01*
%TO.C,D6*%
X224051904Y-96044380D02*
X224051904Y-95044380D01*
X224290000Y-95044380D01*
X224432857Y-95092000D01*
X224528095Y-95187238D01*
X224575714Y-95282476D01*
X224623333Y-95472952D01*
X224623333Y-95615809D01*
X224575714Y-95806285D01*
X224528095Y-95901523D01*
X224432857Y-95996761D01*
X224290000Y-96044380D01*
X224051904Y-96044380D01*
X225480476Y-95044380D02*
X225290000Y-95044380D01*
X225194761Y-95092000D01*
X225147142Y-95139619D01*
X225051904Y-95282476D01*
X225004285Y-95472952D01*
X225004285Y-95853904D01*
X225051904Y-95949142D01*
X225099523Y-95996761D01*
X225194761Y-96044380D01*
X225385238Y-96044380D01*
X225480476Y-95996761D01*
X225528095Y-95949142D01*
X225575714Y-95853904D01*
X225575714Y-95615809D01*
X225528095Y-95520571D01*
X225480476Y-95472952D01*
X225385238Y-95425333D01*
X225194761Y-95425333D01*
X225099523Y-95472952D01*
X225051904Y-95520571D01*
X225004285Y-95615809D01*
%TO.C,R22*%
X224909142Y-94940380D02*
X224575809Y-94464190D01*
X224337714Y-94940380D02*
X224337714Y-93940380D01*
X224718666Y-93940380D01*
X224813904Y-93988000D01*
X224861523Y-94035619D01*
X224909142Y-94130857D01*
X224909142Y-94273714D01*
X224861523Y-94368952D01*
X224813904Y-94416571D01*
X224718666Y-94464190D01*
X224337714Y-94464190D01*
X225290095Y-94035619D02*
X225337714Y-93988000D01*
X225432952Y-93940380D01*
X225671047Y-93940380D01*
X225766285Y-93988000D01*
X225813904Y-94035619D01*
X225861523Y-94130857D01*
X225861523Y-94226095D01*
X225813904Y-94368952D01*
X225242476Y-94940380D01*
X225861523Y-94940380D01*
X226242476Y-94035619D02*
X226290095Y-93988000D01*
X226385333Y-93940380D01*
X226623428Y-93940380D01*
X226718666Y-93988000D01*
X226766285Y-94035619D01*
X226813904Y-94130857D01*
X226813904Y-94226095D01*
X226766285Y-94368952D01*
X226194857Y-94940380D01*
X226813904Y-94940380D01*
X229211333Y-96464380D02*
X228639904Y-96464380D01*
X228925619Y-96464380D02*
X228925619Y-95464380D01*
X228830380Y-95607238D01*
X228735142Y-95702476D01*
X228639904Y-95750095D01*
X229830380Y-95464380D02*
X229925619Y-95464380D01*
X230020857Y-95512000D01*
X230068476Y-95559619D01*
X230116095Y-95654857D01*
X230163714Y-95845333D01*
X230163714Y-96083428D01*
X230116095Y-96273904D01*
X230068476Y-96369142D01*
X230020857Y-96416761D01*
X229925619Y-96464380D01*
X229830380Y-96464380D01*
X229735142Y-96416761D01*
X229687523Y-96369142D01*
X229639904Y-96273904D01*
X229592285Y-96083428D01*
X229592285Y-95845333D01*
X229639904Y-95654857D01*
X229687523Y-95559619D01*
X229735142Y-95512000D01*
X229830380Y-95464380D01*
X230782761Y-95464380D02*
X230878000Y-95464380D01*
X230973238Y-95512000D01*
X231020857Y-95559619D01*
X231068476Y-95654857D01*
X231116095Y-95845333D01*
X231116095Y-96083428D01*
X231068476Y-96273904D01*
X231020857Y-96369142D01*
X230973238Y-96416761D01*
X230878000Y-96464380D01*
X230782761Y-96464380D01*
X230687523Y-96416761D01*
X230639904Y-96369142D01*
X230592285Y-96273904D01*
X230544666Y-96083428D01*
X230544666Y-95845333D01*
X230592285Y-95654857D01*
X230639904Y-95559619D01*
X230687523Y-95512000D01*
X230782761Y-95464380D01*
X232116095Y-96464380D02*
X231782761Y-95988190D01*
X231544666Y-96464380D02*
X231544666Y-95464380D01*
X231925619Y-95464380D01*
X232020857Y-95512000D01*
X232068476Y-95559619D01*
X232116095Y-95654857D01*
X232116095Y-95797714D01*
X232068476Y-95892952D01*
X232020857Y-95940571D01*
X231925619Y-95988190D01*
X231544666Y-95988190D01*
%TO.C,R19*%
X236847142Y-91130380D02*
X236513809Y-90654190D01*
X236275714Y-91130380D02*
X236275714Y-90130380D01*
X236656666Y-90130380D01*
X236751904Y-90178000D01*
X236799523Y-90225619D01*
X236847142Y-90320857D01*
X236847142Y-90463714D01*
X236799523Y-90558952D01*
X236751904Y-90606571D01*
X236656666Y-90654190D01*
X236275714Y-90654190D01*
X237799523Y-91130380D02*
X237228095Y-91130380D01*
X237513809Y-91130380D02*
X237513809Y-90130380D01*
X237418571Y-90273238D01*
X237323333Y-90368476D01*
X237228095Y-90416095D01*
X238275714Y-91130380D02*
X238466190Y-91130380D01*
X238561428Y-91082761D01*
X238609047Y-91035142D01*
X238704285Y-90892285D01*
X238751904Y-90701809D01*
X238751904Y-90320857D01*
X238704285Y-90225619D01*
X238656666Y-90178000D01*
X238561428Y-90130380D01*
X238370952Y-90130380D01*
X238275714Y-90178000D01*
X238228095Y-90225619D01*
X238180476Y-90320857D01*
X238180476Y-90558952D01*
X238228095Y-90654190D01*
X238275714Y-90701809D01*
X238370952Y-90749428D01*
X238561428Y-90749428D01*
X238656666Y-90701809D01*
X238704285Y-90654190D01*
X238751904Y-90558952D01*
X241387428Y-91987714D02*
X241387428Y-92654380D01*
X241149333Y-91606761D02*
X240911238Y-92321047D01*
X241530285Y-92321047D01*
X241911238Y-92559142D02*
X241958857Y-92606761D01*
X241911238Y-92654380D01*
X241863619Y-92606761D01*
X241911238Y-92559142D01*
X241911238Y-92654380D01*
X242292190Y-91654380D02*
X242958857Y-91654380D01*
X242530285Y-92654380D01*
X243339809Y-92654380D02*
X243339809Y-91654380D01*
X243435047Y-92273428D02*
X243720761Y-92654380D01*
X243720761Y-91987714D02*
X243339809Y-92368666D01*
%TO.C,R9*%
X237323333Y-66746380D02*
X236990000Y-66270190D01*
X236751904Y-66746380D02*
X236751904Y-65746380D01*
X237132857Y-65746380D01*
X237228095Y-65794000D01*
X237275714Y-65841619D01*
X237323333Y-65936857D01*
X237323333Y-66079714D01*
X237275714Y-66174952D01*
X237228095Y-66222571D01*
X237132857Y-66270190D01*
X236751904Y-66270190D01*
X237799523Y-66746380D02*
X237990000Y-66746380D01*
X238085238Y-66698761D01*
X238132857Y-66651142D01*
X238228095Y-66508285D01*
X238275714Y-66317809D01*
X238275714Y-65936857D01*
X238228095Y-65841619D01*
X238180476Y-65794000D01*
X238085238Y-65746380D01*
X237894761Y-65746380D01*
X237799523Y-65794000D01*
X237751904Y-65841619D01*
X237704285Y-65936857D01*
X237704285Y-66174952D01*
X237751904Y-66270190D01*
X237799523Y-66317809D01*
X237894761Y-66365428D01*
X238085238Y-66365428D01*
X238180476Y-66317809D01*
X238228095Y-66270190D01*
X238275714Y-66174952D01*
X240577904Y-67365619D02*
X240625523Y-67318000D01*
X240720761Y-67270380D01*
X240958857Y-67270380D01*
X241054095Y-67318000D01*
X241101714Y-67365619D01*
X241149333Y-67460857D01*
X241149333Y-67556095D01*
X241101714Y-67698952D01*
X240530285Y-68270380D01*
X241149333Y-68270380D01*
X241530285Y-67365619D02*
X241577904Y-67318000D01*
X241673142Y-67270380D01*
X241911238Y-67270380D01*
X242006476Y-67318000D01*
X242054095Y-67365619D01*
X242101714Y-67460857D01*
X242101714Y-67556095D01*
X242054095Y-67698952D01*
X241482666Y-68270380D01*
X242101714Y-68270380D01*
X242720761Y-67270380D02*
X242816000Y-67270380D01*
X242911238Y-67318000D01*
X242958857Y-67365619D01*
X243006476Y-67460857D01*
X243054095Y-67651333D01*
X243054095Y-67889428D01*
X243006476Y-68079904D01*
X242958857Y-68175142D01*
X242911238Y-68222761D01*
X242816000Y-68270380D01*
X242720761Y-68270380D01*
X242625523Y-68222761D01*
X242577904Y-68175142D01*
X242530285Y-68079904D01*
X242482666Y-67889428D01*
X242482666Y-67651333D01*
X242530285Y-67460857D01*
X242577904Y-67365619D01*
X242625523Y-67318000D01*
X242720761Y-67270380D01*
X244054095Y-68270380D02*
X243720761Y-67794190D01*
X243482666Y-68270380D02*
X243482666Y-67270380D01*
X243863619Y-67270380D01*
X243958857Y-67318000D01*
X244006476Y-67365619D01*
X244054095Y-67460857D01*
X244054095Y-67603714D01*
X244006476Y-67698952D01*
X243958857Y-67746571D01*
X243863619Y-67794190D01*
X243482666Y-67794190D01*
%TO.C,D3*%
X207677380Y-105132095D02*
X206677380Y-105132095D01*
X206677380Y-104894000D01*
X206725000Y-104751142D01*
X206820238Y-104655904D01*
X206915476Y-104608285D01*
X207105952Y-104560666D01*
X207248809Y-104560666D01*
X207439285Y-104608285D01*
X207534523Y-104655904D01*
X207629761Y-104751142D01*
X207677380Y-104894000D01*
X207677380Y-105132095D01*
X206677380Y-104227333D02*
X206677380Y-103608285D01*
X207058333Y-103941619D01*
X207058333Y-103798761D01*
X207105952Y-103703523D01*
X207153571Y-103655904D01*
X207248809Y-103608285D01*
X207486904Y-103608285D01*
X207582142Y-103655904D01*
X207629761Y-103703523D01*
X207677380Y-103798761D01*
X207677380Y-104084476D01*
X207629761Y-104179714D01*
X207582142Y-104227333D01*
%TO.C,R5*%
X211018380Y-94400666D02*
X210542190Y-94734000D01*
X211018380Y-94972095D02*
X210018380Y-94972095D01*
X210018380Y-94591142D01*
X210066000Y-94495904D01*
X210113619Y-94448285D01*
X210208857Y-94400666D01*
X210351714Y-94400666D01*
X210446952Y-94448285D01*
X210494571Y-94495904D01*
X210542190Y-94591142D01*
X210542190Y-94972095D01*
X210018380Y-93495904D02*
X210018380Y-93972095D01*
X210494571Y-94019714D01*
X210446952Y-93972095D01*
X210399333Y-93876857D01*
X210399333Y-93638761D01*
X210446952Y-93543523D01*
X210494571Y-93495904D01*
X210589809Y-93448285D01*
X210827904Y-93448285D01*
X210923142Y-93495904D01*
X210970761Y-93543523D01*
X211018380Y-93638761D01*
X211018380Y-93876857D01*
X210970761Y-93972095D01*
X210923142Y-94019714D01*
X212542380Y-90003238D02*
X212542380Y-90574666D01*
X212542380Y-90288952D02*
X211542380Y-90288952D01*
X211685238Y-90384190D01*
X211780476Y-90479428D01*
X211828095Y-90574666D01*
X211542380Y-89384190D02*
X211542380Y-89288952D01*
X211590000Y-89193714D01*
X211637619Y-89146095D01*
X211732857Y-89098476D01*
X211923333Y-89050857D01*
X212161428Y-89050857D01*
X212351904Y-89098476D01*
X212447142Y-89146095D01*
X212494761Y-89193714D01*
X212542380Y-89288952D01*
X212542380Y-89384190D01*
X212494761Y-89479428D01*
X212447142Y-89527047D01*
X212351904Y-89574666D01*
X212161428Y-89622285D01*
X211923333Y-89622285D01*
X211732857Y-89574666D01*
X211637619Y-89527047D01*
X211590000Y-89479428D01*
X211542380Y-89384190D01*
X212542380Y-88622285D02*
X211542380Y-88622285D01*
X212161428Y-88527047D02*
X212542380Y-88241333D01*
X211875714Y-88241333D02*
X212256666Y-88622285D01*
%TO.C,R10*%
X223385142Y-71064380D02*
X223051809Y-70588190D01*
X222813714Y-71064380D02*
X222813714Y-70064380D01*
X223194666Y-70064380D01*
X223289904Y-70112000D01*
X223337523Y-70159619D01*
X223385142Y-70254857D01*
X223385142Y-70397714D01*
X223337523Y-70492952D01*
X223289904Y-70540571D01*
X223194666Y-70588190D01*
X222813714Y-70588190D01*
X224337523Y-71064380D02*
X223766095Y-71064380D01*
X224051809Y-71064380D02*
X224051809Y-70064380D01*
X223956571Y-70207238D01*
X223861333Y-70302476D01*
X223766095Y-70350095D01*
X224956571Y-70064380D02*
X225051809Y-70064380D01*
X225147047Y-70112000D01*
X225194666Y-70159619D01*
X225242285Y-70254857D01*
X225289904Y-70445333D01*
X225289904Y-70683428D01*
X225242285Y-70873904D01*
X225194666Y-70969142D01*
X225147047Y-71016761D01*
X225051809Y-71064380D01*
X224956571Y-71064380D01*
X224861333Y-71016761D01*
X224813714Y-70969142D01*
X224766095Y-70873904D01*
X224718476Y-70683428D01*
X224718476Y-70445333D01*
X224766095Y-70254857D01*
X224813714Y-70159619D01*
X224861333Y-70112000D01*
X224956571Y-70064380D01*
X220273428Y-68635619D02*
X220844857Y-68635619D01*
X220559142Y-68635619D02*
X220559142Y-69635619D01*
X220654380Y-69492761D01*
X220749619Y-69397523D01*
X220844857Y-69349904D01*
X219654380Y-69635619D02*
X219559142Y-69635619D01*
X219463904Y-69588000D01*
X219416285Y-69540380D01*
X219368666Y-69445142D01*
X219321047Y-69254666D01*
X219321047Y-69016571D01*
X219368666Y-68826095D01*
X219416285Y-68730857D01*
X219463904Y-68683238D01*
X219559142Y-68635619D01*
X219654380Y-68635619D01*
X219749619Y-68683238D01*
X219797238Y-68730857D01*
X219844857Y-68826095D01*
X219892476Y-69016571D01*
X219892476Y-69254666D01*
X219844857Y-69445142D01*
X219797238Y-69540380D01*
X219749619Y-69588000D01*
X219654380Y-69635619D01*
X218702000Y-69635619D02*
X218606761Y-69635619D01*
X218511523Y-69588000D01*
X218463904Y-69540380D01*
X218416285Y-69445142D01*
X218368666Y-69254666D01*
X218368666Y-69016571D01*
X218416285Y-68826095D01*
X218463904Y-68730857D01*
X218511523Y-68683238D01*
X218606761Y-68635619D01*
X218702000Y-68635619D01*
X218797238Y-68683238D01*
X218844857Y-68730857D01*
X218892476Y-68826095D01*
X218940095Y-69016571D01*
X218940095Y-69254666D01*
X218892476Y-69445142D01*
X218844857Y-69540380D01*
X218797238Y-69588000D01*
X218702000Y-69635619D01*
X217940095Y-68635619D02*
X217940095Y-69635619D01*
X217844857Y-69016571D02*
X217559142Y-68635619D01*
X217559142Y-69302285D02*
X217940095Y-68921333D01*
%TO.C,R2*%
X222083333Y-107640380D02*
X221750000Y-107164190D01*
X221511904Y-107640380D02*
X221511904Y-106640380D01*
X221892857Y-106640380D01*
X221988095Y-106688000D01*
X222035714Y-106735619D01*
X222083333Y-106830857D01*
X222083333Y-106973714D01*
X222035714Y-107068952D01*
X221988095Y-107116571D01*
X221892857Y-107164190D01*
X221511904Y-107164190D01*
X222464285Y-106735619D02*
X222511904Y-106688000D01*
X222607142Y-106640380D01*
X222845238Y-106640380D01*
X222940476Y-106688000D01*
X222988095Y-106735619D01*
X223035714Y-106830857D01*
X223035714Y-106926095D01*
X222988095Y-107068952D01*
X222416666Y-107640380D01*
X223035714Y-107640380D01*
X218185904Y-105211619D02*
X218757333Y-105211619D01*
X218471619Y-105211619D02*
X218471619Y-106211619D01*
X218566857Y-106068761D01*
X218662095Y-105973523D01*
X218757333Y-105925904D01*
X217757333Y-105211619D02*
X217757333Y-106211619D01*
X217424000Y-105497333D01*
X217090666Y-106211619D01*
X217090666Y-105211619D01*
X216424000Y-106211619D02*
X216328761Y-106211619D01*
X216233523Y-106164000D01*
X216185904Y-106116380D01*
X216138285Y-106021142D01*
X216090666Y-105830666D01*
X216090666Y-105592571D01*
X216138285Y-105402095D01*
X216185904Y-105306857D01*
X216233523Y-105259238D01*
X216328761Y-105211619D01*
X216424000Y-105211619D01*
X216519238Y-105259238D01*
X216566857Y-105306857D01*
X216614476Y-105402095D01*
X216662095Y-105592571D01*
X216662095Y-105830666D01*
X216614476Y-106021142D01*
X216566857Y-106116380D01*
X216519238Y-106164000D01*
X216424000Y-106211619D01*
%TO.C,R21*%
X224909142Y-98242380D02*
X224575809Y-97766190D01*
X224337714Y-98242380D02*
X224337714Y-97242380D01*
X224718666Y-97242380D01*
X224813904Y-97290000D01*
X224861523Y-97337619D01*
X224909142Y-97432857D01*
X224909142Y-97575714D01*
X224861523Y-97670952D01*
X224813904Y-97718571D01*
X224718666Y-97766190D01*
X224337714Y-97766190D01*
X225290095Y-97337619D02*
X225337714Y-97290000D01*
X225432952Y-97242380D01*
X225671047Y-97242380D01*
X225766285Y-97290000D01*
X225813904Y-97337619D01*
X225861523Y-97432857D01*
X225861523Y-97528095D01*
X225813904Y-97670952D01*
X225242476Y-98242380D01*
X225861523Y-98242380D01*
X226813904Y-98242380D02*
X226242476Y-98242380D01*
X226528190Y-98242380D02*
X226528190Y-97242380D01*
X226432952Y-97385238D01*
X226337714Y-97480476D01*
X226242476Y-97528095D01*
X229306571Y-99766380D02*
X228735142Y-99766380D01*
X229020857Y-99766380D02*
X229020857Y-98766380D01*
X228925619Y-98909238D01*
X228830380Y-99004476D01*
X228735142Y-99052095D01*
X229925619Y-98766380D02*
X230020857Y-98766380D01*
X230116095Y-98814000D01*
X230163714Y-98861619D01*
X230211333Y-98956857D01*
X230258952Y-99147333D01*
X230258952Y-99385428D01*
X230211333Y-99575904D01*
X230163714Y-99671142D01*
X230116095Y-99718761D01*
X230020857Y-99766380D01*
X229925619Y-99766380D01*
X229830380Y-99718761D01*
X229782761Y-99671142D01*
X229735142Y-99575904D01*
X229687523Y-99385428D01*
X229687523Y-99147333D01*
X229735142Y-98956857D01*
X229782761Y-98861619D01*
X229830380Y-98814000D01*
X229925619Y-98766380D01*
X230878000Y-98766380D02*
X230973238Y-98766380D01*
X231068476Y-98814000D01*
X231116095Y-98861619D01*
X231163714Y-98956857D01*
X231211333Y-99147333D01*
X231211333Y-99385428D01*
X231163714Y-99575904D01*
X231116095Y-99671142D01*
X231068476Y-99718761D01*
X230973238Y-99766380D01*
X230878000Y-99766380D01*
X230782761Y-99718761D01*
X230735142Y-99671142D01*
X230687523Y-99575904D01*
X230639904Y-99385428D01*
X230639904Y-99147333D01*
X230687523Y-98956857D01*
X230735142Y-98861619D01*
X230782761Y-98814000D01*
X230878000Y-98766380D01*
X231639904Y-99766380D02*
X231639904Y-98766380D01*
X231735142Y-99385428D02*
X232020857Y-99766380D01*
X232020857Y-99099714D02*
X231639904Y-99480666D01*
%TO.C,C4*%
X238041142Y-89808666D02*
X238088761Y-89856285D01*
X238136380Y-89999142D01*
X238136380Y-90094380D01*
X238088761Y-90237238D01*
X237993523Y-90332476D01*
X237898285Y-90380095D01*
X237707809Y-90427714D01*
X237564952Y-90427714D01*
X237374476Y-90380095D01*
X237279238Y-90332476D01*
X237184000Y-90237238D01*
X237136380Y-90094380D01*
X237136380Y-89999142D01*
X237184000Y-89856285D01*
X237231619Y-89808666D01*
X237469714Y-88951523D02*
X238136380Y-88951523D01*
X237088761Y-89189619D02*
X237803047Y-89427714D01*
X237803047Y-88808666D01*
%TO.C,R18*%
X225242380Y-77096857D02*
X224766190Y-77430190D01*
X225242380Y-77668285D02*
X224242380Y-77668285D01*
X224242380Y-77287333D01*
X224290000Y-77192095D01*
X224337619Y-77144476D01*
X224432857Y-77096857D01*
X224575714Y-77096857D01*
X224670952Y-77144476D01*
X224718571Y-77192095D01*
X224766190Y-77287333D01*
X224766190Y-77668285D01*
X225242380Y-76144476D02*
X225242380Y-76715904D01*
X225242380Y-76430190D02*
X224242380Y-76430190D01*
X224385238Y-76525428D01*
X224480476Y-76620666D01*
X224528095Y-76715904D01*
X224670952Y-75573047D02*
X224623333Y-75668285D01*
X224575714Y-75715904D01*
X224480476Y-75763523D01*
X224432857Y-75763523D01*
X224337619Y-75715904D01*
X224290000Y-75668285D01*
X224242380Y-75573047D01*
X224242380Y-75382571D01*
X224290000Y-75287333D01*
X224337619Y-75239714D01*
X224432857Y-75192095D01*
X224480476Y-75192095D01*
X224575714Y-75239714D01*
X224623333Y-75287333D01*
X224670952Y-75382571D01*
X224670952Y-75573047D01*
X224718571Y-75668285D01*
X224766190Y-75715904D01*
X224861428Y-75763523D01*
X225051904Y-75763523D01*
X225147142Y-75715904D01*
X225194761Y-75668285D01*
X225242380Y-75573047D01*
X225242380Y-75382571D01*
X225194761Y-75287333D01*
X225147142Y-75239714D01*
X225051904Y-75192095D01*
X224861428Y-75192095D01*
X224766190Y-75239714D01*
X224718571Y-75287333D01*
X224670952Y-75382571D01*
X226766380Y-71913714D02*
X226766380Y-72485142D01*
X226766380Y-72199428D02*
X225766380Y-72199428D01*
X225909238Y-72294666D01*
X226004476Y-72389904D01*
X226052095Y-72485142D01*
X226766380Y-71485142D02*
X225766380Y-71485142D01*
X226480666Y-71151809D01*
X225766380Y-70818476D01*
X226766380Y-70818476D01*
%TO.C,D4*%
X210676380Y-72112095D02*
X209676380Y-72112095D01*
X209676380Y-71874000D01*
X209724000Y-71731142D01*
X209819238Y-71635904D01*
X209914476Y-71588285D01*
X210104952Y-71540666D01*
X210247809Y-71540666D01*
X210438285Y-71588285D01*
X210533523Y-71635904D01*
X210628761Y-71731142D01*
X210676380Y-71874000D01*
X210676380Y-72112095D01*
X210009714Y-70683523D02*
X210676380Y-70683523D01*
X209628761Y-70921619D02*
X210343047Y-71159714D01*
X210343047Y-70540666D01*
X210996380Y-75445904D02*
X209996380Y-75445904D01*
X210996380Y-74874476D02*
X210424952Y-75303047D01*
X209996380Y-74874476D02*
X210567809Y-75445904D01*
%TO.C,R11*%
X228290380Y-96654857D02*
X227814190Y-96988190D01*
X228290380Y-97226285D02*
X227290380Y-97226285D01*
X227290380Y-96845333D01*
X227338000Y-96750095D01*
X227385619Y-96702476D01*
X227480857Y-96654857D01*
X227623714Y-96654857D01*
X227718952Y-96702476D01*
X227766571Y-96750095D01*
X227814190Y-96845333D01*
X227814190Y-97226285D01*
X228290380Y-95702476D02*
X228290380Y-96273904D01*
X228290380Y-95988190D02*
X227290380Y-95988190D01*
X227433238Y-96083428D01*
X227528476Y-96178666D01*
X227576095Y-96273904D01*
X228290380Y-94750095D02*
X228290380Y-95321523D01*
X228290380Y-95035809D02*
X227290380Y-95035809D01*
X227433238Y-95131047D01*
X227528476Y-95226285D01*
X227576095Y-95321523D01*
X229814380Y-90479428D02*
X229814380Y-91050857D01*
X229814380Y-90765142D02*
X228814380Y-90765142D01*
X228957238Y-90860380D01*
X229052476Y-90955619D01*
X229100095Y-91050857D01*
X228814380Y-89860380D02*
X228814380Y-89765142D01*
X228862000Y-89669904D01*
X228909619Y-89622285D01*
X229004857Y-89574666D01*
X229195333Y-89527047D01*
X229433428Y-89527047D01*
X229623904Y-89574666D01*
X229719142Y-89622285D01*
X229766761Y-89669904D01*
X229814380Y-89765142D01*
X229814380Y-89860380D01*
X229766761Y-89955619D01*
X229719142Y-90003238D01*
X229623904Y-90050857D01*
X229433428Y-90098476D01*
X229195333Y-90098476D01*
X229004857Y-90050857D01*
X228909619Y-90003238D01*
X228862000Y-89955619D01*
X228814380Y-89860380D01*
X228814380Y-88908000D02*
X228814380Y-88812761D01*
X228862000Y-88717523D01*
X228909619Y-88669904D01*
X229004857Y-88622285D01*
X229195333Y-88574666D01*
X229433428Y-88574666D01*
X229623904Y-88622285D01*
X229719142Y-88669904D01*
X229766761Y-88717523D01*
X229814380Y-88812761D01*
X229814380Y-88908000D01*
X229766761Y-89003238D01*
X229719142Y-89050857D01*
X229623904Y-89098476D01*
X229433428Y-89146095D01*
X229195333Y-89146095D01*
X229004857Y-89098476D01*
X228909619Y-89050857D01*
X228862000Y-89003238D01*
X228814380Y-88908000D01*
X229814380Y-88146095D02*
X228814380Y-88146095D01*
X229433428Y-88050857D02*
X229814380Y-87765142D01*
X229147714Y-87765142D02*
X229528666Y-88146095D01*
%TO.C,C5*%
X212137333Y-61611142D02*
X212089714Y-61658761D01*
X211946857Y-61706380D01*
X211851619Y-61706380D01*
X211708761Y-61658761D01*
X211613523Y-61563523D01*
X211565904Y-61468285D01*
X211518285Y-61277809D01*
X211518285Y-61134952D01*
X211565904Y-60944476D01*
X211613523Y-60849238D01*
X211708761Y-60754000D01*
X211851619Y-60706380D01*
X211946857Y-60706380D01*
X212089714Y-60754000D01*
X212137333Y-60801619D01*
X213042095Y-60706380D02*
X212565904Y-60706380D01*
X212518285Y-61182571D01*
X212565904Y-61134952D01*
X212661142Y-61087333D01*
X212899238Y-61087333D01*
X212994476Y-61134952D01*
X213042095Y-61182571D01*
X213089714Y-61277809D01*
X213089714Y-61515904D01*
X213042095Y-61611142D01*
X212994476Y-61658761D01*
X212899238Y-61706380D01*
X212661142Y-61706380D01*
X212565904Y-61658761D01*
X212518285Y-61611142D01*
%TO.C,D2*%
X209025380Y-105132095D02*
X208025380Y-105132095D01*
X208025380Y-104894000D01*
X208073000Y-104751142D01*
X208168238Y-104655904D01*
X208263476Y-104608285D01*
X208453952Y-104560666D01*
X208596809Y-104560666D01*
X208787285Y-104608285D01*
X208882523Y-104655904D01*
X208977761Y-104751142D01*
X209025380Y-104894000D01*
X209025380Y-105132095D01*
X208120619Y-104179714D02*
X208073000Y-104132095D01*
X208025380Y-104036857D01*
X208025380Y-103798761D01*
X208073000Y-103703523D01*
X208120619Y-103655904D01*
X208215857Y-103608285D01*
X208311095Y-103608285D01*
X208453952Y-103655904D01*
X209025380Y-104227333D01*
X209025380Y-103608285D01*
%TO.C,C3*%
X208597142Y-89340666D02*
X208644761Y-89388285D01*
X208692380Y-89531142D01*
X208692380Y-89626380D01*
X208644761Y-89769238D01*
X208549523Y-89864476D01*
X208454285Y-89912095D01*
X208263809Y-89959714D01*
X208120952Y-89959714D01*
X207930476Y-89912095D01*
X207835238Y-89864476D01*
X207740000Y-89769238D01*
X207692380Y-89626380D01*
X207692380Y-89531142D01*
X207740000Y-89388285D01*
X207787619Y-89340666D01*
X207692380Y-89007333D02*
X207692380Y-88388285D01*
X208073333Y-88721619D01*
X208073333Y-88578761D01*
X208120952Y-88483523D01*
X208168571Y-88435904D01*
X208263809Y-88388285D01*
X208501904Y-88388285D01*
X208597142Y-88435904D01*
X208644761Y-88483523D01*
X208692380Y-88578761D01*
X208692380Y-88864476D01*
X208644761Y-88959714D01*
X208597142Y-89007333D01*
%TO.C,R7*%
X208478380Y-60872666D02*
X208002190Y-61206000D01*
X208478380Y-61444095D02*
X207478380Y-61444095D01*
X207478380Y-61063142D01*
X207526000Y-60967904D01*
X207573619Y-60920285D01*
X207668857Y-60872666D01*
X207811714Y-60872666D01*
X207906952Y-60920285D01*
X207954571Y-60967904D01*
X208002190Y-61063142D01*
X208002190Y-61444095D01*
X207478380Y-60539333D02*
X207478380Y-59872666D01*
X208478380Y-60301238D01*
X206049619Y-64460571D02*
X206049619Y-63889142D01*
X206049619Y-64174857D02*
X207049619Y-64174857D01*
X206906761Y-64079619D01*
X206811523Y-63984380D01*
X206763904Y-63889142D01*
X207049619Y-65079619D02*
X207049619Y-65174857D01*
X207002000Y-65270095D01*
X206954380Y-65317714D01*
X206859142Y-65365333D01*
X206668666Y-65412952D01*
X206430571Y-65412952D01*
X206240095Y-65365333D01*
X206144857Y-65317714D01*
X206097238Y-65270095D01*
X206049619Y-65174857D01*
X206049619Y-65079619D01*
X206097238Y-64984380D01*
X206144857Y-64936761D01*
X206240095Y-64889142D01*
X206430571Y-64841523D01*
X206668666Y-64841523D01*
X206859142Y-64889142D01*
X206954380Y-64936761D01*
X207002000Y-64984380D01*
X207049619Y-65079619D01*
X207049619Y-66032000D02*
X207049619Y-66127238D01*
X207002000Y-66222476D01*
X206954380Y-66270095D01*
X206859142Y-66317714D01*
X206668666Y-66365333D01*
X206430571Y-66365333D01*
X206240095Y-66317714D01*
X206144857Y-66270095D01*
X206097238Y-66222476D01*
X206049619Y-66127238D01*
X206049619Y-66032000D01*
X206097238Y-65936761D01*
X206144857Y-65889142D01*
X206240095Y-65841523D01*
X206430571Y-65793904D01*
X206668666Y-65793904D01*
X206859142Y-65841523D01*
X206954380Y-65889142D01*
X207002000Y-65936761D01*
X207049619Y-66032000D01*
X206049619Y-66793904D02*
X207049619Y-66793904D01*
X206430571Y-66889142D02*
X206049619Y-67174857D01*
X206716285Y-67174857D02*
X206335333Y-66793904D01*
%TO.C,RV2*%
X201842761Y-95746380D02*
X201509428Y-95270190D01*
X201271333Y-95746380D02*
X201271333Y-94746380D01*
X201652285Y-94746380D01*
X201747523Y-94794000D01*
X201795142Y-94841619D01*
X201842761Y-94936857D01*
X201842761Y-95079714D01*
X201795142Y-95174952D01*
X201747523Y-95222571D01*
X201652285Y-95270190D01*
X201271333Y-95270190D01*
X202128476Y-94746380D02*
X202461809Y-95746380D01*
X202795142Y-94746380D01*
X203080857Y-94841619D02*
X203128476Y-94794000D01*
X203223714Y-94746380D01*
X203461809Y-94746380D01*
X203557047Y-94794000D01*
X203604666Y-94841619D01*
X203652285Y-94936857D01*
X203652285Y-95032095D01*
X203604666Y-95174952D01*
X203033238Y-95746380D01*
X203652285Y-95746380D01*
%TO.C,U2*%
X218440095Y-89920380D02*
X218440095Y-90729904D01*
X218487714Y-90825142D01*
X218535333Y-90872761D01*
X218630571Y-90920380D01*
X218821047Y-90920380D01*
X218916285Y-90872761D01*
X218963904Y-90825142D01*
X219011523Y-90729904D01*
X219011523Y-89920380D01*
X219440095Y-90015619D02*
X219487714Y-89968000D01*
X219582952Y-89920380D01*
X219821047Y-89920380D01*
X219916285Y-89968000D01*
X219963904Y-90015619D01*
X220011523Y-90110857D01*
X220011523Y-90206095D01*
X219963904Y-90348952D01*
X219392476Y-90920380D01*
X220011523Y-90920380D01*
%TO.C,U1*%
X241554095Y-68242380D02*
X241554095Y-69051904D01*
X241601714Y-69147142D01*
X241649333Y-69194761D01*
X241744571Y-69242380D01*
X241935047Y-69242380D01*
X242030285Y-69194761D01*
X242077904Y-69147142D01*
X242125523Y-69051904D01*
X242125523Y-68242380D01*
X243125523Y-69242380D02*
X242554095Y-69242380D01*
X242839809Y-69242380D02*
X242839809Y-68242380D01*
X242744571Y-68385238D01*
X242649333Y-68480476D01*
X242554095Y-68528095D01*
%TO.C,C6*%
X220361142Y-63452666D02*
X220408761Y-63500285D01*
X220456380Y-63643142D01*
X220456380Y-63738380D01*
X220408761Y-63881238D01*
X220313523Y-63976476D01*
X220218285Y-64024095D01*
X220027809Y-64071714D01*
X219884952Y-64071714D01*
X219694476Y-64024095D01*
X219599238Y-63976476D01*
X219504000Y-63881238D01*
X219456380Y-63738380D01*
X219456380Y-63643142D01*
X219504000Y-63500285D01*
X219551619Y-63452666D01*
X219456380Y-62595523D02*
X219456380Y-62786000D01*
X219504000Y-62881238D01*
X219551619Y-62928857D01*
X219694476Y-63024095D01*
X219884952Y-63071714D01*
X220265904Y-63071714D01*
X220361142Y-63024095D01*
X220408761Y-62976476D01*
X220456380Y-62881238D01*
X220456380Y-62690761D01*
X220408761Y-62595523D01*
X220361142Y-62547904D01*
X220265904Y-62500285D01*
X220027809Y-62500285D01*
X219932571Y-62547904D01*
X219884952Y-62595523D01*
X219837333Y-62690761D01*
X219837333Y-62881238D01*
X219884952Y-62976476D01*
X219932571Y-63024095D01*
X220027809Y-63071714D01*
%TO.C,D5*%
X212122380Y-72112095D02*
X211122380Y-72112095D01*
X211122380Y-71874000D01*
X211170000Y-71731142D01*
X211265238Y-71635904D01*
X211360476Y-71588285D01*
X211550952Y-71540666D01*
X211693809Y-71540666D01*
X211884285Y-71588285D01*
X211979523Y-71635904D01*
X212074761Y-71731142D01*
X212122380Y-71874000D01*
X212122380Y-72112095D01*
X211122380Y-70635904D02*
X211122380Y-71112095D01*
X211598571Y-71159714D01*
X211550952Y-71112095D01*
X211503333Y-71016857D01*
X211503333Y-70778761D01*
X211550952Y-70683523D01*
X211598571Y-70635904D01*
X211693809Y-70588285D01*
X211931904Y-70588285D01*
X212027142Y-70635904D01*
X212074761Y-70683523D01*
X212122380Y-70778761D01*
X212122380Y-71016857D01*
X212074761Y-71112095D01*
X212027142Y-71159714D01*
X211802380Y-67825904D02*
X210802380Y-67825904D01*
X211802380Y-67254476D02*
X211230952Y-67683047D01*
X210802380Y-67254476D02*
X211373809Y-67825904D01*
%TO.C,R4*%
X214971333Y-98496380D02*
X214638000Y-98020190D01*
X214399904Y-98496380D02*
X214399904Y-97496380D01*
X214780857Y-97496380D01*
X214876095Y-97544000D01*
X214923714Y-97591619D01*
X214971333Y-97686857D01*
X214971333Y-97829714D01*
X214923714Y-97924952D01*
X214876095Y-97972571D01*
X214780857Y-98020190D01*
X214399904Y-98020190D01*
X215828476Y-97829714D02*
X215828476Y-98496380D01*
X215590380Y-97448761D02*
X215352285Y-98163047D01*
X215971333Y-98163047D01*
X211954857Y-96972380D02*
X211907238Y-97020000D01*
X211812000Y-97067619D01*
X211573904Y-97067619D01*
X211478666Y-97020000D01*
X211431047Y-96972380D01*
X211383428Y-96877142D01*
X211383428Y-96781904D01*
X211431047Y-96639047D01*
X212002476Y-96067619D01*
X211383428Y-96067619D01*
X211002476Y-96972380D02*
X210954857Y-97020000D01*
X210859619Y-97067619D01*
X210621523Y-97067619D01*
X210526285Y-97020000D01*
X210478666Y-96972380D01*
X210431047Y-96877142D01*
X210431047Y-96781904D01*
X210478666Y-96639047D01*
X211050095Y-96067619D01*
X210431047Y-96067619D01*
X209812000Y-97067619D02*
X209716761Y-97067619D01*
X209621523Y-97020000D01*
X209573904Y-96972380D01*
X209526285Y-96877142D01*
X209478666Y-96686666D01*
X209478666Y-96448571D01*
X209526285Y-96258095D01*
X209573904Y-96162857D01*
X209621523Y-96115238D01*
X209716761Y-96067619D01*
X209812000Y-96067619D01*
X209907238Y-96115238D01*
X209954857Y-96162857D01*
X210002476Y-96258095D01*
X210050095Y-96448571D01*
X210050095Y-96686666D01*
X210002476Y-96877142D01*
X209954857Y-96972380D01*
X209907238Y-97020000D01*
X209812000Y-97067619D01*
X209050095Y-96067619D02*
X209050095Y-97067619D01*
X208954857Y-96448571D02*
X208669142Y-96067619D01*
X208669142Y-96734285D02*
X209050095Y-96353333D01*
D11*
%TO.C,C1*%
X252052000Y-104775000D02*
G75*
G03*
X252052000Y-104775000I-4120000J0D01*
G01*
X247932000Y-100695000D02*
X247932000Y-108855000D01*
X247972000Y-100695000D02*
X247972000Y-108855000D01*
X248012000Y-100695000D02*
X248012000Y-108855000D01*
X248052000Y-100696000D02*
X248052000Y-108854000D01*
X248092000Y-100698000D02*
X248092000Y-108852000D01*
X248132000Y-100699000D02*
X248132000Y-108851000D01*
X248172000Y-100701000D02*
X248172000Y-108849000D01*
X248212000Y-100704000D02*
X248212000Y-108846000D01*
X248252000Y-100707000D02*
X248252000Y-108843000D01*
X248292000Y-100710000D02*
X248292000Y-108840000D01*
X248332000Y-100714000D02*
X248332000Y-108836000D01*
X248372000Y-100718000D02*
X248372000Y-108832000D01*
X248412000Y-100723000D02*
X248412000Y-108827000D01*
X248452000Y-100727000D02*
X248452000Y-108823000D01*
X248492000Y-100733000D02*
X248492000Y-108817000D01*
X248532000Y-100738000D02*
X248532000Y-108812000D01*
X248572000Y-100745000D02*
X248572000Y-108805000D01*
X248612000Y-100751000D02*
X248612000Y-108799000D01*
X248653000Y-100758000D02*
X248653000Y-103735000D01*
X248653000Y-105815000D02*
X248653000Y-108792000D01*
X248693000Y-100765000D02*
X248693000Y-103735000D01*
X248693000Y-105815000D02*
X248693000Y-108785000D01*
X248733000Y-100773000D02*
X248733000Y-103735000D01*
X248733000Y-105815000D02*
X248733000Y-108777000D01*
X248773000Y-100781000D02*
X248773000Y-103735000D01*
X248773000Y-105815000D02*
X248773000Y-108769000D01*
X248813000Y-100790000D02*
X248813000Y-103735000D01*
X248813000Y-105815000D02*
X248813000Y-108760000D01*
X248853000Y-100799000D02*
X248853000Y-103735000D01*
X248853000Y-105815000D02*
X248853000Y-108751000D01*
X248893000Y-100808000D02*
X248893000Y-103735000D01*
X248893000Y-105815000D02*
X248893000Y-108742000D01*
X248933000Y-100818000D02*
X248933000Y-103735000D01*
X248933000Y-105815000D02*
X248933000Y-108732000D01*
X248973000Y-100828000D02*
X248973000Y-103735000D01*
X248973000Y-105815000D02*
X248973000Y-108722000D01*
X249013000Y-100839000D02*
X249013000Y-103735000D01*
X249013000Y-105815000D02*
X249013000Y-108711000D01*
X249053000Y-100850000D02*
X249053000Y-103735000D01*
X249053000Y-105815000D02*
X249053000Y-108700000D01*
X249093000Y-100861000D02*
X249093000Y-103735000D01*
X249093000Y-105815000D02*
X249093000Y-108689000D01*
X249133000Y-100873000D02*
X249133000Y-103735000D01*
X249133000Y-105815000D02*
X249133000Y-108677000D01*
X249173000Y-100886000D02*
X249173000Y-103735000D01*
X249173000Y-105815000D02*
X249173000Y-108664000D01*
X249213000Y-100898000D02*
X249213000Y-103735000D01*
X249213000Y-105815000D02*
X249213000Y-108652000D01*
X249253000Y-100912000D02*
X249253000Y-103735000D01*
X249253000Y-105815000D02*
X249253000Y-108638000D01*
X249293000Y-100925000D02*
X249293000Y-103735000D01*
X249293000Y-105815000D02*
X249293000Y-108625000D01*
X249333000Y-100940000D02*
X249333000Y-103735000D01*
X249333000Y-105815000D02*
X249333000Y-108610000D01*
X249373000Y-100954000D02*
X249373000Y-103735000D01*
X249373000Y-105815000D02*
X249373000Y-108596000D01*
X249413000Y-100970000D02*
X249413000Y-103735000D01*
X249413000Y-105815000D02*
X249413000Y-108580000D01*
X249453000Y-100985000D02*
X249453000Y-103735000D01*
X249453000Y-105815000D02*
X249453000Y-108565000D01*
X249493000Y-101001000D02*
X249493000Y-103735000D01*
X249493000Y-105815000D02*
X249493000Y-108549000D01*
X249533000Y-101018000D02*
X249533000Y-103735000D01*
X249533000Y-105815000D02*
X249533000Y-108532000D01*
X249573000Y-101035000D02*
X249573000Y-103735000D01*
X249573000Y-105815000D02*
X249573000Y-108515000D01*
X249613000Y-101053000D02*
X249613000Y-103735000D01*
X249613000Y-105815000D02*
X249613000Y-108497000D01*
X249653000Y-101071000D02*
X249653000Y-103735000D01*
X249653000Y-105815000D02*
X249653000Y-108479000D01*
X249693000Y-101089000D02*
X249693000Y-103735000D01*
X249693000Y-105815000D02*
X249693000Y-108461000D01*
X249733000Y-101109000D02*
X249733000Y-103735000D01*
X249733000Y-105815000D02*
X249733000Y-108441000D01*
X249773000Y-101128000D02*
X249773000Y-103735000D01*
X249773000Y-105815000D02*
X249773000Y-108422000D01*
X249813000Y-101148000D02*
X249813000Y-103735000D01*
X249813000Y-105815000D02*
X249813000Y-108402000D01*
X249853000Y-101169000D02*
X249853000Y-103735000D01*
X249853000Y-105815000D02*
X249853000Y-108381000D01*
X249893000Y-101191000D02*
X249893000Y-103735000D01*
X249893000Y-105815000D02*
X249893000Y-108359000D01*
X249933000Y-101213000D02*
X249933000Y-103735000D01*
X249933000Y-105815000D02*
X249933000Y-108337000D01*
X249973000Y-101235000D02*
X249973000Y-103735000D01*
X249973000Y-105815000D02*
X249973000Y-108315000D01*
X250013000Y-101258000D02*
X250013000Y-103735000D01*
X250013000Y-105815000D02*
X250013000Y-108292000D01*
X250053000Y-101282000D02*
X250053000Y-103735000D01*
X250053000Y-105815000D02*
X250053000Y-108268000D01*
X250093000Y-101306000D02*
X250093000Y-103735000D01*
X250093000Y-105815000D02*
X250093000Y-108244000D01*
X250133000Y-101331000D02*
X250133000Y-103735000D01*
X250133000Y-105815000D02*
X250133000Y-108219000D01*
X250173000Y-101357000D02*
X250173000Y-103735000D01*
X250173000Y-105815000D02*
X250173000Y-108193000D01*
X250213000Y-101383000D02*
X250213000Y-103735000D01*
X250213000Y-105815000D02*
X250213000Y-108167000D01*
X250253000Y-101410000D02*
X250253000Y-103735000D01*
X250253000Y-105815000D02*
X250253000Y-108140000D01*
X250293000Y-101437000D02*
X250293000Y-103735000D01*
X250293000Y-105815000D02*
X250293000Y-108113000D01*
X250333000Y-101466000D02*
X250333000Y-103735000D01*
X250333000Y-105815000D02*
X250333000Y-108084000D01*
X250373000Y-101495000D02*
X250373000Y-103735000D01*
X250373000Y-105815000D02*
X250373000Y-108055000D01*
X250413000Y-101525000D02*
X250413000Y-103735000D01*
X250413000Y-105815000D02*
X250413000Y-108025000D01*
X250453000Y-101555000D02*
X250453000Y-103735000D01*
X250453000Y-105815000D02*
X250453000Y-107995000D01*
X250493000Y-101586000D02*
X250493000Y-103735000D01*
X250493000Y-105815000D02*
X250493000Y-107964000D01*
X250533000Y-101619000D02*
X250533000Y-103735000D01*
X250533000Y-105815000D02*
X250533000Y-107931000D01*
X250573000Y-101651000D02*
X250573000Y-103735000D01*
X250573000Y-105815000D02*
X250573000Y-107899000D01*
X250613000Y-101685000D02*
X250613000Y-103735000D01*
X250613000Y-105815000D02*
X250613000Y-107865000D01*
X250653000Y-101720000D02*
X250653000Y-103735000D01*
X250653000Y-105815000D02*
X250653000Y-107830000D01*
X250693000Y-101756000D02*
X250693000Y-103735000D01*
X250693000Y-105815000D02*
X250693000Y-107794000D01*
X250733000Y-101792000D02*
X250733000Y-107758000D01*
X250773000Y-101830000D02*
X250773000Y-107720000D01*
X250813000Y-101868000D02*
X250813000Y-107682000D01*
X250853000Y-101908000D02*
X250853000Y-107642000D01*
X250893000Y-101949000D02*
X250893000Y-107601000D01*
X250933000Y-101991000D02*
X250933000Y-107559000D01*
X250973000Y-102034000D02*
X250973000Y-107516000D01*
X251013000Y-102078000D02*
X251013000Y-107472000D01*
X251053000Y-102124000D02*
X251053000Y-107426000D01*
X251093000Y-102171000D02*
X251093000Y-107379000D01*
X251133000Y-102219000D02*
X251133000Y-107331000D01*
X251173000Y-102270000D02*
X251173000Y-107280000D01*
X251213000Y-102321000D02*
X251213000Y-107229000D01*
X251253000Y-102375000D02*
X251253000Y-107175000D01*
X251293000Y-102430000D02*
X251293000Y-107120000D01*
X251333000Y-102488000D02*
X251333000Y-107062000D01*
X251373000Y-102547000D02*
X251373000Y-107003000D01*
X251413000Y-102609000D02*
X251413000Y-106941000D01*
X251453000Y-102673000D02*
X251453000Y-106877000D01*
X251493000Y-102741000D02*
X251493000Y-106809000D01*
X251533000Y-102811000D02*
X251533000Y-106739000D01*
X251573000Y-102885000D02*
X251573000Y-106665000D01*
X251613000Y-102962000D02*
X251613000Y-106588000D01*
X251653000Y-103044000D02*
X251653000Y-106506000D01*
X251693000Y-103130000D02*
X251693000Y-106420000D01*
X251733000Y-103223000D02*
X251733000Y-106327000D01*
X251773000Y-103322000D02*
X251773000Y-106228000D01*
X251813000Y-103429000D02*
X251813000Y-106121000D01*
X251853000Y-103546000D02*
X251853000Y-106004000D01*
X251893000Y-103677000D02*
X251893000Y-105873000D01*
X251933000Y-103827000D02*
X251933000Y-105723000D01*
X251973000Y-104007000D02*
X251973000Y-105543000D01*
X252013000Y-104242000D02*
X252013000Y-105308000D01*
X243522302Y-102460000D02*
X244322302Y-102460000D01*
X243922302Y-102060000D02*
X243922302Y-102860000D01*
%TO.C,R20*%
X222504000Y-94107000D02*
X222483391Y-95123000D01*
X222758000Y-98552000D02*
X222758000Y-95504000D01*
X225247949Y-94110940D02*
X225254466Y-95146492D01*
X225254466Y-95146492D02*
X225182549Y-95369266D01*
X225247949Y-99952940D02*
X225268558Y-98936940D01*
X222497483Y-98913448D02*
X222569400Y-98690674D01*
X224993949Y-95507940D02*
X224993949Y-98555940D01*
X222504000Y-99949000D02*
X222497483Y-98913448D01*
X225268557Y-98936940D02*
G75*
G03*
X224993949Y-98555940I-401440J122D01*
G01*
X222758000Y-98552000D02*
G75*
G03*
X222497483Y-98913448I120485J-361450D01*
G01*
X222885000Y-93726000D02*
G75*
G03*
X222504000Y-94107000I-1J-380999D01*
G01*
X222483392Y-95123000D02*
G75*
G03*
X222758000Y-95504000I401440J-122D01*
G01*
X225247949Y-94110940D02*
G75*
G03*
X224866949Y-93729940I-380999J1D01*
G01*
X224866949Y-100333940D02*
G75*
G03*
X225247949Y-99952940I1J380999D01*
G01*
X222504000Y-99949000D02*
G75*
G03*
X222885000Y-100330000I380999J-1D01*
G01*
X224993949Y-95507940D02*
G75*
G03*
X225254466Y-95146492I-120485J361450D01*
G01*
%TO.C,D7*%
X224092392Y-103107665D02*
G75*
G03*
X223935484Y-106340000I1078608J-1672335D01*
G01*
X226406516Y-106340000D02*
G75*
G03*
X226249608Y-103107665I-1235516J1560000D01*
G01*
X224091163Y-103738870D02*
G75*
G03*
X224091000Y-105820961I1079837J-1041130D01*
G01*
X226251000Y-105820961D02*
G75*
G03*
X226250837Y-103738870I-1080000J1040961D01*
G01*
X223935000Y-106340000D02*
X224091000Y-106340000D01*
X226251000Y-106340000D02*
X226407000Y-106340000D01*
%TO.C,RV3*%
X200981000Y-66354000D02*
X203641000Y-66354000D01*
X200981000Y-61214000D02*
X200981000Y-66354000D01*
X203641000Y-61214000D02*
X203641000Y-66354000D01*
X200981000Y-61214000D02*
X203641000Y-61214000D01*
X200981000Y-59944000D02*
X200981000Y-58614000D01*
X200981000Y-58614000D02*
X202311000Y-58614000D01*
%TO.C,R14*%
X248314443Y-61083060D02*
G75*
G03*
X248589051Y-61464060I401440J-122D01*
G01*
X251079000Y-60071000D02*
G75*
G03*
X250698000Y-59690000I-380999J1D01*
G01*
X251099608Y-64897000D02*
G75*
G03*
X250825000Y-64516000I-401440J122D01*
G01*
X248589051Y-64512060D02*
G75*
G03*
X248328534Y-64873508I120485J-361450D01*
G01*
X248335051Y-65909060D02*
G75*
G03*
X248716051Y-66290060I380999J-1D01*
G01*
X250698000Y-66294000D02*
G75*
G03*
X251079000Y-65913000I1J380999D01*
G01*
X250825000Y-61468000D02*
G75*
G03*
X251085517Y-61106552I-120485J361450D01*
G01*
X248716051Y-59686060D02*
G75*
G03*
X248335051Y-60067060I-1J-380999D01*
G01*
X251079000Y-60071000D02*
X251085517Y-61106552D01*
X251085517Y-61106552D02*
X251013600Y-61329326D01*
X250825000Y-61468000D02*
X250825000Y-64516000D01*
X251079000Y-65913000D02*
X251099609Y-64897000D01*
X248335051Y-60067060D02*
X248314442Y-61083060D01*
X248335051Y-65909060D02*
X248328534Y-64873508D01*
X248328534Y-64873508D02*
X248400451Y-64650734D01*
X248589051Y-64512060D02*
X248589051Y-61464060D01*
%TO.C,Q1*%
X228020000Y-68558000D02*
X228020000Y-72158000D01*
X228747205Y-68033816D02*
G75*
G03*
X228020000Y-68558000I1122795J-2324184D01*
G01*
X232470000Y-70358000D02*
G75*
G03*
X230968807Y-68001600I-2600000J0D01*
G01*
X230968807Y-72714400D02*
G75*
G03*
X232470000Y-70358000I-1098807J2356400D01*
G01*
X228020000Y-72158000D02*
G75*
G03*
X228747205Y-72682184I1850000J1800000D01*
G01*
%TO.C,R15*%
X245618000Y-63500000D02*
G75*
G03*
X245237000Y-63119000I-380999J1D01*
G01*
X240792000Y-63373000D02*
G75*
G03*
X240430552Y-63112483I-361450J-120485D01*
G01*
X239010060Y-65481949D02*
G75*
G03*
X239391060Y-65862949I380999J-1D01*
G01*
X243836060Y-65608949D02*
G75*
G03*
X244197508Y-65869466I361450J120485D01*
G01*
X244221000Y-63098392D02*
G75*
G03*
X243840000Y-63373000I-122J-401440D01*
G01*
X240407060Y-65883557D02*
G75*
G03*
X240788060Y-65608949I122J401440D01*
G01*
X245233060Y-65862949D02*
G75*
G03*
X245614060Y-65481949I1J380999D01*
G01*
X239395000Y-63119000D02*
G75*
G03*
X239014000Y-63500000I-1J-380999D01*
G01*
X240430552Y-63112483D02*
X240653326Y-63184400D01*
X239391060Y-65862949D02*
X240407060Y-65883558D01*
X244197508Y-65869466D02*
X243974734Y-65797549D01*
X243836060Y-65608949D02*
X240788060Y-65608949D01*
X245233060Y-65862949D02*
X244197508Y-65869466D01*
X245237000Y-63119000D02*
X244221000Y-63098391D01*
X240792000Y-63373000D02*
X243840000Y-63373000D01*
X239395000Y-63119000D02*
X240430552Y-63112483D01*
%TO.C,C2*%
X203046000Y-102720000D02*
X203046000Y-95480000D01*
X200306000Y-102720000D02*
X203046000Y-102720000D01*
X200306000Y-102720000D02*
X200306000Y-95480000D01*
X200306000Y-95480000D02*
X203046000Y-95480000D01*
%TO.C,R6*%
X207434534Y-91289508D02*
X207506451Y-91066734D01*
X207695051Y-90928060D02*
X207695051Y-87880060D01*
X210185000Y-86487000D02*
X210191517Y-87522552D01*
X209931000Y-87884000D02*
X209931000Y-90932000D01*
X210191517Y-87522552D02*
X210119600Y-87745326D01*
X207441051Y-86483060D02*
X207420442Y-87499060D01*
X207441051Y-92325060D02*
X207434534Y-91289508D01*
X210185000Y-92329000D02*
X210205609Y-91313000D01*
X207695051Y-90928060D02*
G75*
G03*
X207434534Y-91289508I120485J-361450D01*
G01*
X210205608Y-91313000D02*
G75*
G03*
X209931000Y-90932000I-401440J122D01*
G01*
X207420443Y-87499060D02*
G75*
G03*
X207695051Y-87880060I401440J-122D01*
G01*
X210185000Y-86487000D02*
G75*
G03*
X209804000Y-86106000I-380999J1D01*
G01*
X209931000Y-87884000D02*
G75*
G03*
X210191517Y-87522552I-120485J361450D01*
G01*
X209804000Y-92710000D02*
G75*
G03*
X210185000Y-92329000I1J380999D01*
G01*
X207441051Y-92325060D02*
G75*
G03*
X207822051Y-92706060I380999J-1D01*
G01*
X207822051Y-86102060D02*
G75*
G03*
X207441051Y-86483060I-1J-380999D01*
G01*
%TO.C,RV1*%
X201108000Y-80264000D02*
X203768000Y-80264000D01*
X203768000Y-80264000D02*
X203768000Y-85404000D01*
X201108000Y-77664000D02*
X202438000Y-77664000D01*
X201108000Y-78994000D02*
X201108000Y-77664000D01*
X201108000Y-85404000D02*
X203768000Y-85404000D01*
X201108000Y-80264000D02*
X201108000Y-85404000D01*
%TO.C,RV4*%
X203768000Y-73660000D02*
X203768000Y-68520000D01*
X203768000Y-74930000D02*
X203768000Y-76260000D01*
X203768000Y-73660000D02*
X201108000Y-73660000D01*
X203768000Y-68520000D02*
X201108000Y-68520000D01*
X203768000Y-76260000D02*
X202438000Y-76260000D01*
X201108000Y-73660000D02*
X201108000Y-68520000D01*
%TO.C,D1*%
X238033000Y-104086000D02*
X238033000Y-101146000D01*
X238813000Y-101146000D02*
X233373000Y-101146000D01*
X237793000Y-104086000D02*
X237793000Y-101146000D01*
X233373000Y-101146000D02*
X233373000Y-104086000D01*
X237913000Y-104086000D02*
X237913000Y-101146000D01*
X233373000Y-104086000D02*
X238813000Y-104086000D01*
X232353000Y-102616000D02*
X233373000Y-102616000D01*
X238813000Y-104086000D02*
X238813000Y-101146000D01*
X239833000Y-102616000D02*
X238813000Y-102616000D01*
%TO.C,R16*%
X227681557Y-88776940D02*
G75*
G03*
X227406949Y-88395940I-401440J122D01*
G01*
X227279949Y-90173940D02*
G75*
G03*
X227660949Y-89792940I1J380999D01*
G01*
X224896392Y-84963000D02*
G75*
G03*
X225171000Y-85344000I401440J-122D01*
G01*
X225171000Y-88392000D02*
G75*
G03*
X224910483Y-88753448I120485J-361450D01*
G01*
X224917000Y-89789000D02*
G75*
G03*
X225298000Y-90170000I380999J-1D01*
G01*
X227660949Y-83950940D02*
G75*
G03*
X227279949Y-83569940I-380999J1D01*
G01*
X227406949Y-85347940D02*
G75*
G03*
X227667466Y-84986492I-120485J361450D01*
G01*
X225298000Y-83566000D02*
G75*
G03*
X224917000Y-83947000I-1J-380999D01*
G01*
X224910483Y-88753448D02*
X224982400Y-88530674D01*
X227660949Y-83950940D02*
X227667466Y-84986492D01*
X227667466Y-84986492D02*
X227595549Y-85209266D01*
X224917000Y-89789000D02*
X224910483Y-88753448D01*
X227660949Y-89792940D02*
X227681558Y-88776940D01*
X227406949Y-85347940D02*
X227406949Y-88395940D01*
X224917000Y-83947000D02*
X224896391Y-84963000D01*
X225171000Y-88392000D02*
X225171000Y-85344000D01*
%TO.C,R1*%
X234569000Y-104902000D02*
X237617000Y-104902000D01*
X233172000Y-104648000D02*
X234207552Y-104641483D01*
X234207552Y-104641483D02*
X234430326Y-104713400D01*
X237974508Y-107398466D02*
X237751734Y-107326549D01*
X237613060Y-107137949D02*
X234565060Y-107137949D01*
X239010060Y-107391949D02*
X237974508Y-107398466D01*
X239014000Y-104648000D02*
X237998000Y-104627391D01*
X233168060Y-107391949D02*
X234184060Y-107412558D01*
X234184060Y-107412557D02*
G75*
G03*
X234565060Y-107137949I122J401440D01*
G01*
X232787060Y-107010949D02*
G75*
G03*
X233168060Y-107391949I380999J-1D01*
G01*
X234569000Y-104902000D02*
G75*
G03*
X234207552Y-104641483I-361450J-120485D01*
G01*
X239395000Y-105029000D02*
G75*
G03*
X239014000Y-104648000I-380999J1D01*
G01*
X233172000Y-104648000D02*
G75*
G03*
X232791000Y-105029000I-1J-380999D01*
G01*
X237998000Y-104627392D02*
G75*
G03*
X237617000Y-104902000I-122J-401440D01*
G01*
X237613060Y-107137949D02*
G75*
G03*
X237974508Y-107398466I361450J120485D01*
G01*
X239010060Y-107391949D02*
G75*
G03*
X239391060Y-107010949I1J380999D01*
G01*
%TO.C,R13*%
X233095051Y-73148060D02*
X233095051Y-70100060D01*
X232841051Y-74545060D02*
X232834534Y-73509508D01*
X232834534Y-73509508D02*
X232906451Y-73286734D01*
X235585000Y-74549000D02*
X235605609Y-73533000D01*
X235331000Y-70104000D02*
X235331000Y-73152000D01*
X235591517Y-69742552D02*
X235519600Y-69965326D01*
X235585000Y-68707000D02*
X235591517Y-69742552D01*
X232841051Y-68703060D02*
X232820442Y-69719060D01*
X235331000Y-70104000D02*
G75*
G03*
X235591517Y-69742552I-120485J361450D01*
G01*
X235585000Y-68707000D02*
G75*
G03*
X235204000Y-68326000I-380999J1D01*
G01*
X233095051Y-73148060D02*
G75*
G03*
X232834534Y-73509508I120485J-361450D01*
G01*
X232841051Y-74545060D02*
G75*
G03*
X233222051Y-74926060I380999J-1D01*
G01*
X235605608Y-73533000D02*
G75*
G03*
X235331000Y-73152000I-401440J122D01*
G01*
X235204000Y-74930000D02*
G75*
G03*
X235585000Y-74549000I1J380999D01*
G01*
X233222051Y-68322060D02*
G75*
G03*
X232841051Y-68703060I-1J-380999D01*
G01*
X232820443Y-69719060D02*
G75*
G03*
X233095051Y-70100060I401440J-122D01*
G01*
%TO.C,R12*%
X234061000Y-84709000D02*
G75*
G03*
X234442000Y-85090000I380999J-1D01*
G01*
X236550949Y-80267940D02*
G75*
G03*
X236811466Y-79906492I-120485J361450D01*
G01*
X236423949Y-85093940D02*
G75*
G03*
X236804949Y-84712940I1J380999D01*
G01*
X234315000Y-83312000D02*
G75*
G03*
X234054483Y-83673448I120485J-361450D01*
G01*
X236804949Y-78870940D02*
G75*
G03*
X236423949Y-78489940I-380999J1D01*
G01*
X234442000Y-78486000D02*
G75*
G03*
X234061000Y-78867000I-1J-380999D01*
G01*
X234040392Y-79883000D02*
G75*
G03*
X234315000Y-80264000I401440J-122D01*
G01*
X236825557Y-83696940D02*
G75*
G03*
X236550949Y-83315940I-401440J122D01*
G01*
X234315000Y-83312000D02*
X234315000Y-80264000D01*
X236811466Y-79906492D02*
X236739549Y-80129266D01*
X234061000Y-84709000D02*
X234054483Y-83673448D01*
X234054483Y-83673448D02*
X234126400Y-83450674D01*
X236550949Y-80267940D02*
X236550949Y-83315940D01*
X236804949Y-78870940D02*
X236811466Y-79906492D01*
X234061000Y-78867000D02*
X234040391Y-79883000D01*
X236804949Y-84712940D02*
X236825558Y-83696940D01*
%TO.C,R17*%
X230454949Y-82553940D02*
G75*
G03*
X230835949Y-82172940I1J380999D01*
G01*
X230581949Y-77727940D02*
G75*
G03*
X230842466Y-77366492I-120485J361450D01*
G01*
X230856557Y-81156940D02*
G75*
G03*
X230581949Y-80775940I-401440J122D01*
G01*
X228071392Y-77343000D02*
G75*
G03*
X228346000Y-77724000I401440J-122D01*
G01*
X230835949Y-76330940D02*
G75*
G03*
X230454949Y-75949940I-380999J1D01*
G01*
X228092000Y-82169000D02*
G75*
G03*
X228473000Y-82550000I380999J-1D01*
G01*
X228473000Y-75946000D02*
G75*
G03*
X228092000Y-76327000I-1J-380999D01*
G01*
X228346000Y-80772000D02*
G75*
G03*
X228085483Y-81133448I120485J-361450D01*
G01*
X228085483Y-81133448D02*
X228157400Y-80910674D01*
X230835949Y-82172940D02*
X230856558Y-81156940D01*
X230842466Y-77366492D02*
X230770549Y-77589266D01*
X228346000Y-80772000D02*
X228346000Y-77724000D01*
X228092000Y-82169000D02*
X228085483Y-81133448D01*
X228092000Y-76327000D02*
X228071391Y-77343000D01*
X230835949Y-76330940D02*
X230842466Y-77366492D01*
X230581949Y-77727940D02*
X230581949Y-80775940D01*
%TO.C,C7*%
X249150000Y-98287000D02*
X248585000Y-98287000D01*
X249150000Y-97047000D02*
X247735000Y-97047000D01*
X252339000Y-97687000D02*
X251230000Y-97687000D01*
X249150000Y-97407000D02*
X247880000Y-97407000D01*
X249150000Y-97367000D02*
X247861000Y-97367000D01*
X252670000Y-96967000D02*
X251230000Y-96967000D01*
X252755000Y-96526000D02*
X251230000Y-96526000D01*
X249150000Y-96686000D02*
X247647000Y-96686000D01*
X249150000Y-96726000D02*
X247654000Y-96726000D01*
X249150000Y-96646000D02*
X247640000Y-96646000D01*
X252645000Y-97047000D02*
X251230000Y-97047000D01*
X251665000Y-93441225D02*
X251665000Y-93941225D01*
X252127000Y-97967000D02*
X251230000Y-97967000D01*
X252759000Y-96486000D02*
X251230000Y-96486000D01*
X252285000Y-97767000D02*
X251230000Y-97767000D01*
X250867000Y-98767000D02*
X249513000Y-98767000D01*
X249150000Y-96766000D02*
X247662000Y-96766000D01*
X249150000Y-97167000D02*
X247776000Y-97167000D01*
X249150000Y-98327000D02*
X248636000Y-98327000D01*
X249150000Y-98127000D02*
X248405000Y-98127000D01*
X251201000Y-98647000D02*
X249179000Y-98647000D01*
X251368000Y-98567000D02*
X249012000Y-98567000D01*
X249150000Y-97247000D02*
X247808000Y-97247000D01*
X252572000Y-97247000D02*
X251230000Y-97247000D01*
X249150000Y-96566000D02*
X247629000Y-96566000D01*
X249150000Y-97327000D02*
X247842000Y-97327000D01*
X252740000Y-96646000D02*
X251230000Y-96646000D01*
X252718000Y-96766000D02*
X251230000Y-96766000D01*
X249150000Y-96886000D02*
X247689000Y-96886000D01*
X252701000Y-96846000D02*
X251230000Y-96846000D01*
X252588000Y-97207000D02*
X251230000Y-97207000D01*
X252538000Y-97327000D02*
X251230000Y-97327000D01*
X252480000Y-97447000D02*
X251230000Y-97447000D01*
X252458000Y-97487000D02*
X251230000Y-97487000D01*
X252733000Y-96686000D02*
X251230000Y-96686000D01*
X249150000Y-97727000D02*
X248068000Y-97727000D01*
X252726000Y-96726000D02*
X251230000Y-96726000D01*
X249150000Y-98367000D02*
X248690000Y-98367000D01*
X249150000Y-98087000D02*
X248364000Y-98087000D01*
X252751000Y-96566000D02*
X251230000Y-96566000D01*
X249150000Y-96606000D02*
X247634000Y-96606000D01*
X249150000Y-97287000D02*
X247825000Y-97287000D01*
X252746000Y-96606000D02*
X251230000Y-96606000D01*
X249150000Y-97207000D02*
X247792000Y-97207000D01*
X251288000Y-98607000D02*
X249092000Y-98607000D01*
X249150000Y-97127000D02*
X247762000Y-97127000D01*
X252763000Y-96446000D02*
X247617000Y-96446000D01*
X252016000Y-98087000D02*
X251230000Y-98087000D01*
X251633000Y-98407000D02*
X251230000Y-98407000D01*
X249150000Y-97887000D02*
X248186000Y-97887000D01*
X249150000Y-97567000D02*
X247966000Y-97567000D01*
X249150000Y-98047000D02*
X248326000Y-98047000D01*
X252091000Y-98007000D02*
X251230000Y-98007000D01*
X251105000Y-98687000D02*
X249275000Y-98687000D01*
X249150000Y-97687000D02*
X248041000Y-97687000D01*
X251441000Y-98527000D02*
X251230000Y-98527000D01*
X252255000Y-97807000D02*
X251230000Y-97807000D01*
X249150000Y-96926000D02*
X247699000Y-96926000D01*
X252312000Y-97727000D02*
X251230000Y-97727000D01*
X250708000Y-98807000D02*
X249672000Y-98807000D01*
X249150000Y-97487000D02*
X247922000Y-97487000D01*
X249150000Y-97807000D02*
X248125000Y-97807000D01*
X249150000Y-96526000D02*
X247625000Y-96526000D01*
X251933000Y-98167000D02*
X251230000Y-98167000D01*
X251795000Y-98287000D02*
X251230000Y-98287000D01*
X249150000Y-96486000D02*
X247621000Y-96486000D01*
X252768000Y-96366000D02*
X247612000Y-96366000D01*
X249150000Y-98167000D02*
X248447000Y-98167000D01*
X252766000Y-96406000D02*
X247614000Y-96406000D01*
X251509000Y-98487000D02*
X251230000Y-98487000D01*
X252194000Y-97887000D02*
X251230000Y-97887000D01*
X249150000Y-97007000D02*
X247722000Y-97007000D01*
X252437000Y-97527000D02*
X251230000Y-97527000D01*
X249150000Y-97767000D02*
X248095000Y-97767000D01*
X252770000Y-96286000D02*
X247610000Y-96286000D01*
X252225000Y-97847000D02*
X251230000Y-97847000D01*
X251690000Y-98367000D02*
X251230000Y-98367000D01*
X252519000Y-97367000D02*
X251230000Y-97367000D01*
X249150000Y-98447000D02*
X248807000Y-98447000D01*
X251915000Y-93691225D02*
X251415000Y-93691225D01*
X249150000Y-98527000D02*
X248939000Y-98527000D01*
X249150000Y-96846000D02*
X247679000Y-96846000D01*
X249150000Y-97527000D02*
X247943000Y-97527000D01*
X251744000Y-98327000D02*
X251230000Y-98327000D01*
X252555000Y-97287000D02*
X251230000Y-97287000D01*
X250474000Y-98847000D02*
X249906000Y-98847000D01*
X252161000Y-97927000D02*
X251230000Y-97927000D01*
X249150000Y-97967000D02*
X248253000Y-97967000D01*
X249150000Y-96967000D02*
X247710000Y-96967000D01*
X249150000Y-97607000D02*
X247990000Y-97607000D01*
X252769000Y-96326000D02*
X247611000Y-96326000D01*
X249150000Y-98407000D02*
X248747000Y-98407000D01*
X250995000Y-98727000D02*
X249385000Y-98727000D01*
X251889000Y-98207000D02*
X251230000Y-98207000D01*
X251843000Y-98247000D02*
X251230000Y-98247000D01*
X249150000Y-98487000D02*
X248871000Y-98487000D01*
X249150000Y-97847000D02*
X248155000Y-97847000D01*
X249150000Y-98207000D02*
X248491000Y-98207000D01*
X252054000Y-98047000D02*
X251230000Y-98047000D01*
X252414000Y-97567000D02*
X251230000Y-97567000D01*
X252632000Y-97087000D02*
X251230000Y-97087000D01*
X252500000Y-97407000D02*
X251230000Y-97407000D01*
X252681000Y-96926000D02*
X251230000Y-96926000D01*
X252604000Y-97167000D02*
X251230000Y-97167000D01*
X249150000Y-98247000D02*
X248537000Y-98247000D01*
X252618000Y-97127000D02*
X251230000Y-97127000D01*
X252710000Y-96806000D02*
X251230000Y-96806000D01*
X251975000Y-98127000D02*
X251230000Y-98127000D01*
X252691000Y-96886000D02*
X251230000Y-96886000D01*
X251573000Y-98447000D02*
X251230000Y-98447000D01*
X252365000Y-97647000D02*
X251230000Y-97647000D01*
X252770000Y-96246000D02*
X247610000Y-96246000D01*
X249150000Y-96806000D02*
X247670000Y-96806000D01*
X249150000Y-97087000D02*
X247748000Y-97087000D01*
X252658000Y-97007000D02*
X251230000Y-97007000D01*
X249150000Y-98007000D02*
X248289000Y-98007000D01*
X249150000Y-97647000D02*
X248015000Y-97647000D01*
X249150000Y-97927000D02*
X248219000Y-97927000D01*
X252390000Y-97607000D02*
X251230000Y-97607000D01*
X249150000Y-97447000D02*
X247900000Y-97447000D01*
X252810000Y-96246000D02*
G75*
G03*
X252810000Y-96246000I-2620000J0D01*
G01*
%TO.C,R3*%
X220345000Y-103505000D02*
X219309448Y-103511517D01*
X214506940Y-100761051D02*
X215542492Y-100754534D01*
X220348940Y-100761051D02*
X219332940Y-100740442D01*
X219309448Y-103511517D02*
X219086674Y-103439600D01*
X215542492Y-100754534D02*
X215765266Y-100826451D01*
X214503000Y-103505000D02*
X215519000Y-103525609D01*
X215903940Y-101015051D02*
X218951940Y-101015051D01*
X218948000Y-103251000D02*
X215900000Y-103251000D01*
X215903940Y-101015051D02*
G75*
G03*
X215542492Y-100754534I-361450J-120485D01*
G01*
X220345000Y-103505000D02*
G75*
G03*
X220726000Y-103124000I1J380999D01*
G01*
X219332940Y-100740443D02*
G75*
G03*
X218951940Y-101015051I-122J-401440D01*
G01*
X214122000Y-103124000D02*
G75*
G03*
X214503000Y-103505000I380999J-1D01*
G01*
X214506940Y-100761051D02*
G75*
G03*
X214125940Y-101142051I-1J-380999D01*
G01*
X220729940Y-101142051D02*
G75*
G03*
X220348940Y-100761051I-380999J1D01*
G01*
X218948000Y-103251000D02*
G75*
G03*
X219309448Y-103511517I361450J120485D01*
G01*
X215519000Y-103525608D02*
G75*
G03*
X215900000Y-103251000I122J401440D01*
G01*
%TO.C,R8*%
X207905517Y-73806552D02*
X207833600Y-74029326D01*
X205148534Y-77573508D02*
X205220451Y-77350734D01*
X207899000Y-72771000D02*
X207905517Y-73806552D01*
X205155051Y-72767060D02*
X205134442Y-73783060D01*
X205155051Y-78609060D02*
X205148534Y-77573508D01*
X207645000Y-74168000D02*
X207645000Y-77216000D01*
X205409051Y-77212060D02*
X205409051Y-74164060D01*
X207899000Y-78613000D02*
X207919609Y-77597000D01*
X207919608Y-77597000D02*
G75*
G03*
X207645000Y-77216000I-401440J122D01*
G01*
X205409051Y-77212060D02*
G75*
G03*
X205148534Y-77573508I120485J-361450D01*
G01*
X205155051Y-78609060D02*
G75*
G03*
X205536051Y-78990060I380999J-1D01*
G01*
X205536051Y-72386060D02*
G75*
G03*
X205155051Y-72767060I-1J-380999D01*
G01*
X207518000Y-78994000D02*
G75*
G03*
X207899000Y-78613000I1J380999D01*
G01*
X207899000Y-72771000D02*
G75*
G03*
X207518000Y-72390000I-380999J1D01*
G01*
X207645000Y-74168000D02*
G75*
G03*
X207905517Y-73806552I-120485J361450D01*
G01*
X205134443Y-73783060D02*
G75*
G03*
X205409051Y-74164060I401440J-122D01*
G01*
%TO.C,D6*%
X216626000Y-97600000D02*
X216626000Y-97756000D01*
X216626000Y-95284000D02*
X216626000Y-95440000D01*
X219858335Y-95441392D02*
G75*
G03*
X216626000Y-95284484I-1672335J-1078609D01*
G01*
X219227130Y-95440163D02*
G75*
G03*
X217145039Y-95440000I-1041130J-1079837D01*
G01*
X217145039Y-97600000D02*
G75*
G03*
X219227130Y-97599837I1040961J1080000D01*
G01*
X216626000Y-97755516D02*
G75*
G03*
X219858335Y-97598608I1560000J1235517D01*
G01*
%TO.C,R22*%
X228854000Y-94869000D02*
X231902000Y-94869000D01*
X228492552Y-94608483D02*
X228715326Y-94680400D01*
X233299000Y-94615000D02*
X232283000Y-94594391D01*
X232259508Y-97365466D02*
X232036734Y-97293549D01*
X227453060Y-97358949D02*
X228469060Y-97379558D01*
X231898060Y-97104949D02*
X228850060Y-97104949D01*
X227457000Y-94615000D02*
X228492552Y-94608483D01*
X233295060Y-97358949D02*
X232259508Y-97365466D01*
X233680000Y-94996000D02*
G75*
G03*
X233299000Y-94615000I-380999J1D01*
G01*
X227072060Y-96977949D02*
G75*
G03*
X227453060Y-97358949I380999J-1D01*
G01*
X228469060Y-97379557D02*
G75*
G03*
X228850060Y-97104949I122J401440D01*
G01*
X233295060Y-97358949D02*
G75*
G03*
X233676060Y-96977949I1J380999D01*
G01*
X231898060Y-97104949D02*
G75*
G03*
X232259508Y-97365466I361450J120485D01*
G01*
X232283000Y-94594392D02*
G75*
G03*
X231902000Y-94869000I-122J-401440D01*
G01*
X227457000Y-94615000D02*
G75*
G03*
X227076000Y-94996000I-1J-380999D01*
G01*
X228854000Y-94869000D02*
G75*
G03*
X228492552Y-94608483I-361450J-120485D01*
G01*
%TO.C,R19*%
X239010060Y-93167949D02*
G75*
G03*
X239391060Y-93548949I380999J-1D01*
G01*
X244221000Y-90784392D02*
G75*
G03*
X243840000Y-91059000I-122J-401440D01*
G01*
X240407060Y-93569557D02*
G75*
G03*
X240788060Y-93294949I122J401440D01*
G01*
X245618000Y-91186000D02*
G75*
G03*
X245237000Y-90805000I-380999J1D01*
G01*
X245233060Y-93548949D02*
G75*
G03*
X245614060Y-93167949I1J380999D01*
G01*
X239395000Y-90805000D02*
G75*
G03*
X239014000Y-91186000I-1J-380999D01*
G01*
X240792000Y-91059000D02*
G75*
G03*
X240430552Y-90798483I-361450J-120485D01*
G01*
X243836060Y-93294949D02*
G75*
G03*
X244197508Y-93555466I361450J120485D01*
G01*
X245233060Y-93548949D02*
X244197508Y-93555466D01*
X243836060Y-93294949D02*
X240788060Y-93294949D01*
X239391060Y-93548949D02*
X240407060Y-93569558D01*
X239395000Y-90805000D02*
X240430552Y-90798483D01*
X245237000Y-90805000D02*
X244221000Y-90784391D01*
X240792000Y-91059000D02*
X243840000Y-91059000D01*
X240430552Y-90798483D02*
X240653326Y-90870400D01*
X244197508Y-93555466D02*
X243974734Y-93483549D01*
%TO.C,R9*%
X244221000Y-66400392D02*
G75*
G03*
X243840000Y-66675000I-122J-401440D01*
G01*
X243836060Y-68910949D02*
G75*
G03*
X244197508Y-69171466I361450J120485D01*
G01*
X239010060Y-68783949D02*
G75*
G03*
X239391060Y-69164949I380999J-1D01*
G01*
X245233060Y-69164949D02*
G75*
G03*
X245614060Y-68783949I1J380999D01*
G01*
X240407060Y-69185557D02*
G75*
G03*
X240788060Y-68910949I122J401440D01*
G01*
X240792000Y-66675000D02*
G75*
G03*
X240430552Y-66414483I-361450J-120485D01*
G01*
X245618000Y-66802000D02*
G75*
G03*
X245237000Y-66421000I-380999J1D01*
G01*
X239395000Y-66421000D02*
G75*
G03*
X239014000Y-66802000I-1J-380999D01*
G01*
X245233060Y-69164949D02*
X244197508Y-69171466D01*
X244197508Y-69171466D02*
X243974734Y-69099549D01*
X239395000Y-66421000D02*
X240430552Y-66414483D01*
X240792000Y-66675000D02*
X243840000Y-66675000D01*
X239391060Y-69164949D02*
X240407060Y-69185558D01*
X245237000Y-66421000D02*
X244221000Y-66400391D01*
X243836060Y-68910949D02*
X240788060Y-68910949D01*
X240430552Y-66414483D02*
X240653326Y-66486400D01*
%TO.C,D3*%
X208949000Y-105954000D02*
X209105000Y-105954000D01*
X211265000Y-105954000D02*
X211421000Y-105954000D01*
X211265000Y-105434961D02*
G75*
G03*
X211264837Y-103352870I-1080000J1040961D01*
G01*
X209105163Y-103352870D02*
G75*
G03*
X209105000Y-105434961I1079837J-1041130D01*
G01*
X211420516Y-105954000D02*
G75*
G03*
X211263608Y-102721665I-1235517J1560000D01*
G01*
X209106392Y-102721665D02*
G75*
G03*
X208949484Y-105954000I1078609J-1672335D01*
G01*
%TO.C,R5*%
X210693000Y-86487000D02*
X210672391Y-87503000D01*
X213436949Y-92332940D02*
X213457558Y-91316940D01*
X210686483Y-91293448D02*
X210758400Y-91070674D01*
X213436949Y-86490940D02*
X213443466Y-87526492D01*
X210947000Y-90932000D02*
X210947000Y-87884000D01*
X213443466Y-87526492D02*
X213371549Y-87749266D01*
X213182949Y-87887940D02*
X213182949Y-90935940D01*
X210693000Y-92329000D02*
X210686483Y-91293448D01*
X210693000Y-92329000D02*
G75*
G03*
X211074000Y-92710000I380999J-1D01*
G01*
X210672392Y-87503000D02*
G75*
G03*
X210947000Y-87884000I401440J-122D01*
G01*
X213436949Y-86490940D02*
G75*
G03*
X213055949Y-86109940I-380999J1D01*
G01*
X210947000Y-90932000D02*
G75*
G03*
X210686483Y-91293448I120485J-361450D01*
G01*
X213457557Y-91316940D02*
G75*
G03*
X213182949Y-90935940I-401440J122D01*
G01*
X213182949Y-87887940D02*
G75*
G03*
X213443466Y-87526492I-120485J361450D01*
G01*
X211074000Y-86106000D02*
G75*
G03*
X210693000Y-86487000I-1J-380999D01*
G01*
X213055949Y-92713940D02*
G75*
G03*
X213436949Y-92332940I1J380999D01*
G01*
%TO.C,R10*%
X216281000Y-70485000D02*
X217297000Y-70505609D01*
X221087448Y-70491517D02*
X220864674Y-70419600D01*
X216284940Y-67741051D02*
X217320492Y-67734534D01*
X222123000Y-70485000D02*
X221087448Y-70491517D01*
X217681940Y-67995051D02*
X220729940Y-67995051D01*
X222126940Y-67741051D02*
X221110940Y-67720442D01*
X217320492Y-67734534D02*
X217543266Y-67806451D01*
X220726000Y-70231000D02*
X217678000Y-70231000D01*
X220726000Y-70231000D02*
G75*
G03*
X221087448Y-70491517I361450J120485D01*
G01*
X217297000Y-70505608D02*
G75*
G03*
X217678000Y-70231000I122J401440D01*
G01*
X215900000Y-70104000D02*
G75*
G03*
X216281000Y-70485000I380999J-1D01*
G01*
X221110940Y-67720443D02*
G75*
G03*
X220729940Y-67995051I-122J-401440D01*
G01*
X222123000Y-70485000D02*
G75*
G03*
X222504000Y-70104000I1J380999D01*
G01*
X222507940Y-68122051D02*
G75*
G03*
X222126940Y-67741051I-380999J1D01*
G01*
X216284940Y-67741051D02*
G75*
G03*
X215903940Y-68122051I-1J-380999D01*
G01*
X217681940Y-67995051D02*
G75*
G03*
X217320492Y-67734534I-361450J-120485D01*
G01*
%TO.C,R2*%
X214503000Y-107061000D02*
X215519000Y-107081609D01*
X218948000Y-106807000D02*
X215900000Y-106807000D01*
X219309448Y-107067517D02*
X219086674Y-106995600D01*
X215903940Y-104571051D02*
X218951940Y-104571051D01*
X214506940Y-104317051D02*
X215542492Y-104310534D01*
X220345000Y-107061000D02*
X219309448Y-107067517D01*
X220348940Y-104317051D02*
X219332940Y-104296442D01*
X215542492Y-104310534D02*
X215765266Y-104382451D01*
X214122000Y-106680000D02*
G75*
G03*
X214503000Y-107061000I380999J-1D01*
G01*
X220345000Y-107061000D02*
G75*
G03*
X220726000Y-106680000I1J380999D01*
G01*
X218948000Y-106807000D02*
G75*
G03*
X219309448Y-107067517I361450J120485D01*
G01*
X214506940Y-104317051D02*
G75*
G03*
X214125940Y-104698051I-1J-380999D01*
G01*
X215519000Y-107081608D02*
G75*
G03*
X215900000Y-106807000I122J401440D01*
G01*
X215903940Y-104571051D02*
G75*
G03*
X215542492Y-104310534I-361450J-120485D01*
G01*
X219332940Y-104296443D02*
G75*
G03*
X218951940Y-104571051I-122J-401440D01*
G01*
X220729940Y-104698051D02*
G75*
G03*
X220348940Y-104317051I-380999J1D01*
G01*
%TO.C,R21*%
X227453060Y-100660949D02*
X228469060Y-100681558D01*
X232259508Y-100667466D02*
X232036734Y-100595549D01*
X231898060Y-100406949D02*
X228850060Y-100406949D01*
X228492552Y-97910483D02*
X228715326Y-97982400D01*
X233295060Y-100660949D02*
X232259508Y-100667466D01*
X227457000Y-97917000D02*
X228492552Y-97910483D01*
X233299000Y-97917000D02*
X232283000Y-97896391D01*
X228854000Y-98171000D02*
X231902000Y-98171000D01*
X228854000Y-98171000D02*
G75*
G03*
X228492552Y-97910483I-361450J-120485D01*
G01*
X228469060Y-100681557D02*
G75*
G03*
X228850060Y-100406949I122J401440D01*
G01*
X227072060Y-100279949D02*
G75*
G03*
X227453060Y-100660949I380999J-1D01*
G01*
X227457000Y-97917000D02*
G75*
G03*
X227076000Y-98298000I-1J-380999D01*
G01*
X233295060Y-100660949D02*
G75*
G03*
X233676060Y-100279949I1J380999D01*
G01*
X231898060Y-100406949D02*
G75*
G03*
X232259508Y-100667466I361450J120485D01*
G01*
X232283000Y-97896392D02*
G75*
G03*
X231902000Y-98171000I-122J-401440D01*
G01*
X233680000Y-98298000D02*
G75*
G03*
X233299000Y-97917000I-380999J1D01*
G01*
%TO.C,C4*%
X236263000Y-90763000D02*
X234974000Y-90763000D01*
X236513000Y-89722000D02*
X231355000Y-89722000D01*
X236348000Y-90563000D02*
X234974000Y-90563000D01*
X232894000Y-91203000D02*
X231869000Y-91203000D01*
X235719000Y-91523000D02*
X234974000Y-91523000D01*
X235760000Y-91483000D02*
X234974000Y-91483000D01*
X232894000Y-90883000D02*
X231666000Y-90883000D01*
X232894000Y-90122000D02*
X231398000Y-90122000D01*
X236299000Y-90683000D02*
X234974000Y-90683000D01*
X232894000Y-91683000D02*
X232329000Y-91683000D01*
X236029000Y-91163000D02*
X234974000Y-91163000D01*
X232894000Y-90202000D02*
X231414000Y-90202000D01*
X232894000Y-91563000D02*
X232191000Y-91563000D01*
X232894000Y-91603000D02*
X232235000Y-91603000D01*
X232894000Y-91003000D02*
X231734000Y-91003000D01*
X236362000Y-90523000D02*
X234974000Y-90523000D01*
X235969000Y-91243000D02*
X234974000Y-91243000D01*
X235905000Y-91323000D02*
X234974000Y-91323000D01*
X235587000Y-91643000D02*
X234974000Y-91643000D01*
X236435000Y-90282000D02*
X234974000Y-90282000D01*
X232894000Y-90683000D02*
X231569000Y-90683000D01*
X232894000Y-91323000D02*
X231963000Y-91323000D01*
X235659000Y-87087225D02*
X235159000Y-87087225D01*
X232894000Y-90763000D02*
X231605000Y-90763000D01*
X232894000Y-91403000D02*
X232033000Y-91403000D01*
X236514000Y-89642000D02*
X231354000Y-89642000D01*
X236134000Y-91003000D02*
X234974000Y-91003000D01*
X232894000Y-89882000D02*
X231365000Y-89882000D01*
X232894000Y-91443000D02*
X232070000Y-91443000D01*
X236425000Y-90322000D02*
X234974000Y-90322000D01*
X234945000Y-92043000D02*
X232923000Y-92043000D01*
X236109000Y-91043000D02*
X234974000Y-91043000D01*
X236499000Y-89922000D02*
X234974000Y-89922000D01*
X235317000Y-91843000D02*
X234974000Y-91843000D01*
X232894000Y-91043000D02*
X231759000Y-91043000D01*
X236056000Y-91123000D02*
X234974000Y-91123000D01*
X232894000Y-90242000D02*
X231423000Y-90242000D01*
X235253000Y-91883000D02*
X234974000Y-91883000D01*
X236512000Y-89762000D02*
X231356000Y-89762000D01*
X232894000Y-90643000D02*
X231552000Y-90643000D01*
X232894000Y-90603000D02*
X231536000Y-90603000D01*
X236402000Y-90403000D02*
X234974000Y-90403000D01*
X236332000Y-90603000D02*
X234974000Y-90603000D01*
X235835000Y-91403000D02*
X234974000Y-91403000D01*
X235938000Y-91283000D02*
X234974000Y-91283000D01*
X232894000Y-91523000D02*
X232149000Y-91523000D01*
X232894000Y-90723000D02*
X231586000Y-90723000D01*
X236244000Y-90803000D02*
X234974000Y-90803000D01*
X235409000Y-86837225D02*
X235409000Y-87337225D01*
X234452000Y-92203000D02*
X233416000Y-92203000D01*
X236445000Y-90242000D02*
X234974000Y-90242000D01*
X236282000Y-90723000D02*
X234974000Y-90723000D01*
X232894000Y-90002000D02*
X231378000Y-90002000D01*
X236316000Y-90643000D02*
X234974000Y-90643000D01*
X232894000Y-90282000D02*
X231433000Y-90282000D01*
X236510000Y-89802000D02*
X231358000Y-89802000D01*
X235185000Y-91923000D02*
X234974000Y-91923000D01*
X236462000Y-90162000D02*
X234974000Y-90162000D01*
X232894000Y-91643000D02*
X232281000Y-91643000D01*
X235798000Y-91443000D02*
X234974000Y-91443000D01*
X232894000Y-91123000D02*
X231812000Y-91123000D01*
X232894000Y-91763000D02*
X232434000Y-91763000D01*
X232894000Y-90443000D02*
X231479000Y-90443000D01*
X232894000Y-91243000D02*
X231899000Y-91243000D01*
X236484000Y-90042000D02*
X234974000Y-90042000D01*
X236514000Y-89682000D02*
X231354000Y-89682000D01*
X232894000Y-90563000D02*
X231520000Y-90563000D01*
X232894000Y-90843000D02*
X231644000Y-90843000D01*
X232894000Y-91363000D02*
X231997000Y-91363000D01*
X232894000Y-90042000D02*
X231384000Y-90042000D01*
X232894000Y-91843000D02*
X232551000Y-91843000D01*
X234218000Y-92243000D02*
X233650000Y-92243000D01*
X234849000Y-92083000D02*
X233019000Y-92083000D01*
X236181000Y-90923000D02*
X234974000Y-90923000D01*
X235677000Y-91563000D02*
X234974000Y-91563000D01*
X232894000Y-90523000D02*
X231506000Y-90523000D01*
X236158000Y-90963000D02*
X234974000Y-90963000D01*
X236507000Y-89842000D02*
X231361000Y-89842000D01*
X232894000Y-90803000D02*
X231624000Y-90803000D01*
X232894000Y-91083000D02*
X231785000Y-91083000D01*
X232894000Y-90923000D02*
X231687000Y-90923000D01*
X232894000Y-90363000D02*
X231454000Y-90363000D01*
X236477000Y-90082000D02*
X234974000Y-90082000D01*
X236470000Y-90122000D02*
X234974000Y-90122000D01*
X232894000Y-91803000D02*
X232491000Y-91803000D01*
X235377000Y-91803000D02*
X234974000Y-91803000D01*
X232894000Y-91883000D02*
X232615000Y-91883000D01*
X232894000Y-90403000D02*
X231466000Y-90403000D01*
X232894000Y-91923000D02*
X232683000Y-91923000D01*
X236389000Y-90443000D02*
X234974000Y-90443000D01*
X236224000Y-90843000D02*
X234974000Y-90843000D01*
X234611000Y-92163000D02*
X233257000Y-92163000D01*
X235112000Y-91963000D02*
X232756000Y-91963000D01*
X235539000Y-91683000D02*
X234974000Y-91683000D01*
X232894000Y-91283000D02*
X231930000Y-91283000D01*
X236083000Y-91083000D02*
X234974000Y-91083000D01*
X232894000Y-90322000D02*
X231443000Y-90322000D01*
X236376000Y-90483000D02*
X234974000Y-90483000D01*
X235999000Y-91203000D02*
X234974000Y-91203000D01*
X232894000Y-90162000D02*
X231406000Y-90162000D01*
X235488000Y-91723000D02*
X234974000Y-91723000D01*
X232894000Y-90483000D02*
X231492000Y-90483000D01*
X235434000Y-91763000D02*
X234974000Y-91763000D01*
X236202000Y-90883000D02*
X234974000Y-90883000D01*
X235633000Y-91603000D02*
X234974000Y-91603000D01*
X232894000Y-91483000D02*
X232108000Y-91483000D01*
X236495000Y-89962000D02*
X234974000Y-89962000D01*
X232894000Y-89962000D02*
X231373000Y-89962000D01*
X232894000Y-91163000D02*
X231839000Y-91163000D01*
X232894000Y-90963000D02*
X231710000Y-90963000D01*
X232894000Y-91723000D02*
X232380000Y-91723000D01*
X232894000Y-89922000D02*
X231369000Y-89922000D01*
X236414000Y-90363000D02*
X234974000Y-90363000D01*
X235871000Y-91363000D02*
X234974000Y-91363000D01*
X234739000Y-92123000D02*
X233129000Y-92123000D01*
X235032000Y-92003000D02*
X232836000Y-92003000D01*
X236503000Y-89882000D02*
X234974000Y-89882000D01*
X236490000Y-90002000D02*
X234974000Y-90002000D01*
X236454000Y-90202000D02*
X234974000Y-90202000D01*
X232894000Y-90082000D02*
X231391000Y-90082000D01*
X236554000Y-89642000D02*
G75*
G03*
X236554000Y-89642000I-2620000J0D01*
G01*
%TO.C,R18*%
X227406949Y-70107940D02*
X227406949Y-73155940D01*
X227660949Y-68710940D02*
X227667466Y-69746492D01*
X224917000Y-74549000D02*
X224910483Y-73513448D01*
X225171000Y-73152000D02*
X225171000Y-70104000D01*
X224917000Y-68707000D02*
X224896391Y-69723000D01*
X227667466Y-69746492D02*
X227595549Y-69969266D01*
X224910483Y-73513448D02*
X224982400Y-73290674D01*
X227660949Y-74552940D02*
X227681558Y-73536940D01*
X225171000Y-73152000D02*
G75*
G03*
X224910483Y-73513448I120485J-361450D01*
G01*
X227660949Y-68710940D02*
G75*
G03*
X227279949Y-68329940I-380999J1D01*
G01*
X224917000Y-74549000D02*
G75*
G03*
X225298000Y-74930000I380999J-1D01*
G01*
X227279949Y-74933940D02*
G75*
G03*
X227660949Y-74552940I1J380999D01*
G01*
X227681557Y-73536940D02*
G75*
G03*
X227406949Y-73155940I-401440J122D01*
G01*
X225298000Y-68326000D02*
G75*
G03*
X224917000Y-68707000I-1J-380999D01*
G01*
X227406949Y-70107940D02*
G75*
G03*
X227667466Y-69746492I-120485J361450D01*
G01*
X224896392Y-69723000D02*
G75*
G03*
X225171000Y-70104000I401440J-122D01*
G01*
%TO.C,D4*%
X212344000Y-68604000D02*
X212344000Y-69254000D01*
X211224000Y-72774000D02*
X213464000Y-72774000D01*
X212344000Y-74144000D02*
X212344000Y-73494000D01*
X213464000Y-73494000D02*
X213464000Y-69254000D01*
X211224000Y-72654000D02*
X213464000Y-72654000D01*
X211224000Y-72894000D02*
X213464000Y-72894000D01*
X211224000Y-69254000D02*
X211224000Y-73494000D01*
X213464000Y-69254000D02*
X211224000Y-69254000D01*
X211224000Y-73494000D02*
X213464000Y-73494000D01*
%TO.C,R11*%
X228219000Y-90932000D02*
G75*
G03*
X227958483Y-91293448I120485J-361450D01*
G01*
X230454949Y-87887940D02*
G75*
G03*
X230715466Y-87526492I-120485J361450D01*
G01*
X230708949Y-86490940D02*
G75*
G03*
X230327949Y-86109940I-380999J1D01*
G01*
X227965000Y-92329000D02*
G75*
G03*
X228346000Y-92710000I380999J-1D01*
G01*
X228346000Y-86106000D02*
G75*
G03*
X227965000Y-86487000I-1J-380999D01*
G01*
X230327949Y-92713940D02*
G75*
G03*
X230708949Y-92332940I1J380999D01*
G01*
X227944392Y-87503000D02*
G75*
G03*
X228219000Y-87884000I401440J-122D01*
G01*
X230729557Y-91316940D02*
G75*
G03*
X230454949Y-90935940I-401440J122D01*
G01*
X230708949Y-92332940D02*
X230729558Y-91316940D01*
X227965000Y-86487000D02*
X227944391Y-87503000D01*
X230715466Y-87526492D02*
X230643549Y-87749266D01*
X228219000Y-90932000D02*
X228219000Y-87884000D01*
X227958483Y-91293448D02*
X228030400Y-91070674D01*
X230454949Y-87887940D02*
X230454949Y-90935940D01*
X227965000Y-92329000D02*
X227958483Y-91293448D01*
X230708949Y-86490940D02*
X230715466Y-87526492D01*
%TO.C,C5*%
X208684000Y-62384000D02*
X215924000Y-62384000D01*
X208684000Y-65124000D02*
X215924000Y-65124000D01*
X208684000Y-62384000D02*
X208684000Y-65124000D01*
X215924000Y-62384000D02*
X215924000Y-65124000D01*
%TO.C,D2*%
X204377484Y-102834000D02*
G75*
G03*
X204534392Y-106066335I1235517J-1560000D01*
G01*
X206692837Y-105435130D02*
G75*
G03*
X206693000Y-103353039I-1079837J1041130D01*
G01*
X204533000Y-103353039D02*
G75*
G03*
X204533163Y-105435130I1080000J-1040961D01*
G01*
X206691608Y-106066335D02*
G75*
G03*
X206848516Y-102834000I-1078609J1672335D01*
G01*
X206849000Y-102834000D02*
X206693000Y-102834000D01*
X204533000Y-102834000D02*
X204377000Y-102834000D01*
%TO.C,C3*%
X207110000Y-86554000D02*
X207110000Y-91794000D01*
X207110000Y-91794000D02*
X204370000Y-91794000D01*
X204370000Y-86554000D02*
X204370000Y-91794000D01*
X207110000Y-86554000D02*
X204370000Y-86554000D01*
%TO.C,R7*%
X207645000Y-64008000D02*
X207645000Y-67056000D01*
X207899000Y-68453000D02*
X207919609Y-67437000D01*
X207899000Y-62611000D02*
X207905517Y-63646552D01*
X205148534Y-67413508D02*
X205220451Y-67190734D01*
X207905517Y-63646552D02*
X207833600Y-63869326D01*
X205155051Y-68449060D02*
X205148534Y-67413508D01*
X205409051Y-67052060D02*
X205409051Y-64004060D01*
X205155051Y-62607060D02*
X205134442Y-63623060D01*
X207919608Y-67437000D02*
G75*
G03*
X207645000Y-67056000I-401440J122D01*
G01*
X207645000Y-64008000D02*
G75*
G03*
X207905517Y-63646552I-120485J361450D01*
G01*
X207899000Y-62611000D02*
G75*
G03*
X207518000Y-62230000I-380999J1D01*
G01*
X205536051Y-62226060D02*
G75*
G03*
X205155051Y-62607060I-1J-380999D01*
G01*
X205134443Y-63623060D02*
G75*
G03*
X205409051Y-64004060I401440J-122D01*
G01*
X205155051Y-68449060D02*
G75*
G03*
X205536051Y-68830060I380999J-1D01*
G01*
X205409051Y-67052060D02*
G75*
G03*
X205148534Y-67413508I120485J-361450D01*
G01*
X207518000Y-68834000D02*
G75*
G03*
X207899000Y-68453000I1J380999D01*
G01*
%TO.C,RV2*%
X203768000Y-94294000D02*
X202438000Y-94294000D01*
X203768000Y-86554000D02*
X201108000Y-86554000D01*
X203768000Y-91694000D02*
X203768000Y-86554000D01*
X203768000Y-92964000D02*
X203768000Y-94294000D01*
X201108000Y-91694000D02*
X201108000Y-86554000D01*
X203768000Y-91694000D02*
X201108000Y-91694000D01*
%TO.C,U2*%
X221452000Y-89468000D02*
X221452000Y-71568000D01*
X216952000Y-71568000D02*
X216952000Y-89468000D01*
X224452000Y-71508000D02*
X213952000Y-71508000D01*
X213952000Y-89528000D02*
X224452000Y-89528000D01*
X221452000Y-71568000D02*
X216952000Y-71568000D01*
X216952000Y-89468000D02*
X218202000Y-89468000D01*
X213952000Y-71508000D02*
X213952000Y-89528000D01*
X224452000Y-89528000D02*
X224452000Y-71508000D01*
X220202000Y-89468000D02*
X221452000Y-89468000D01*
X220202000Y-89468000D02*
G75*
G03*
X218202000Y-89468000I-1000000J0D01*
G01*
%TO.C,U1*%
X241316000Y-69790000D02*
G75*
G03*
X243316000Y-69790000I1000000J0D01*
G01*
X244566000Y-69790000D02*
X243316000Y-69790000D01*
X241316000Y-69790000D02*
X240066000Y-69790000D01*
X240066000Y-69790000D02*
X240066000Y-90230000D01*
X240066000Y-90230000D02*
X244566000Y-90230000D01*
X244566000Y-90230000D02*
X244566000Y-69790000D01*
%TO.C,C6*%
X221134000Y-66906000D02*
X223874000Y-66906000D01*
X221134000Y-59666000D02*
X223874000Y-59666000D01*
X223874000Y-66906000D02*
X223874000Y-59666000D01*
X221134000Y-66906000D02*
X221134000Y-59666000D01*
%TO.C,D5*%
X210670000Y-69854000D02*
X208430000Y-69854000D01*
X209550000Y-74144000D02*
X209550000Y-73494000D01*
X210670000Y-70094000D02*
X208430000Y-70094000D01*
X208430000Y-73494000D02*
X210670000Y-73494000D01*
X208430000Y-69254000D02*
X208430000Y-73494000D01*
X210670000Y-73494000D02*
X210670000Y-69254000D01*
X210670000Y-69254000D02*
X208430000Y-69254000D01*
X210670000Y-69974000D02*
X208430000Y-69974000D01*
X209550000Y-68604000D02*
X209550000Y-69254000D01*
%TO.C,R4*%
X213233000Y-97917000D02*
X212197448Y-97923517D01*
X207394940Y-95173051D02*
X208430492Y-95166534D01*
X211836000Y-97663000D02*
X208788000Y-97663000D01*
X207391000Y-97917000D02*
X208407000Y-97937609D01*
X213236940Y-95173051D02*
X212220940Y-95152442D01*
X208430492Y-95166534D02*
X208653266Y-95238451D01*
X208791940Y-95427051D02*
X211839940Y-95427051D01*
X212197448Y-97923517D02*
X211974674Y-97851600D01*
X208407000Y-97937608D02*
G75*
G03*
X208788000Y-97663000I122J401440D01*
G01*
X207010000Y-97536000D02*
G75*
G03*
X207391000Y-97917000I380999J-1D01*
G01*
X213617940Y-95554051D02*
G75*
G03*
X213236940Y-95173051I-380999J1D01*
G01*
X207394940Y-95173051D02*
G75*
G03*
X207013940Y-95554051I-1J-380999D01*
G01*
X213233000Y-97917000D02*
G75*
G03*
X213614000Y-97536000I1J380999D01*
G01*
X208791940Y-95427051D02*
G75*
G03*
X208430492Y-95166534I-361450J-120485D01*
G01*
X212220940Y-95152443D02*
G75*
G03*
X211839940Y-95427051I-122J-401440D01*
G01*
X211836000Y-97663000D02*
G75*
G03*
X212197448Y-97923517I361450J120485D01*
G01*
%TD*%
M02*
