%TF.GenerationSoftware,KiCad,Pcbnew,(6.0.0-0)*%
%TF.CreationDate,2022-01-23T15:20:27+01:00*%
%TF.ProjectId,engineers-thumb,656e6769-6e65-4657-9273-2d7468756d62,rev?*%
%TF.SameCoordinates,Original*%
%TF.FileFunction,Soldermask,Top*%
%TF.FilePolarity,Negative*%
%FSLAX46Y46*%
G04 Gerber Fmt 4.6, Leading zero omitted, Abs format (unit mm)*
G04 Created by KiCad (PCBNEW (6.0.0-0)) date 2022-01-23 15:20:27*
%MOMM*%
%LPD*%
G01*
G04 APERTURE LIST*
G04 Aperture macros list*
%AMRoundRect*
0 Rectangle with rounded corners*
0 $1 Rounding radius*
0 $2 $3 $4 $5 $6 $7 $8 $9 X,Y pos of 4 corners*
0 Add a 4 corners polygon primitive as box body*
4,1,4,$2,$3,$4,$5,$6,$7,$8,$9,$2,$3,0*
0 Add four circle primitives for the rounded corners*
1,1,$1+$1,$2,$3*
1,1,$1+$1,$4,$5*
1,1,$1+$1,$6,$7*
1,1,$1+$1,$8,$9*
0 Add four rect primitives between the rounded corners*
20,1,$1+$1,$2,$3,$4,$5,0*
20,1,$1+$1,$4,$5,$6,$7,0*
20,1,$1+$1,$6,$7,$8,$9,0*
20,1,$1+$1,$8,$9,$2,$3,0*%
G04 Aperture macros list end*
%ADD10R,1.600000X1.600000*%
%ADD11C,1.600000*%
%ADD12O,1.600000X1.600000*%
%ADD13R,1.800000X1.800000*%
%ADD14C,1.800000*%
%ADD15R,1.700000X1.700000*%
%ADD16O,1.700000X1.700000*%
%ADD17RoundRect,0.250000X-0.550000X-0.550000X0.550000X-0.550000X0.550000X0.550000X-0.550000X0.550000X0*%
%ADD18RoundRect,0.250000X-0.550000X0.550000X-0.550000X-0.550000X0.550000X-0.550000X0.550000X0.550000X0*%
%ADD19C,1.500000*%
%ADD20R,1.500000X1.500000*%
%ADD21R,2.200000X2.200000*%
%ADD22O,2.200000X2.200000*%
%ADD23R,2.400000X1.600000*%
%ADD24O,2.400000X1.600000*%
G04 APERTURE END LIST*
D10*
%TO.C,C1*%
X246182000Y-104775000D03*
D11*
X249682000Y-104775000D03*
%TD*%
%TO.C,R20*%
X223901000Y-100838000D03*
D12*
X223901000Y-93218000D03*
%TD*%
D13*
%TO.C,D7*%
X225171000Y-106050000D03*
D14*
X225171000Y-103510000D03*
%TD*%
D15*
%TO.C,RV3*%
X202311000Y-59944000D03*
D16*
X202311000Y-62484000D03*
X202311000Y-65024000D03*
%TD*%
D17*
%TO.C,J2*%
X217678000Y-109220000D03*
D11*
X221278000Y-109220000D03*
X224878000Y-109220000D03*
X228478000Y-109220000D03*
%TD*%
D17*
%TO.C,J1*%
X233934000Y-109220000D03*
D11*
X237534000Y-109220000D03*
%TD*%
D12*
%TO.C,R14*%
X249682000Y-66802000D03*
D11*
X249682000Y-59182000D03*
%TD*%
D18*
%TO.C,RV5*%
X249682000Y-79458000D03*
D11*
X249682000Y-83058000D03*
X249682000Y-86658000D03*
%TD*%
D19*
%TO.C,Q1*%
X229870000Y-70358000D03*
X229870000Y-72898000D03*
D20*
X229870000Y-67818000D03*
%TD*%
D12*
%TO.C,R15*%
X246126000Y-64516000D03*
D11*
X238506000Y-64516000D03*
%TD*%
%TO.C,C2*%
X201676000Y-96600000D03*
X201676000Y-101600000D03*
%TD*%
%TO.C,R6*%
X208788000Y-85598000D03*
D12*
X208788000Y-93218000D03*
%TD*%
D15*
%TO.C,RV1*%
X202438000Y-78994000D03*
D16*
X202438000Y-81534000D03*
X202438000Y-84074000D03*
%TD*%
D15*
%TO.C,RV4*%
X202438000Y-74930000D03*
D16*
X202438000Y-72390000D03*
X202438000Y-69850000D03*
%TD*%
D21*
%TO.C,D1*%
X241173000Y-102616000D03*
D22*
X231013000Y-102616000D03*
%TD*%
D12*
%TO.C,R16*%
X226314000Y-83058000D03*
D11*
X226314000Y-90678000D03*
%TD*%
%TO.C,R1*%
X232283000Y-106045000D03*
D12*
X239903000Y-106045000D03*
%TD*%
D11*
%TO.C,R13*%
X234188000Y-67818000D03*
D12*
X234188000Y-75438000D03*
%TD*%
%TO.C,R12*%
X235458000Y-77978000D03*
D11*
X235458000Y-85598000D03*
%TD*%
D12*
%TO.C,R17*%
X229489000Y-75438000D03*
D11*
X229489000Y-83058000D03*
%TD*%
D10*
%TO.C,C7*%
X250190000Y-94996000D03*
D11*
X250190000Y-97496000D03*
%TD*%
%TO.C,R3*%
X221234000Y-102108000D03*
D12*
X213614000Y-102108000D03*
%TD*%
D11*
%TO.C,R8*%
X206502000Y-71882000D03*
D12*
X206502000Y-79502000D03*
%TD*%
D13*
%TO.C,D6*%
X216916000Y-96520000D03*
D14*
X219456000Y-96520000D03*
%TD*%
D11*
%TO.C,R22*%
X226568000Y-96012000D03*
D12*
X234188000Y-96012000D03*
%TD*%
%TO.C,R19*%
X246126000Y-92202000D03*
D11*
X238506000Y-92202000D03*
%TD*%
D12*
%TO.C,R9*%
X246126000Y-67818000D03*
D11*
X238506000Y-67818000D03*
%TD*%
D13*
%TO.C,D3*%
X210185000Y-105664000D03*
D14*
X210185000Y-103124000D03*
%TD*%
D11*
%TO.C,R5*%
X212090000Y-93218000D03*
D12*
X212090000Y-85598000D03*
%TD*%
D11*
%TO.C,R10*%
X223012000Y-69088000D03*
D12*
X215392000Y-69088000D03*
%TD*%
D11*
%TO.C,R2*%
X221234000Y-105664000D03*
D12*
X213614000Y-105664000D03*
%TD*%
D11*
%TO.C,R21*%
X226568000Y-99314000D03*
D12*
X234188000Y-99314000D03*
%TD*%
D10*
%TO.C,C4*%
X233934000Y-88392000D03*
D11*
X233934000Y-90892000D03*
%TD*%
%TO.C,R18*%
X226314000Y-75438000D03*
D12*
X226314000Y-67818000D03*
%TD*%
D10*
%TO.C,D4*%
X212344000Y-75184000D03*
D12*
X212344000Y-67564000D03*
%TD*%
%TO.C,R11*%
X229362000Y-85598000D03*
D11*
X229362000Y-93218000D03*
%TD*%
%TO.C,C5*%
X209804000Y-63754000D03*
X214804000Y-63754000D03*
%TD*%
D14*
%TO.C,D2*%
X205613000Y-105664000D03*
D13*
X205613000Y-103124000D03*
%TD*%
D11*
%TO.C,C3*%
X205740000Y-87924000D03*
X205740000Y-90424000D03*
%TD*%
%TO.C,R7*%
X206502000Y-61722000D03*
D12*
X206502000Y-69342000D03*
%TD*%
D15*
%TO.C,RV2*%
X202438000Y-92964000D03*
D16*
X202438000Y-90424000D03*
X202438000Y-87884000D03*
%TD*%
D23*
%TO.C,U2*%
X223012000Y-88138000D03*
D24*
X223012000Y-85598000D03*
X223012000Y-83058000D03*
X223012000Y-80518000D03*
X223012000Y-77978000D03*
X223012000Y-75438000D03*
X223012000Y-72898000D03*
X215392000Y-72898000D03*
X215392000Y-75438000D03*
X215392000Y-77978000D03*
X215392000Y-80518000D03*
X215392000Y-83058000D03*
X215392000Y-85598000D03*
X215392000Y-88138000D03*
%TD*%
%TO.C,U1*%
X246126000Y-71120000D03*
X246126000Y-73660000D03*
X246126000Y-76200000D03*
X246126000Y-78740000D03*
X246126000Y-81280000D03*
X246126000Y-83820000D03*
X246126000Y-86360000D03*
X246126000Y-88900000D03*
X238506000Y-88900000D03*
X238506000Y-86360000D03*
X238506000Y-83820000D03*
X238506000Y-81280000D03*
X238506000Y-78740000D03*
X238506000Y-76200000D03*
X238506000Y-73660000D03*
D23*
X238506000Y-71120000D03*
%TD*%
D11*
%TO.C,C6*%
X222504000Y-65786000D03*
X222504000Y-60786000D03*
%TD*%
D10*
%TO.C,D5*%
X209550000Y-67564000D03*
D12*
X209550000Y-75184000D03*
%TD*%
D11*
%TO.C,R4*%
X214122000Y-96520000D03*
D12*
X206502000Y-96520000D03*
%TD*%
M02*
