<?xml version="1.0" standalone="no"?>
 <!DOCTYPE svg PUBLIC "-//W3C//DTD SVG 1.1//EN" 
 "http://www.w3.org/Graphics/SVG/1.1/DTD/svg11.dtd"> 
<svg
  xmlns:svg="http://www.w3.org/2000/svg"
  xmlns="http://www.w3.org/2000/svg"
  xmlns:xlink="http://www.w3.org/1999/xlink"
  version="1.1"
  width="29.700220cm" height="21.000720cm" viewBox="0 0 116930 82680">
<title>SVG Picture created as bumble-buzz-F_CrtYd.svg date 2020/12/09 21:54:49 </title>
  <desc>Picture generated by PCBNEW </desc>
<g style="fill:#000000; fill-opacity:1;stroke:#000000; stroke-opacity:1;
stroke-linecap:round; stroke-linejoin:round;"
 transform="translate(0 0) scale(1 1)">
</g>
<g style="fill:#000000; fill-opacity:0.0; 
stroke:#000000; stroke-width:-0.000393701; stroke-opacity:1; 
stroke-linecap:round; stroke-linejoin:round;">
</g>
<g style="fill:#000000; fill-opacity:0.0; 
stroke:#000000; stroke-width:19.685; stroke-opacity:1; 
stroke-linecap:round; stroke-linejoin:round;">
<path d="M27891 19891
L27891 21308
" />
<path d="M27891 21308
L29308 21308
" />
<path d="M29308 21308
L29308 19891
" />
<path d="M29308 19891
L27891 19891
" />
<path d="M22308 12508
L22308 11091
" />
<path d="M22308 11091
L20891 11091
" />
<path d="M20891 11091
L20891 12508
" />
<path d="M20891 12508
L22308 12508
" />
<path d="M24391 11091
L24391 12508
" />
<path d="M24391 12508
L25808 12508
" />
<path d="M25808 12508
L25808 11091
" />
<path d="M25808 11091
L24391 11091
" />
<path d="M13808 22108
L13808 20691
" />
<path d="M13808 20691
L12391 20691
" />
<path d="M12391 20691
L12391 22108
" />
<path d="M12391 22108
L13808 22108
" />
<circle cx="27293.7" cy="14600" r="1082.68" /> 
<circle cx="25593.7" cy="17100" r="1082.68" /> 
<circle cx="25593.7" cy="22400" r="1082.68" /> 
<circle cx="14500" cy="19806.3" r="1082.68" /> 
<circle cx="13611" cy="15000" r="1673.23" /> 
<path d="M20470 12607
L20470 10992
" />
<path d="M20470 10992
L15329 10992
" />
<path d="M15329 10992
L15329 12607
" />
<path d="M15329 12607
L20470 12607
" />
<path d="M20470 14392
L15329 14392
" />
<path d="M20470 16007
L20470 14392
" />
<path d="M15329 16007
L20470 16007
" />
<path d="M15329 14392
L15329 16007
" />
<path d="M23309 16286
L23309 23113
" />
<path d="M24490 16286
L23309 16286
" />
<path d="M24490 23113
L24490 16286
" />
<path d="M23309 23113
L24490 23113
" />
<path d="M21660 21415
L18707 21415
" />
<path d="M21660 23384
L21660 21415
" />
<path d="M18707 23384
L21660 23384
" />
<path d="M18707 21415
L18707 23384
" />
<path d="M21460 16115
L18507 16115
" />
<path d="M21460 18084
L21460 16115
" />
<path d="M18507 18084
L21460 18084
" />
<path d="M18507 16115
L18507 18084
" />
<path d="M26491 18302
L26491 21097
" />
<path d="M26491 18302
L24625 18302
" />
<path d="M24625 21097
L26491 21097
" />
<path d="M24625 21097
L24625 18302
" />
<path d="M22991 18302
L22991 21097
" />
<path d="M22991 18302
L21125 18302
" />
<path d="M21125 21097
L22991 21097
" />
<path d="M21125 21097
L21125 18302
" />
<path d="M20491 18302
L20491 21097
" />
<path d="M20491 18302
L18625 18302
" />
<path d="M18625 21097
L20491 21097
" />
<path d="M18625 21097
L18625 18302
" />
<path d="M17991 18302
L17991 21097
" />
<path d="M17991 18302
L16125 18302
" />
<path d="M16125 21097
L17991 21097
" />
<path d="M16125 21097
L16125 18302
" />
<path d="M25670 14392
L20529 14392
" />
<path d="M25670 16007
L25670 14392
" />
<path d="M20529 16007
L25670 16007
" />
<path d="M20529 14392
L20529 16007
" />
<path d="M20529 14307
L25670 14307
" />
<path d="M20529 12692
L20529 14307
" />
<path d="M25670 12692
L20529 12692
" />
<path d="M25670 14307
L25670 12692
" />
<path d="M15329 14307
L20470 14307
" />
<path d="M15329 12692
L15329 14307
" />
<path d="M20470 12692
L15329 12692
" />
<path d="M20470 14307
L20470 12692
" />
<g >
</g>
<g >
</g>
<g >
</g>
<g >
</g>
<g >
</g>
<g >
</g>
<g >
</g>
<g >
</g>
<g >
</g>
<g >
</g>
<g >
</g>
<g >
</g>
<g >
</g>
<g >
</g>
<g >
</g>
<g >
</g>
<g >
</g>
<g >
</g>
<g >
</g>
<g >
</g>
<g >
</g>
<g >
</g>
<g >
</g>
<g >
</g>
<g >
</g>
<g >
</g>
<g >
</g>
<g >
</g>
<g >
</g>
<g >
</g>
<g >
</g>
<g >
</g>
<g >
</g>
<g >
</g>
<g >
</g>
<g >
</g>
<g >
</g>
<g >
</g>
<g >
</g>
<g >
</g>
<g >
</g>
<g >
</g>
<g >
</g>
</g> 
</svg>
