<?xml version="1.0" standalone="no"?>
 <!DOCTYPE svg PUBLIC "-//W3C//DTD SVG 1.1//EN" 
 "http://www.w3.org/Graphics/SVG/1.1/DTD/svg11.dtd"> 
<svg
  xmlns:svg="http://www.w3.org/2000/svg"
  xmlns="http://www.w3.org/2000/svg"
  xmlns:xlink="http://www.w3.org/1999/xlink"
  version="1.1"
  width="29.700220cm" height="21.000720cm" viewBox="0 0 116930 82680">
<title>SVG Picture created as bumble-buzz-F_SilkS.svg date 2020/12/09 21:54:49 </title>
  <desc>Picture generated by PCBNEW </desc>
<g style="fill:#000000; fill-opacity:1;stroke:#000000; stroke-opacity:1;
stroke-linecap:round; stroke-linejoin:round;"
 transform="translate(0 0) scale(1 1)">
</g>
<g style="fill:#000000; fill-opacity:0.0; 
stroke:#000000; stroke-width:-0.000393701; stroke-opacity:1; 
stroke-linecap:round; stroke-linejoin:round;">
</g>
<g style="fill:#000000; fill-opacity:0.0; 
stroke:#000000; stroke-width:47.2441; stroke-opacity:1; 
stroke-linecap:round; stroke-linejoin:round;">
<path d="M28076 21123
L29123 21123
" />
<path d="M28076 21100
L28076 21123
" />
<path d="M29123 21100
L29123 21123
" />
<path d="M28076 21100
L29123 21100
" />
<path d="M28076 20600
L28076 20076
" />
<path d="M28076 20076
L28600 20076
" />
<path d="M22123 11276
L21076 11276
" />
<path d="M22123 11300
L22123 11276
" />
<path d="M21076 11300
L21076 11276
" />
<path d="M22123 11300
L21076 11300
" />
<path d="M22123 11800
L22123 12323
" />
<path d="M22123 12323
L21600 12323
" />
<path d="M24576 12323
L25623 12323
" />
<path d="M24576 12300
L24576 12323
" />
<path d="M25623 12300
L25623 12323
" />
<path d="M24576 12300
L25623 12300
" />
<path d="M24576 11800
L24576 11276
" />
<path d="M24576 11276
L25100 11276
" />
<path d="M13623 20876
L12576 20876
" />
<path d="M13623 20900
L13623 20876
" />
<path d="M12576 20900
L12576 20876
" />
<path d="M13623 20900
L12576 20900
" />
<path d="M13623 21400
L13623 21923
" />
<path d="M13623 21923
L13100 21923
" />
<circle cx="27293.7" cy="14600" r="1031.5" /> 
<path d="M27293 15009
L27293 15615
" />
<path d="M27293 13584
L27293 14190
" />
<path d="M27309 15009
L27309 15615
" />
<path d="M27309 13584
L27309 14190
" />
<path d="M27325 13584
L27325 14190
" />
<path d="M27325 15009
L27325 15615
" />
<path d="M27340 13585
L27340 14190
" />
<path d="M27340 15009
L27340 15614
" />
<path d="M27356 13585
L27356 14190
" />
<path d="M27356 15009
L27356 15614
" />
<path d="M27372 13587
L27372 14190
" />
<path d="M27372 15009
L27372 15612
" />
<path d="M27388 13588
L27388 14190
" />
<path d="M27388 15009
L27388 15611
" />
<path d="M27403 13590
L27403 14190
" />
<path d="M27403 15009
L27403 15609
" />
<path d="M27419 13591
L27419 14190
" />
<path d="M27419 15009
L27419 15608
" />
<path d="M27435 13593
L27435 14190
" />
<path d="M27435 15009
L27435 15606
" />
<path d="M27451 13596
L27451 14190
" />
<path d="M27451 15009
L27451 15603
" />
<path d="M27466 13598
L27466 14190
" />
<path d="M27466 15009
L27466 15601
" />
<path d="M27482 13601
L27482 14190
" />
<path d="M27482 15009
L27482 15598
" />
<path d="M27498 13604
L27498 14190
" />
<path d="M27498 15009
L27498 15595
" />
<path d="M27514 13607
L27514 14190
" />
<path d="M27514 15009
L27514 15592
" />
<path d="M27529 13611
L27529 14190
" />
<path d="M27529 15009
L27529 15588
" />
<path d="M27545 13615
L27545 14190
" />
<path d="M27545 15009
L27545 15584
" />
<path d="M27561 13619
L27561 14190
" />
<path d="M27561 15009
L27561 15580
" />
<path d="M27577 13623
L27577 14190
" />
<path d="M27577 15009
L27577 15576
" />
<path d="M27593 13628
L27593 14190
" />
<path d="M27593 15009
L27593 15571
" />
<path d="M27609 13633
L27609 14190
" />
<path d="M27609 15009
L27609 15566
" />
<path d="M27624 13638
L27624 14190
" />
<path d="M27624 15009
L27624 15561
" />
<path d="M27640 13644
L27640 14190
" />
<path d="M27640 15009
L27640 15555
" />
<path d="M27656 13649
L27656 14190
" />
<path d="M27656 15009
L27656 15550
" />
<path d="M27672 13655
L27672 14190
" />
<path d="M27672 15009
L27672 15544
" />
<path d="M27687 13662
L27687 14190
" />
<path d="M27687 15009
L27687 15537
" />
<path d="M27703 13668
L27703 14190
" />
<path d="M27703 15009
L27703 15531
" />
<path d="M27719 13675
L27719 14190
" />
<path d="M27719 15009
L27719 15524
" />
<path d="M27735 13683
L27735 14190
" />
<path d="M27735 15009
L27735 15516
" />
<path d="M27750 13690
L27750 14190
" />
<path d="M27750 15009
L27750 15509
" />
<path d="M27766 13698
L27766 14190
" />
<path d="M27766 15009
L27766 15501
" />
<path d="M27782 13707
L27782 14190
" />
<path d="M27782 15009
L27782 15492
" />
<path d="M27798 13715
L27798 14190
" />
<path d="M27798 15009
L27798 15484
" />
<path d="M27813 13724
L27813 14190
" />
<path d="M27813 15009
L27813 15475
" />
<path d="M27829 13733
L27829 14190
" />
<path d="M27829 15009
L27829 15466
" />
<path d="M27845 13743
L27845 14190
" />
<path d="M27845 15009
L27845 15456
" />
<path d="M27861 13753
L27861 14190
" />
<path d="M27861 15009
L27861 15446
" />
<path d="M27876 13764
L27876 14190
" />
<path d="M27876 15009
L27876 15435
" />
<path d="M27892 13775
L27892 14190
" />
<path d="M27892 15009
L27892 15424
" />
<path d="M27908 13787
L27908 14190
" />
<path d="M27908 15009
L27908 15412
" />
<path d="M27924 13798
L27924 14190
" />
<path d="M27924 15009
L27924 15401
" />
<path d="M27939 13811
L27939 14190
" />
<path d="M27939 15009
L27939 15388
" />
<path d="M27955 13824
L27955 14190
" />
<path d="M27955 15009
L27955 15375
" />
<path d="M27971 13837
L27971 14190
" />
<path d="M27971 15009
L27971 15362
" />
<path d="M27987 13851
L27987 14190
" />
<path d="M27987 15009
L27987 15348
" />
<path d="M28002 13866
L28002 14190
" />
<path d="M28002 15009
L28002 15333
" />
<path d="M28018 13881
L28018 14190
" />
<path d="M28018 15009
L28018 15318
" />
<path d="M28034 13897
L28034 14190
" />
<path d="M28034 15009
L28034 15302
" />
<path d="M28050 13913
L28050 14190
" />
<path d="M28050 15009
L28050 15286
" />
<path d="M28065 13931
L28065 14190
" />
<path d="M28065 15009
L28065 15268
" />
<path d="M28081 13949
L28081 14190
" />
<path d="M28081 15009
L28081 15250
" />
<path d="M28097 13968
L28097 15231
" />
<path d="M28112 13988
L28112 15211
" />
<path d="M28128 14009
L28128 15190
" />
<path d="M28144 14031
L28144 15168
" />
<path d="M28160 14055
L28160 15144
" />
<path d="M28175 14080
L28175 15119
" />
<path d="M28191 14107
L28191 15092
" />
<path d="M28207 14136
L28207 15063
" />
<path d="M28223 14167
L28223 15032
" />
<path d="M28238 14201
L28238 14998
" />
<path d="M28254 14239
L28254 14960
" />
<path d="M28270 14283
L28270 14916
" />
<path d="M28286 14333
L28286 14866
" />
<path d="M28301 14396
L28301 14803
" />
<path d="M28317 14488
L28317 14711
" />
<path d="M26189 14019
L26386 14019
" />
<path d="M26287 13920
L26287 14117
" />
<circle cx="25593.7" cy="17100" r="1031.5" /> 
<path d="M25593 17509
L25593 18115
" />
<path d="M25593 16084
L25593 16690
" />
<path d="M25609 17509
L25609 18115
" />
<path d="M25609 16084
L25609 16690
" />
<path d="M25625 16084
L25625 16690
" />
<path d="M25625 17509
L25625 18115
" />
<path d="M25640 16085
L25640 16690
" />
<path d="M25640 17509
L25640 18114
" />
<path d="M25656 16085
L25656 16690
" />
<path d="M25656 17509
L25656 18114
" />
<path d="M25672 16087
L25672 16690
" />
<path d="M25672 17509
L25672 18112
" />
<path d="M25688 16088
L25688 16690
" />
<path d="M25688 17509
L25688 18111
" />
<path d="M25703 16090
L25703 16690
" />
<path d="M25703 17509
L25703 18109
" />
<path d="M25719 16091
L25719 16690
" />
<path d="M25719 17509
L25719 18108
" />
<path d="M25735 16093
L25735 16690
" />
<path d="M25735 17509
L25735 18106
" />
<path d="M25751 16096
L25751 16690
" />
<path d="M25751 17509
L25751 18103
" />
<path d="M25766 16098
L25766 16690
" />
<path d="M25766 17509
L25766 18101
" />
<path d="M25782 16101
L25782 16690
" />
<path d="M25782 17509
L25782 18098
" />
<path d="M25798 16104
L25798 16690
" />
<path d="M25798 17509
L25798 18095
" />
<path d="M25814 16107
L25814 16690
" />
<path d="M25814 17509
L25814 18092
" />
<path d="M25829 16111
L25829 16690
" />
<path d="M25829 17509
L25829 18088
" />
<path d="M25845 16115
L25845 16690
" />
<path d="M25845 17509
L25845 18084
" />
<path d="M25861 16119
L25861 16690
" />
<path d="M25861 17509
L25861 18080
" />
<path d="M25877 16123
L25877 16690
" />
<path d="M25877 17509
L25877 18076
" />
<path d="M25893 16128
L25893 16690
" />
<path d="M25893 17509
L25893 18071
" />
<path d="M25909 16133
L25909 16690
" />
<path d="M25909 17509
L25909 18066
" />
<path d="M25924 16138
L25924 16690
" />
<path d="M25924 17509
L25924 18061
" />
<path d="M25940 16144
L25940 16690
" />
<path d="M25940 17509
L25940 18055
" />
<path d="M25956 16149
L25956 16690
" />
<path d="M25956 17509
L25956 18050
" />
<path d="M25972 16155
L25972 16690
" />
<path d="M25972 17509
L25972 18044
" />
<path d="M25987 16162
L25987 16690
" />
<path d="M25987 17509
L25987 18037
" />
<path d="M26003 16168
L26003 16690
" />
<path d="M26003 17509
L26003 18031
" />
<path d="M26019 16175
L26019 16690
" />
<path d="M26019 17509
L26019 18024
" />
<path d="M26035 16183
L26035 16690
" />
<path d="M26035 17509
L26035 18016
" />
<path d="M26050 16190
L26050 16690
" />
<path d="M26050 17509
L26050 18009
" />
<path d="M26066 16198
L26066 16690
" />
<path d="M26066 17509
L26066 18001
" />
<path d="M26082 16207
L26082 16690
" />
<path d="M26082 17509
L26082 17992
" />
<path d="M26098 16215
L26098 16690
" />
<path d="M26098 17509
L26098 17984
" />
<path d="M26113 16224
L26113 16690
" />
<path d="M26113 17509
L26113 17975
" />
<path d="M26129 16233
L26129 16690
" />
<path d="M26129 17509
L26129 17966
" />
<path d="M26145 16243
L26145 16690
" />
<path d="M26145 17509
L26145 17956
" />
<path d="M26161 16253
L26161 16690
" />
<path d="M26161 17509
L26161 17946
" />
<path d="M26176 16264
L26176 16690
" />
<path d="M26176 17509
L26176 17935
" />
<path d="M26192 16275
L26192 16690
" />
<path d="M26192 17509
L26192 17924
" />
<path d="M26208 16287
L26208 16690
" />
<path d="M26208 17509
L26208 17912
" />
<path d="M26224 16298
L26224 16690
" />
<path d="M26224 17509
L26224 17901
" />
<path d="M26239 16311
L26239 16690
" />
<path d="M26239 17509
L26239 17888
" />
<path d="M26255 16324
L26255 16690
" />
<path d="M26255 17509
L26255 17875
" />
<path d="M26271 16337
L26271 16690
" />
<path d="M26271 17509
L26271 17862
" />
<path d="M26287 16351
L26287 16690
" />
<path d="M26287 17509
L26287 17848
" />
<path d="M26302 16366
L26302 16690
" />
<path d="M26302 17509
L26302 17833
" />
<path d="M26318 16381
L26318 16690
" />
<path d="M26318 17509
L26318 17818
" />
<path d="M26334 16397
L26334 16690
" />
<path d="M26334 17509
L26334 17802
" />
<path d="M26350 16413
L26350 16690
" />
<path d="M26350 17509
L26350 17786
" />
<path d="M26365 16431
L26365 16690
" />
<path d="M26365 17509
L26365 17768
" />
<path d="M26381 16449
L26381 16690
" />
<path d="M26381 17509
L26381 17750
" />
<path d="M26397 16468
L26397 17731
" />
<path d="M26412 16488
L26412 17711
" />
<path d="M26428 16509
L26428 17690
" />
<path d="M26444 16531
L26444 17668
" />
<path d="M26460 16555
L26460 17644
" />
<path d="M26475 16580
L26475 17619
" />
<path d="M26491 16607
L26491 17592
" />
<path d="M26507 16636
L26507 17563
" />
<path d="M26523 16667
L26523 17532
" />
<path d="M26538 16701
L26538 17498
" />
<path d="M26554 16739
L26554 17460
" />
<path d="M26570 16783
L26570 17416
" />
<path d="M26586 16833
L26586 17366
" />
<path d="M26601 16896
L26601 17303
" />
<path d="M26617 16988
L26617 17211
" />
<path d="M24489 16519
L24686 16519
" />
<path d="M24587 16420
L24587 16617
" />
<circle cx="25593.7" cy="22400" r="1031.5" /> 
<path d="M25593 22809
L25593 23415
" />
<path d="M25593 21384
L25593 21990
" />
<path d="M25609 22809
L25609 23415
" />
<path d="M25609 21384
L25609 21990
" />
<path d="M25625 21384
L25625 21990
" />
<path d="M25625 22809
L25625 23415
" />
<path d="M25640 21385
L25640 21990
" />
<path d="M25640 22809
L25640 23414
" />
<path d="M25656 21385
L25656 21990
" />
<path d="M25656 22809
L25656 23414
" />
<path d="M25672 21387
L25672 21990
" />
<path d="M25672 22809
L25672 23412
" />
<path d="M25688 21388
L25688 21990
" />
<path d="M25688 22809
L25688 23411
" />
<path d="M25703 21390
L25703 21990
" />
<path d="M25703 22809
L25703 23409
" />
<path d="M25719 21391
L25719 21990
" />
<path d="M25719 22809
L25719 23408
" />
<path d="M25735 21393
L25735 21990
" />
<path d="M25735 22809
L25735 23406
" />
<path d="M25751 21396
L25751 21990
" />
<path d="M25751 22809
L25751 23403
" />
<path d="M25766 21398
L25766 21990
" />
<path d="M25766 22809
L25766 23401
" />
<path d="M25782 21401
L25782 21990
" />
<path d="M25782 22809
L25782 23398
" />
<path d="M25798 21404
L25798 21990
" />
<path d="M25798 22809
L25798 23395
" />
<path d="M25814 21407
L25814 21990
" />
<path d="M25814 22809
L25814 23392
" />
<path d="M25829 21411
L25829 21990
" />
<path d="M25829 22809
L25829 23388
" />
<path d="M25845 21415
L25845 21990
" />
<path d="M25845 22809
L25845 23384
" />
<path d="M25861 21419
L25861 21990
" />
<path d="M25861 22809
L25861 23380
" />
<path d="M25877 21423
L25877 21990
" />
<path d="M25877 22809
L25877 23376
" />
<path d="M25893 21428
L25893 21990
" />
<path d="M25893 22809
L25893 23371
" />
<path d="M25909 21433
L25909 21990
" />
<path d="M25909 22809
L25909 23366
" />
<path d="M25924 21438
L25924 21990
" />
<path d="M25924 22809
L25924 23361
" />
<path d="M25940 21444
L25940 21990
" />
<path d="M25940 22809
L25940 23355
" />
<path d="M25956 21449
L25956 21990
" />
<path d="M25956 22809
L25956 23350
" />
<path d="M25972 21455
L25972 21990
" />
<path d="M25972 22809
L25972 23344
" />
<path d="M25987 21462
L25987 21990
" />
<path d="M25987 22809
L25987 23337
" />
<path d="M26003 21468
L26003 21990
" />
<path d="M26003 22809
L26003 23331
" />
<path d="M26019 21475
L26019 21990
" />
<path d="M26019 22809
L26019 23324
" />
<path d="M26035 21483
L26035 21990
" />
<path d="M26035 22809
L26035 23316
" />
<path d="M26050 21490
L26050 21990
" />
<path d="M26050 22809
L26050 23309
" />
<path d="M26066 21498
L26066 21990
" />
<path d="M26066 22809
L26066 23301
" />
<path d="M26082 21507
L26082 21990
" />
<path d="M26082 22809
L26082 23292
" />
<path d="M26098 21515
L26098 21990
" />
<path d="M26098 22809
L26098 23284
" />
<path d="M26113 21524
L26113 21990
" />
<path d="M26113 22809
L26113 23275
" />
<path d="M26129 21533
L26129 21990
" />
<path d="M26129 22809
L26129 23266
" />
<path d="M26145 21543
L26145 21990
" />
<path d="M26145 22809
L26145 23256
" />
<path d="M26161 21553
L26161 21990
" />
<path d="M26161 22809
L26161 23246
" />
<path d="M26176 21564
L26176 21990
" />
<path d="M26176 22809
L26176 23235
" />
<path d="M26192 21575
L26192 21990
" />
<path d="M26192 22809
L26192 23224
" />
<path d="M26208 21587
L26208 21990
" />
<path d="M26208 22809
L26208 23212
" />
<path d="M26224 21598
L26224 21990
" />
<path d="M26224 22809
L26224 23201
" />
<path d="M26239 21611
L26239 21990
" />
<path d="M26239 22809
L26239 23188
" />
<path d="M26255 21624
L26255 21990
" />
<path d="M26255 22809
L26255 23175
" />
<path d="M26271 21637
L26271 21990
" />
<path d="M26271 22809
L26271 23162
" />
<path d="M26287 21651
L26287 21990
" />
<path d="M26287 22809
L26287 23148
" />
<path d="M26302 21666
L26302 21990
" />
<path d="M26302 22809
L26302 23133
" />
<path d="M26318 21681
L26318 21990
" />
<path d="M26318 22809
L26318 23118
" />
<path d="M26334 21697
L26334 21990
" />
<path d="M26334 22809
L26334 23102
" />
<path d="M26350 21713
L26350 21990
" />
<path d="M26350 22809
L26350 23086
" />
<path d="M26365 21731
L26365 21990
" />
<path d="M26365 22809
L26365 23068
" />
<path d="M26381 21749
L26381 21990
" />
<path d="M26381 22809
L26381 23050
" />
<path d="M26397 21768
L26397 23031
" />
<path d="M26412 21788
L26412 23011
" />
<path d="M26428 21809
L26428 22990
" />
<path d="M26444 21831
L26444 22968
" />
<path d="M26460 21855
L26460 22944
" />
<path d="M26475 21880
L26475 22919
" />
<path d="M26491 21907
L26491 22892
" />
<path d="M26507 21936
L26507 22863
" />
<path d="M26523 21967
L26523 22832
" />
<path d="M26538 22001
L26538 22798
" />
<path d="M26554 22039
L26554 22760
" />
<path d="M26570 22083
L26570 22716
" />
<path d="M26586 22133
L26586 22666
" />
<path d="M26601 22196
L26601 22603
" />
<path d="M26617 22288
L26617 22511
" />
<path d="M24489 21819
L24686 21819
" />
<path d="M24587 21720
L24587 21917
" />
<circle cx="14500" cy="19806.3" r="1031.5" /> 
<path d="M14909 19806
L15515 19806
" />
<path d="M13484 19806
L14090 19806
" />
<path d="M14909 19790
L15515 19790
" />
<path d="M13484 19790
L14090 19790
" />
<path d="M13484 19774
L14090 19774
" />
<path d="M14909 19774
L15515 19774
" />
<path d="M13485 19759
L14090 19759
" />
<path d="M14909 19759
L15514 19759
" />
<path d="M13485 19743
L14090 19743
" />
<path d="M14909 19743
L15514 19743
" />
<path d="M13487 19727
L14090 19727
" />
<path d="M14909 19727
L15512 19727
" />
<path d="M13488 19711
L14090 19711
" />
<path d="M14909 19711
L15511 19711
" />
<path d="M13490 19696
L14090 19696
" />
<path d="M14909 19696
L15509 19696
" />
<path d="M13491 19680
L14090 19680
" />
<path d="M14909 19680
L15508 19680
" />
<path d="M13493 19664
L14090 19664
" />
<path d="M14909 19664
L15506 19664
" />
<path d="M13496 19648
L14090 19648
" />
<path d="M14909 19648
L15503 19648
" />
<path d="M13498 19633
L14090 19633
" />
<path d="M14909 19633
L15501 19633
" />
<path d="M13501 19617
L14090 19617
" />
<path d="M14909 19617
L15498 19617
" />
<path d="M13504 19601
L14090 19601
" />
<path d="M14909 19601
L15495 19601
" />
<path d="M13507 19585
L14090 19585
" />
<path d="M14909 19585
L15492 19585
" />
<path d="M13511 19570
L14090 19570
" />
<path d="M14909 19570
L15488 19570
" />
<path d="M13515 19554
L14090 19554
" />
<path d="M14909 19554
L15484 19554
" />
<path d="M13519 19538
L14090 19538
" />
<path d="M14909 19538
L15480 19538
" />
<path d="M13523 19522
L14090 19522
" />
<path d="M14909 19522
L15476 19522
" />
<path d="M13528 19506
L14090 19506
" />
<path d="M14909 19506
L15471 19506
" />
<path d="M13533 19490
L14090 19490
" />
<path d="M14909 19490
L15466 19490
" />
<path d="M13538 19475
L14090 19475
" />
<path d="M14909 19475
L15461 19475
" />
<path d="M13544 19459
L14090 19459
" />
<path d="M14909 19459
L15455 19459
" />
<path d="M13549 19443
L14090 19443
" />
<path d="M14909 19443
L15450 19443
" />
<path d="M13555 19427
L14090 19427
" />
<path d="M14909 19427
L15444 19427
" />
<path d="M13562 19412
L14090 19412
" />
<path d="M14909 19412
L15437 19412
" />
<path d="M13568 19396
L14090 19396
" />
<path d="M14909 19396
L15431 19396
" />
<path d="M13575 19380
L14090 19380
" />
<path d="M14909 19380
L15424 19380
" />
<path d="M13583 19364
L14090 19364
" />
<path d="M14909 19364
L15416 19364
" />
<path d="M13590 19349
L14090 19349
" />
<path d="M14909 19349
L15409 19349
" />
<path d="M13598 19333
L14090 19333
" />
<path d="M14909 19333
L15401 19333
" />
<path d="M13607 19317
L14090 19317
" />
<path d="M14909 19317
L15392 19317
" />
<path d="M13615 19301
L14090 19301
" />
<path d="M14909 19301
L15384 19301
" />
<path d="M13624 19286
L14090 19286
" />
<path d="M14909 19286
L15375 19286
" />
<path d="M13633 19270
L14090 19270
" />
<path d="M14909 19270
L15366 19270
" />
<path d="M13643 19254
L14090 19254
" />
<path d="M14909 19254
L15356 19254
" />
<path d="M13653 19238
L14090 19238
" />
<path d="M14909 19238
L15346 19238
" />
<path d="M13664 19223
L14090 19223
" />
<path d="M14909 19223
L15335 19223
" />
<path d="M13675 19207
L14090 19207
" />
<path d="M14909 19207
L15324 19207
" />
<path d="M13687 19191
L14090 19191
" />
<path d="M14909 19191
L15312 19191
" />
<path d="M13698 19175
L14090 19175
" />
<path d="M14909 19175
L15301 19175
" />
<path d="M13711 19160
L14090 19160
" />
<path d="M14909 19160
L15288 19160
" />
<path d="M13724 19144
L14090 19144
" />
<path d="M14909 19144
L15275 19144
" />
<path d="M13737 19128
L14090 19128
" />
<path d="M14909 19128
L15262 19128
" />
<path d="M13751 19112
L14090 19112
" />
<path d="M14909 19112
L15248 19112
" />
<path d="M13766 19097
L14090 19097
" />
<path d="M14909 19097
L15233 19097
" />
<path d="M13781 19081
L14090 19081
" />
<path d="M14909 19081
L15218 19081
" />
<path d="M13797 19065
L14090 19065
" />
<path d="M14909 19065
L15202 19065
" />
<path d="M13813 19050
L14090 19050
" />
<path d="M14909 19050
L15186 19050
" />
<path d="M13831 19034
L14090 19034
" />
<path d="M14909 19034
L15168 19034
" />
<path d="M13849 19018
L14090 19018
" />
<path d="M14909 19018
L15150 19018
" />
<path d="M13868 19002
L15131 19002
" />
<path d="M13888 18987
L15111 18987
" />
<path d="M13909 18971
L15090 18971
" />
<path d="M13931 18955
L15068 18955
" />
<path d="M13955 18939
L15044 18939
" />
<path d="M13980 18924
L15019 18924
" />
<path d="M14007 18908
L14992 18908
" />
<path d="M14036 18892
L14963 18892
" />
<path d="M14067 18876
L14932 18876
" />
<path d="M14101 18861
L14898 18861
" />
<path d="M14139 18845
L14860 18845
" />
<path d="M14183 18829
L14816 18829
" />
<path d="M14233 18813
L14766 18813
" />
<path d="M14296 18798
L14703 18798
" />
<path d="M14388 18782
L14611 18782
" />
<path d="M13919 20910
L13919 20713
" />
<path d="M13820 20812
L14017 20812
" />
<circle cx="13611" cy="15000" r="1622.05" /> 
<path d="M13611 16606
L13611 13393
" />
<path d="M13595 16606
L13595 13393
" />
<path d="M13579 16606
L13579 13393
" />
<path d="M13563 16605
L13563 13394
" />
<path d="M13548 16605
L13548 13394
" />
<path d="M13532 16604
L13532 13395
" />
<path d="M13516 16603
L13516 13396
" />
<path d="M13500 16602
L13500 13397
" />
<path d="M13485 16601
L13485 13398
" />
<path d="M13469 16600
L13469 13399
" />
<path d="M13453 16598
L13453 13401
" />
<path d="M13437 16597
L13437 13402
" />
<path d="M13422 16595
L13422 13404
" />
<path d="M13406 16593
L13406 13406
" />
<path d="M13390 16591
L13390 13408
" />
<path d="M13374 16589
L13374 13410
" />
<path d="M13359 16586
L13359 13413
" />
<path d="M13343 16584
L13343 13415
" />
<path d="M13327 16581
L13327 15409
" />
<path d="M13327 14590
L13327 13418
" />
<path d="M13311 16578
L13311 15409
" />
<path d="M13311 14590
L13311 13421
" />
<path d="M13295 16575
L13295 15409
" />
<path d="M13295 14590
L13295 13424
" />
<path d="M13279 16572
L13279 15409
" />
<path d="M13279 14590
L13279 13427
" />
<path d="M13264 16568
L13264 15409
" />
<path d="M13264 14590
L13264 13431
" />
<path d="M13248 16565
L13248 15409
" />
<path d="M13248 14590
L13248 13434
" />
<path d="M13232 16561
L13232 15409
" />
<path d="M13232 14590
L13232 13438
" />
<path d="M13216 16557
L13216 15409
" />
<path d="M13216 14590
L13216 13442
" />
<path d="M13201 16553
L13201 15409
" />
<path d="M13201 14590
L13201 13446
" />
<path d="M13185 16549
L13185 15409
" />
<path d="M13185 14590
L13185 13450
" />
<path d="M13169 16545
L13169 15409
" />
<path d="M13169 14590
L13169 13454
" />
<path d="M13153 16540
L13153 15409
" />
<path d="M13153 14590
L13153 13459
" />
<path d="M13138 16536
L13138 15409
" />
<path d="M13138 14590
L13138 13463
" />
<path d="M13122 16531
L13122 15409
" />
<path d="M13122 14590
L13122 13468
" />
<path d="M13106 16526
L13106 15409
" />
<path d="M13106 14590
L13106 13473
" />
<path d="M13090 16520
L13090 15409
" />
<path d="M13090 14590
L13090 13479
" />
<path d="M13075 16515
L13075 15409
" />
<path d="M13075 14590
L13075 13484
" />
<path d="M13059 16509
L13059 15409
" />
<path d="M13059 14590
L13059 13490
" />
<path d="M13043 16504
L13043 15409
" />
<path d="M13043 14590
L13043 13495
" />
<path d="M13027 16498
L13027 15409
" />
<path d="M13027 14590
L13027 13501
" />
<path d="M13012 16492
L13012 15409
" />
<path d="M13012 14590
L13012 13507
" />
<path d="M12996 16485
L12996 15409
" />
<path d="M12996 14590
L12996 13514
" />
<path d="M12980 16479
L12980 15409
" />
<path d="M12980 14590
L12980 13520
" />
<path d="M12964 16472
L12964 15409
" />
<path d="M12964 14590
L12964 13527
" />
<path d="M12949 16465
L12949 15409
" />
<path d="M12949 14590
L12949 13534
" />
<path d="M12933 16458
L12933 15409
" />
<path d="M12933 14590
L12933 13541
" />
<path d="M12917 16451
L12917 15409
" />
<path d="M12917 14590
L12917 13548
" />
<path d="M12901 16443
L12901 15409
" />
<path d="M12901 14590
L12901 13556
" />
<path d="M12886 16435
L12886 15409
" />
<path d="M12886 14590
L12886 13564
" />
<path d="M12870 16427
L12870 15409
" />
<path d="M12870 14590
L12870 13572
" />
<path d="M12854 16419
L12854 15409
" />
<path d="M12854 14590
L12854 13580
" />
<path d="M12838 16411
L12838 15409
" />
<path d="M12838 14590
L12838 13588
" />
<path d="M12823 16402
L12823 15409
" />
<path d="M12823 14590
L12823 13597
" />
<path d="M12807 16393
L12807 15409
" />
<path d="M12807 14590
L12807 13606
" />
<path d="M12791 16384
L12791 15409
" />
<path d="M12791 14590
L12791 13615
" />
<path d="M12775 16375
L12775 15409
" />
<path d="M12775 14590
L12775 13624
" />
<path d="M12760 16365
L12760 15409
" />
<path d="M12760 14590
L12760 13634
" />
<path d="M12744 16355
L12744 15409
" />
<path d="M12744 14590
L12744 13644
" />
<path d="M12728 16345
L12728 15409
" />
<path d="M12728 14590
L12728 13654
" />
<path d="M12712 16335
L12712 15409
" />
<path d="M12712 14590
L12712 13664
" />
<path d="M12697 16324
L12697 15409
" />
<path d="M12697 14590
L12697 13675
" />
<path d="M12681 16314
L12681 15409
" />
<path d="M12681 14590
L12681 13685
" />
<path d="M12665 16302
L12665 15409
" />
<path d="M12665 14590
L12665 13697
" />
<path d="M12650 16291
L12650 15409
" />
<path d="M12650 14590
L12650 13708
" />
<path d="M12634 16279
L12634 15409
" />
<path d="M12634 14590
L12634 13720
" />
<path d="M12618 16267
L12618 15409
" />
<path d="M12618 14590
L12618 13732
" />
<path d="M12602 16255
L12602 15409
" />
<path d="M12602 14590
L12602 13744
" />
<path d="M12587 16242
L12587 15409
" />
<path d="M12587 14590
L12587 13757
" />
<path d="M12571 16229
L12571 15409
" />
<path d="M12571 14590
L12571 13770
" />
<path d="M12555 16216
L12555 15409
" />
<path d="M12555 14590
L12555 13783
" />
<path d="M12539 16202
L12539 15409
" />
<path d="M12539 14590
L12539 13797
" />
<path d="M12524 16188
L12524 15409
" />
<path d="M12524 14590
L12524 13811
" />
<path d="M12508 16174
L12508 13825
" />
<path d="M12492 16159
L12492 13840
" />
<path d="M12476 16144
L12476 13855
" />
<path d="M12461 16128
L12461 13871
" />
<path d="M12445 16112
L12445 13887
" />
<path d="M12429 16096
L12429 13903
" />
<path d="M12413 16079
L12413 13920
" />
<path d="M12398 16061
L12398 13938
" />
<path d="M12382 16043
L12382 13956
" />
<path d="M12366 16025
L12366 13974
" />
<path d="M12350 16006
L12350 13993
" />
<path d="M12335 15986
L12335 14013
" />
<path d="M12319 15966
L12319 14033
" />
<path d="M12303 15944
L12303 14055
" />
<path d="M12287 15923
L12287 14076
" />
<path d="M12272 15900
L12272 14099
" />
<path d="M12256 15877
L12256 14122
" />
<path d="M12240 15852
L12240 14147
" />
<path d="M12224 15827
L12224 14172
" />
<path d="M12209 15800
L12209 14199
" />
<path d="M12193 15773
L12193 14226
" />
<path d="M12177 15744
L12177 14255
" />
<path d="M12161 15713
L12161 14286
" />
<path d="M12146 15681
L12146 14318
" />
<path d="M12130 15647
L12130 14352
" />
<path d="M12114 15611
L12114 14388
" />
<path d="M12098 15572
L12098 14427
" />
<path d="M12083 15529
L12083 14470
" />
<path d="M12067 15483
L12067 14516
" />
<path d="M12051 15432
L12051 14567
" />
<path d="M12035 15373
L12035 14626
" />
<path d="M12020 15302
L12020 14697
" />
<path d="M12004 15209
L12004 14790
" />
<path d="M15347 15911
L15032 15911
" />
<path d="M15189 16068
L15189 15753
" />
<path d="M19443 12366
L19443 12555
" />
<path d="M19443 12555
L16356 12555
" />
<path d="M16356 12555
L16356 12366
" />
<path d="M19443 11233
L19443 11044
" />
<path d="M19443 11044
L16356 11044
" />
<path d="M16356 11044
L16356 11233
" />
<path d="M18947 12555
L18947 11044
" />
<path d="M18900 12555
L18900 11044
" />
<path d="M18994 12555
L18994 11044
" />
<path d="M16805 14444
L16805 15955
" />
<path d="M16900 14444
L16900 15955
" />
<path d="M16852 14444
L16852 15955
" />
<path d="M19443 15955
L19443 15766
" />
<path d="M16356 15955
L19443 15955
" />
<path d="M16356 15766
L16356 15955
" />
<path d="M19443 14444
L19443 14633
" />
<path d="M16356 14444
L19443 14444
" />
<path d="M16356 14633
L16356 14444
" />
<path d="M23900 17109
L23900 18412
" />
<path d="M23900 22290
L23900 20987
" />
<path d="M23360 18412
L23360 20987
" />
<path d="M24439 18412
L23360 18412
" />
<path d="M24439 20987
L24439 18412
" />
<path d="M23360 20987
L24439 20987
" />
<path d="M21609 21466
L21609 23333
" />
<path d="M18759 21466
L18759 23333
" />
<path d="M18759 23333
L21609 23333
" />
<path d="M18759 21466
L21609 21466
" />
<path d="M21409 16166
L21409 18033
" />
<path d="M18559 16166
L18559 18033
" />
<path d="M18559 18033
L21409 18033
" />
<path d="M18559 16166
L21409 16166
" />
<path d="M26428 20408
L26428 18991
" />
<path d="M26428.3 18991.3 A1016.21 1016.21 0.0 0 0 26142 18785" />
<path d="M25267.4 18772.3 A1023.62 1023.62 0.0 0 0 24676.4 19700" />
<path d="M24676.4 19700 A1023.62 1023.62 0.0 0 0 25267.4 20627.7" />
<path d="M26142 20615 A1016.21 1016.21 0.0 0 0 26428.3 20408.7" />
<path d="M22928 20408
L22928 18991
" />
<path d="M22928.3 18991.3 A1016.21 1016.21 0.0 0 0 22642 18785" />
<path d="M21767.4 18772.3 A1023.62 1023.62 0.0 0 0 21176.4 19700" />
<path d="M21176.4 19700 A1023.62 1023.62 0.0 0 0 21767.4 20627.7" />
<path d="M22642 20615 A1016.21 1016.21 0.0 0 0 22928.3 20408.7" />
<path d="M20428 20408
L20428 18991
" />
<path d="M20428.3 18991.3 A1016.21 1016.21 0.0 0 0 20142 18785" />
<path d="M19267.4 18772.3 A1023.62 1023.62 0.0 0 0 18676.4 19700" />
<path d="M18676.4 19700 A1023.62 1023.62 0.0 0 0 19267.4 20627.7" />
<path d="M20142 20615 A1016.21 1016.21 0.0 0 0 20428.3 20408.7" />
<path d="M17928 20408
L17928 18991
" />
<path d="M17928.3 18991.3 A1016.21 1016.21 0.0 0 0 17642 18785" />
<path d="M16767.4 18772.3 A1023.62 1023.62 0.0 0 0 16176.4 19700" />
<path d="M16176.4 19700 A1023.62 1023.62 0.0 0 0 16767.4 20627.7" />
<path d="M17642 20615 A1016.21 1016.21 0.0 0 0 17928.3 20408.7" />
<path d="M22005 14444
L22005 15955
" />
<path d="M22100 14444
L22100 15955
" />
<path d="M22052 14444
L22052 15955
" />
<path d="M24643 15955
L24643 15766
" />
<path d="M21556 15955
L24643 15955
" />
<path d="M21556 15766
L21556 15955
" />
<path d="M24643 14444
L24643 14633
" />
<path d="M21556 14444
L24643 14444
" />
<path d="M21556 14633
L21556 14444
" />
<path d="M24194 14255
L24194 12744
" />
<path d="M24100 14255
L24100 12744
" />
<path d="M24147 14255
L24147 12744
" />
<path d="M21556 12744
L21556 12933
" />
<path d="M24643 12744
L21556 12744
" />
<path d="M24643 12933
L24643 12744
" />
<path d="M21556 14255
L21556 14066
" />
<path d="M24643 14255
L21556 14255
" />
<path d="M24643 14066
L24643 14255
" />
<path d="M18994 14255
L18994 12744
" />
<path d="M18900 14255
L18900 12744
" />
<path d="M18947 14255
L18947 12744
" />
<path d="M16356 12744
L16356 12933
" />
<path d="M19443 12744
L16356 12744
" />
<path d="M19443 12933
L19443 12744
" />
<path d="M16356 14255
L16356 14066
" />
<path d="M19443 14255
L16356 14255
" />
<path d="M19443 14066
L19443 14255
" />
</g>
<g style="fill:#000000; fill-opacity:0.0; 
stroke:#000000; stroke-width:59.0551; stroke-opacity:1; 
stroke-linecap:round; stroke-linejoin:round;">
<text x="28600" y="19879.5"
textLength="777.278" font-size="524.934" lengthAdjust="spacingAndGlyphs"
text-anchor="middle" opacity="0">J1</text>
<path d="M28468 19467
L28468 19748
L28450 19804
L28412 19842
L28356 19860
L28318 19860
" />
<path d="M28862 19860
L28637 19860
" />
<path d="M28749 19860
L28749 19467
L28712 19523
L28674 19560
L28637 19579
" />
<text x="21600" y="12914.2"
textLength="789.183" font-size="524.934" lengthAdjust="spacingAndGlyphs"
text-anchor="middle" opacity="0">V2</text>
<path d="M21281 12501
L21412 12895
L21543 12501
" />
<path d="M21656 12539
L21674 12520
L21712 12501
L21806 12501
L21843 12520
L21862 12539
L21881 12576
L21881 12614
L21862 12670
L21637 12895
L21881 12895
" />
<text x="25100" y="11079.5"
textLength="751.687" font-size="524.934" lengthAdjust="spacingAndGlyphs"
text-anchor="middle" opacity="0">J2</text>
<path d="M24968 10667
L24968 10948
L24950 11004
L24912 11042
L24856 11060
L24818 11060
" />
<path d="M25137 10704
L25156 10685
L25193 10667
L25287 10667
L25324 10685
L25343 10704
L25362 10742
L25362 10779
L25343 10835
L25118 11060
L25362 11060
" />
<text x="13100" y="22514.2"
textLength="789.183" font-size="524.934" lengthAdjust="spacingAndGlyphs"
text-anchor="middle" opacity="0">V1</text>
<path d="M12781 22101
L12912 22495
L13043 22101
" />
<path d="M13381 22495
L13156 22495
" />
<path d="M13268 22495
L13268 22101
L13231 22157
L13193 22195
L13156 22214
" />
<text x="27293.7" y="13320.5"
textLength="845.426" font-size="524.934" lengthAdjust="spacingAndGlyphs"
text-anchor="middle" opacity="0">C8</text>
<path d="M27228 13264
L27209 13282
L27153 13301
L27115 13301
L27059 13282
L27021 13245
L27003 13207
L26984 13132
L26984 13076
L27003 13001
L27021 12964
L27059 12926
L27115 12908
L27153 12908
L27209 12926
L27228 12945
" />
<path d="M27453 13076
L27415 13058
L27396 13039
L27378 13001
L27378 12983
L27396 12945
L27415 12926
L27453 12908
L27528 12908
L27565 12926
L27584 12945
L27603 12983
L27603 13001
L27584 13039
L27565 13058
L27528 13076
L27453 13076
L27415 13095
L27396 13114
L27378 13151
L27378 13226
L27396 13264
L27415 13282
L27453 13301
L27528 13301
L27565 13282
L27584 13264
L27603 13226
L27603 13151
L27584 13114
L27565 13095
L27528 13076
" />
<text x="25593.7" y="15820.5"
textLength="845.426" font-size="524.934" lengthAdjust="spacingAndGlyphs"
text-anchor="middle" opacity="0">C7</text>
<path d="M25528 15764
L25509 15782
L25453 15801
L25415 15801
L25359 15782
L25321 15745
L25303 15707
L25284 15632
L25284 15576
L25303 15501
L25321 15464
L25359 15426
L25415 15408
L25453 15408
L25509 15426
L25528 15445
" />
<path d="M25659 15408
L25921 15408
L25753 15801
" />
<text x="25593.7" y="21120.5"
textLength="845.426" font-size="524.934" lengthAdjust="spacingAndGlyphs"
text-anchor="middle" opacity="0">C5</text>
<path d="M25528 21064
L25509 21082
L25453 21101
L25415 21101
L25359 21082
L25321 21045
L25303 21007
L25284 20932
L25284 20876
L25303 20801
L25321 20764
L25359 20726
L25415 20708
L25453 20708
L25509 20726
L25528 20745
" />
<path d="M25884 20708
L25696 20708
L25678 20895
L25696 20876
L25734 20858
L25828 20858
L25865 20876
L25884 20895
L25903 20932
L25903 21026
L25884 21064
L25865 21082
L25828 21101
L25734 21101
L25696 21082
L25678 21064
" />
<g transform="rotate(-90 13023.6 19806.3)">
<text x="13023.6" y="20003.1"
textLength="845.426" font-size="524.934" lengthAdjust="spacingAndGlyphs"
text-anchor="middle" opacity="0">C1</text>
</g>
<path d="M13164 19871
L13182 19890
L13201 19946
L13201 19984
L13182 20040
L13145 20078
L13107 20096
L13032 20115
L12976 20115
L12901 20096
L12864 20078
L12826 20040
L12808 19984
L12808 19946
L12826 19890
L12845 19871
" />
<path d="M13201 19496
L13201 19721
" />
<path d="M13201 19609
L12808 19609
L12864 19646
L12901 19684
L12920 19721
" />
<text x="13611" y="17263.8"
textLength="1220.38" font-size="524.934" lengthAdjust="spacingAndGlyphs"
text-anchor="middle" opacity="0">C11</text>
<path d="M13357 17207
L13339 17226
L13282 17245
L13245 17245
L13189 17226
L13151 17188
L13132 17151
L13114 17076
L13114 17020
L13132 16945
L13151 16907
L13189 16870
L13245 16851
L13282 16851
L13339 16870
L13357 16888
" />
<path d="M13732 17245
L13507 17245
" />
<path d="M13620 17245
L13620 16851
L13582 16907
L13545 16945
L13507 16963
" />
<path d="M14107 17245
L13882 17245
" />
<path d="M13995 17245
L13995 16851
L13957 16907
L13920 16945
L13882 16963
" />
<text x="17900" y="13146.5"
textLength="845.426" font-size="524.934" lengthAdjust="spacingAndGlyphs"
text-anchor="middle" opacity="0">D5</text>
<path d="M17609 13127
L17609 12734
L17703 12734
L17759 12752
L17796 12790
L17815 12827
L17834 12902
L17834 12958
L17815 13033
L17796 13071
L17759 13108
L17703 13127
L17609 13127
" />
<path d="M18190 12734
L18003 12734
L17984 12921
L18003 12902
L18040 12883
L18134 12883
L18171 12902
L18190 12921
L18209 12958
L18209 13052
L18190 13090
L18171 13108
L18134 13127
L18040 13127
L18003 13108
L17984 13090
" />
<text x="19900" y="12863"
textLength="470.472" font-size="524.934" lengthAdjust="spacingAndGlyphs"
text-anchor="middle" opacity="0">K</text>
<path d="M19796 12844
L19796 12450
" />
<path d="M20021 12844
L19853 12619
" />
<path d="M20021 12450
L19796 12675
" />
<text x="17900" y="14247.2"
textLength="845.426" font-size="524.934" lengthAdjust="spacingAndGlyphs"
text-anchor="middle" opacity="0">D3</text>
<path d="M17609 14228
L17609 13834
L17703 13834
L17759 13853
L17796 13891
L17815 13928
L17834 14003
L17834 14059
L17815 14134
L17796 14172
L17759 14209
L17703 14228
L17609 14228
" />
<path d="M17965 13834
L18209 13834
L18078 13984
L18134 13984
L18171 14003
L18190 14022
L18209 14059
L18209 14153
L18190 14191
L18171 14209
L18134 14228
L18021 14228
L17984 14209
L17965 14191
" />
<text x="15900" y="14530.7"
textLength="470.472" font-size="524.934" lengthAdjust="spacingAndGlyphs"
text-anchor="middle" opacity="0">K</text>
<path d="M15796 14511
L15796 14118
" />
<path d="M16021 14511
L15853 14286
" />
<path d="M16021 14118
L15796 14343
" />
<g transform="rotate(-90 22966.9 19700)">
<text x="22966.9" y="19896.9"
textLength="1220.38" font-size="524.934" lengthAdjust="spacingAndGlyphs"
text-anchor="middle" opacity="0">R12</text>
</g>
<path d="M23145 19953
L22957 20084
" />
<path d="M23145 20178
L22751 20178
L22751 20028
L22770 19990
L22788 19971
L22826 19953
L22882 19953
L22920 19971
L22938 19990
L22957 20028
L22957 20178
" />
<path d="M23145 19578
L23145 19803
" />
<path d="M23145 19690
L22751 19690
L22807 19728
L22845 19765
L22863 19803
" />
<path d="M22788 19428
L22770 19409
L22751 19371
L22751 19278
L22770 19240
L22788 19221
L22826 19203
L22863 19203
L22920 19221
L23145 19446
L23145 19203
" />
<text x="20184.3" y="21218.9"
textLength="845.426" font-size="524.934" lengthAdjust="spacingAndGlyphs"
text-anchor="middle" opacity="0">C6</text>
<path d="M20118 21162
L20099 21181
L20043 21200
L20006 21200
L19949 21181
L19912 21143
L19893 21106
L19874 21031
L19874 20975
L19893 20900
L19912 20862
L19949 20825
L20006 20806
L20043 20806
L20099 20825
L20118 20843
" />
<path d="M20456 20806
L20381 20806
L20343 20825
L20324 20843
L20287 20900
L20268 20975
L20268 21125
L20287 21162
L20306 21181
L20343 21200
L20418 21200
L20456 21181
L20474 21162
L20493 21125
L20493 21031
L20474 20993
L20456 20975
L20418 20956
L20343 20956
L20306 20975
L20287 20993
L20268 21031
" />
<text x="19984.3" y="15918.9"
textLength="845.426" font-size="524.934" lengthAdjust="spacingAndGlyphs"
text-anchor="middle" opacity="0">C4</text>
<path d="M19918 15862
L19899 15881
L19843 15900
L19806 15900
L19749 15881
L19712 15843
L19693 15806
L19674 15731
L19674 15675
L19693 15600
L19712 15562
L19749 15525
L19806 15506
L19843 15506
L19899 15525
L19918 15543
" />
<path d="M20256 15637
L20256 15900
" />
<path d="M20162 15487
L20068 15768
L20312 15768
" />
<g transform="rotate(-90 24298.4 19700)">
<text x="24298.4" y="19896.9"
textLength="864.173" font-size="524.934" lengthAdjust="spacingAndGlyphs"
text-anchor="middle" opacity="0">Q4</text>
</g>
<path d="M24514 19737
L24495 19774
L24457 19812
L24401 19868
L24382 19906
L24382 19943
" />
<path d="M24476 19924
L24457 19962
L24420 19999
L24345 20018
L24214 20018
L24139 19999
L24101 19962
L24082 19924
L24082 19849
L24101 19812
L24139 19774
L24214 19756
L24345 19756
L24420 19774
L24457 19812
L24476 19849
L24476 19924
" />
<path d="M24214 19418
L24476 19418
" />
<path d="M24064 19512
L24345 19606
L24345 19362
" />
<g transform="rotate(-90 20798.4 19700)">
<text x="20798.4" y="19896.9"
textLength="864.173" font-size="524.934" lengthAdjust="spacingAndGlyphs"
text-anchor="middle" opacity="0">Q3</text>
</g>
<path d="M21014 19737
L20995 19774
L20957 19812
L20901 19868
L20882 19906
L20882 19943
" />
<path d="M20976 19924
L20957 19962
L20920 19999
L20845 20018
L20714 20018
L20639 19999
L20601 19962
L20582 19924
L20582 19849
L20601 19812
L20639 19774
L20714 19756
L20845 19756
L20920 19774
L20957 19812
L20976 19849
L20976 19924
" />
<path d="M20582 19625
L20582 19381
L20732 19512
L20732 19456
L20751 19418
L20770 19400
L20807 19381
L20901 19381
L20939 19400
L20957 19418
L20976 19456
L20976 19568
L20957 19606
L20939 19625
" />
<g transform="rotate(-90 18298.4 19700)">
<text x="18298.4" y="19896.9"
textLength="864.173" font-size="524.934" lengthAdjust="spacingAndGlyphs"
text-anchor="middle" opacity="0">Q2</text>
</g>
<path d="M18514 19737
L18495 19774
L18457 19812
L18401 19868
L18382 19906
L18382 19943
" />
<path d="M18476 19924
L18457 19962
L18420 19999
L18345 20018
L18214 20018
L18139 19999
L18101 19962
L18082 19924
L18082 19849
L18101 19812
L18139 19774
L18214 19756
L18345 19756
L18420 19774
L18457 19812
L18476 19849
L18476 19924
" />
<path d="M18120 19606
L18101 19587
L18082 19550
L18082 19456
L18101 19418
L18120 19400
L18157 19381
L18195 19381
L18251 19400
L18476 19625
L18476 19381
" />
<g transform="rotate(-90 15798.4 19700)">
<text x="15798.4" y="19896.9"
textLength="864.173" font-size="524.934" lengthAdjust="spacingAndGlyphs"
text-anchor="middle" opacity="0">Q1</text>
</g>
<path d="M16014 19737
L15995 19774
L15957 19812
L15901 19868
L15882 19906
L15882 19943
" />
<path d="M15976 19924
L15957 19962
L15920 19999
L15845 20018
L15714 20018
L15639 19999
L15601 19962
L15582 19924
L15582 19849
L15601 19812
L15639 19774
L15714 19756
L15845 19756
L15920 19774
L15957 19812
L15976 19849
L15976 19924
" />
<path d="M15976 19381
L15976 19606
" />
<path d="M15976 19493
L15582 19493
L15639 19531
L15676 19568
L15695 19606
" />
<text x="23100" y="14247.2"
textLength="845.426" font-size="524.934" lengthAdjust="spacingAndGlyphs"
text-anchor="middle" opacity="0">D4</text>
<path d="M22809 14228
L22809 13834
L22903 13834
L22959 13853
L22996 13891
L23015 13928
L23034 14003
L23034 14059
L23015 14134
L22996 14172
L22959 14209
L22903 14228
L22809 14228
" />
<path d="M23371 13966
L23371 14228
" />
<path d="M23278 13816
L23184 14097
L23428 14097
" />
<text x="21100" y="14530.7"
textLength="470.472" font-size="524.934" lengthAdjust="spacingAndGlyphs"
text-anchor="middle" opacity="0">K</text>
<path d="M20996 14511
L20996 14118
" />
<path d="M21221 14511
L21053 14286
" />
<path d="M21221 14118
L20996 14343
" />
<text x="23100" y="14846.5"
textLength="845.426" font-size="524.934" lengthAdjust="spacingAndGlyphs"
text-anchor="middle" opacity="0">D2</text>
<path d="M22809 14827
L22809 14434
L22903 14434
L22959 14452
L22996 14490
L23015 14527
L23034 14602
L23034 14658
L23015 14733
L22996 14771
L22959 14808
L22903 14827
L22809 14827
" />
<path d="M23184 14471
L23203 14452
L23240 14434
L23334 14434
L23371 14452
L23390 14471
L23409 14508
L23409 14546
L23390 14602
L23165 14827
L23409 14827
" />
<text x="25100" y="14563"
textLength="470.472" font-size="524.934" lengthAdjust="spacingAndGlyphs"
text-anchor="middle" opacity="0">K</text>
<path d="M24996 14544
L24996 14150
" />
<path d="M25221 14544
L25053 14319
" />
<path d="M25221 14150
L24996 14375
" />
<text x="17900" y="14846.5"
textLength="845.426" font-size="524.934" lengthAdjust="spacingAndGlyphs"
text-anchor="middle" opacity="0">D1</text>
<path d="M17609 14827
L17609 14434
L17703 14434
L17759 14452
L17796 14490
L17815 14527
L17834 14602
L17834 14658
L17815 14733
L17796 14771
L17759 14808
L17703 14827
L17609 14827
" />
<path d="M18209 14827
L17984 14827
" />
<path d="M18096 14827
L18096 14434
L18059 14490
L18021 14527
L17984 14546
" />
<text x="19900" y="14563"
textLength="470.472" font-size="524.934" lengthAdjust="spacingAndGlyphs"
text-anchor="middle" opacity="0">K</text>
<path d="M19796 14544
L19796 14150
" />
<path d="M20021 14544
L19853 14319
" />
<path d="M20021 14150
L19796 14375
" />
<g >
</g>
</g> 
</svg>
