<?xml version="1.0" standalone="no"?>
 <!DOCTYPE svg PUBLIC "-//W3C//DTD SVG 1.1//EN" 
 "http://www.w3.org/Graphics/SVG/1.1/DTD/svg11.dtd"> 
<svg
  xmlns:svg="http://www.w3.org/2000/svg"
  xmlns="http://www.w3.org/2000/svg"
  xmlns:xlink="http://www.w3.org/1999/xlink"
  version="1.1"
  width="29.700220cm" height="21.000720cm" viewBox="0 0 116930 82680">
<title>SVG Picture created as bumble-buzz-F_Fab.svg date 2020/12/09 21:54:49 </title>
  <desc>Picture generated by PCBNEW </desc>
<g style="fill:#000000; fill-opacity:1;stroke:#000000; stroke-opacity:1;
stroke-linecap:round; stroke-linejoin:round;"
 transform="translate(0 0) scale(1 1)">
</g>
<g style="fill:#000000; fill-opacity:0.0; 
stroke:#000000; stroke-width:-0.000393701; stroke-opacity:1; 
stroke-linecap:round; stroke-linejoin:round;">
</g>
<g style="fill:#000000; fill-opacity:0.0; 
stroke:#000000; stroke-width:39.3701; stroke-opacity:1; 
stroke-linecap:round; stroke-linejoin:round;">
<path d="M28350 20100
L29100 20100
" />
<path d="M29100 20100
L29100 21100
" />
<path d="M29100 21100
L28100 21100
" />
<path d="M28100 21100
L28100 20350
" />
<path d="M28100 20350
L28350 20100
" />
<path d="M21850 12300
L21100 12300
" />
<path d="M21100 12300
L21100 11300
" />
<path d="M21100 11300
L22100 11300
" />
<path d="M22100 11300
L22100 12050
" />
<path d="M22100 12050
L21850 12300
" />
<path d="M24850 11300
L25600 11300
" />
<path d="M25600 11300
L25600 12300
" />
<path d="M25600 12300
L24600 12300
" />
<path d="M24600 12300
L24600 11550
" />
<path d="M24600 11550
L24850 11300
" />
<path d="M13350 21900
L12600 21900
" />
<path d="M12600 21900
L12600 20900
" />
<path d="M12600 20900
L13600 20900
" />
<path d="M13600 20900
L13600 21650
" />
<path d="M13600 21650
L13350 21900
" />
<circle cx="27293.7" cy="14600" r="984.252" /> 
<path d="M26453 14171
L26650 14171
" />
<path d="M26552 14073
L26552 14270
" />
<circle cx="25593.7" cy="17100" r="984.252" /> 
<path d="M24753 16671
L24950 16671
" />
<path d="M24852 16573
L24852 16770
" />
<circle cx="25593.7" cy="22400" r="984.252" /> 
<path d="M24753 21971
L24950 21971
" />
<path d="M24852 21873
L24852 22070
" />
<circle cx="14500" cy="19806.3" r="984.252" /> 
<path d="M14071 20646
L14071 20449
" />
<path d="M13973 20547
L14170 20547
" />
<circle cx="13611" cy="15000" r="1574.8" /> 
<path d="M14960 15687
L14645 15687
" />
<path d="M14802 15845
L14802 15530
" />
<path d="M19396 12508
L19396 11091
" />
<path d="M19396 11091
L16403 11091
" />
<path d="M16403 11091
L16403 12508
" />
<path d="M16403 12508
L19396 12508
" />
<path d="M19900 11800
L19396 11800
" />
<path d="M15900 11800
L16403 11800
" />
<path d="M18947 12508
L18947 11091
" />
<path d="M18907 12508
L18907 11091
" />
<path d="M18986 12508
L18986 11091
" />
<path d="M16813 14491
L16813 15908
" />
<path d="M16892 14491
L16892 15908
" />
<path d="M16852 14491
L16852 15908
" />
<path d="M19900 15200
L19396 15200
" />
<path d="M15900 15200
L16403 15200
" />
<path d="M19396 14491
L16403 14491
" />
<path d="M19396 15908
L19396 14491
" />
<path d="M16403 15908
L19396 15908
" />
<path d="M16403 14491
L16403 15908
" />
<path d="M23900 16700
L23900 18459
" />
<path d="M23900 22700
L23900 20940
" />
<path d="M23407 18459
L23407 20940
" />
<path d="M24392 18459
L23407 18459
" />
<path d="M24392 20940
L24392 18459
" />
<path d="M23407 20940
L24392 20940
" />
<path d="M21562 21514
L18806 21514
" />
<path d="M21562 23285
L21562 21514
" />
<path d="M18806 23285
L21562 23285
" />
<path d="M18806 21514
L18806 23285
" />
<path d="M21362 16214
L18606 16214
" />
<path d="M21362 17985
L21362 16214
" />
<path d="M18606 17985
L21362 17985
" />
<path d="M18606 16214
L18606 17985
" />
<path d="M26388 20385
L26388 19007
" />
<path d="M24723.6 19700 A976.378 976.378 0.0 0 0 26390.4 20390.4" />
<path d="M26390.4 19009.6 A976.378 976.378 0.0 0 0 24723.6 19700" />
<path d="M22888 20385
L22888 19007
" />
<path d="M21223.6 19700 A976.378 976.378 0.0 0 0 22890.4 20390.4" />
<path d="M22890.4 19009.6 A976.378 976.378 0.0 0 0 21223.6 19700" />
<path d="M20388 20385
L20388 19007
" />
<path d="M18723.6 19700 A976.378 976.378 0.0 0 0 20390.4 20390.4" />
<path d="M20390.4 19009.6 A976.378 976.378 0.0 0 0 18723.6 19700" />
<path d="M17888 20385
L17888 19007
" />
<path d="M16223.6 19700 A976.378 976.378 0.0 0 0 17890.4 20390.4" />
<path d="M17890.4 19009.6 A976.378 976.378 0.0 0 0 16223.6 19700" />
<path d="M22013 14491
L22013 15908
" />
<path d="M22092 14491
L22092 15908
" />
<path d="M22052 14491
L22052 15908
" />
<path d="M25100 15200
L24596 15200
" />
<path d="M21100 15200
L21603 15200
" />
<path d="M24596 14491
L21603 14491
" />
<path d="M24596 15908
L24596 14491
" />
<path d="M21603 15908
L24596 15908
" />
<path d="M21603 14491
L21603 15908
" />
<path d="M24186 14208
L24186 12791
" />
<path d="M24107 14208
L24107 12791
" />
<path d="M24147 14208
L24147 12791
" />
<path d="M21100 13500
L21603 13500
" />
<path d="M25100 13500
L24596 13500
" />
<path d="M21603 14208
L24596 14208
" />
<path d="M21603 12791
L21603 14208
" />
<path d="M24596 12791
L21603 12791
" />
<path d="M24596 14208
L24596 12791
" />
<path d="M18986 14208
L18986 12791
" />
<path d="M18907 14208
L18907 12791
" />
<path d="M18947 14208
L18947 12791
" />
<path d="M15900 13500
L16403 13500
" />
<path d="M19900 13500
L19396 13500
" />
<path d="M16403 14208
L19396 14208
" />
<path d="M16403 12791
L16403 14208
" />
<path d="M19396 12791
L16403 12791
" />
<path d="M19396 14208
L19396 12791
" />
<g >
</g>
<g >
</g>
<g >
</g>
<g >
</g>
<g >
</g>
<g >
</g>
<g >
</g>
<g >
</g>
<g >
</g>
<g >
</g>
<g >
</g>
<g >
</g>
<g >
</g>
<g >
</g>
<g >
</g>
<g >
</g>
<g >
</g>
<g >
</g>
<g >
</g>
<g >
</g>
<g >
</g>
<g >
</g>
<g >
</g>
<g >
</g>
<g >
</g>
<g >
</g>
<g >
</g>
<g >
</g>
<g >
</g>
<g >
</g>
<g >
</g>
<g >
</g>
<g >
</g>
<g >
</g>
<g >
</g>
<g >
</g>
<g >
</g>
<g >
</g>
<g >
</g>
<g >
</g>
<g >
</g>
<g >
</g>
</g>
<g style="fill:#000000; fill-opacity:0.0; 
stroke:#000000; stroke-width:39.3701; stroke-opacity:1; 
stroke-linecap:round; stroke-linejoin:round;">
</g>
<g style="fill:#000000; fill-opacity:0.0; 
stroke:#000000; stroke-width:59.0551; stroke-opacity:1; 
stroke-linecap:round; stroke-linejoin:round;">
<text x="28600" y="21714.2"
textLength="6057.27" font-size="524.934" lengthAdjust="spacingAndGlyphs"
text-anchor="middle" opacity="0">Conn_01x01_Female</text>
<path d="M25928 21657
L25909 21676
L25853 21695
L25815 21695
L25759 21676
L25722 21639
L25703 21601
L25684 21526
L25684 21470
L25703 21395
L25722 21357
L25759 21320
L25815 21301
L25853 21301
L25909 21320
L25928 21339
" />
<path d="M26153 21695
L26115 21676
L26097 21657
L26078 21620
L26078 21507
L26097 21470
L26115 21451
L26153 21432
L26209 21432
L26247 21451
L26265 21470
L26284 21507
L26284 21620
L26265 21657
L26247 21676
L26209 21695
L26153 21695
" />
<path d="M26453 21432
L26453 21695
" />
<path d="M26453 21470
L26472 21451
L26509 21432
L26565 21432
L26603 21451
L26622 21489
L26622 21695
" />
<path d="M26809 21432
L26809 21695
" />
<path d="M26809 21470
L26828 21451
L26865 21432
L26922 21432
L26959 21451
L26978 21489
L26978 21695
" />
<path d="M27072 21732
L27372 21732
" />
<path d="M27540 21301
L27578 21301
L27615 21320
L27634 21339
L27653 21376
L27671 21451
L27671 21545
L27653 21620
L27634 21657
L27615 21676
L27578 21695
L27540 21695
L27503 21676
L27484 21657
L27465 21620
L27447 21545
L27447 21451
L27465 21376
L27484 21339
L27503 21320
L27540 21301
" />
<path d="M28046 21695
L27821 21695
" />
<path d="M27934 21695
L27934 21301
L27896 21357
L27859 21395
L27821 21414
" />
<path d="M28178 21695
L28384 21432
" />
<path d="M28178 21432
L28384 21695
" />
<path d="M28609 21301
L28646 21301
L28684 21320
L28703 21339
L28721 21376
L28740 21451
L28740 21545
L28721 21620
L28703 21657
L28684 21676
L28646 21695
L28609 21695
L28571 21676
L28553 21657
L28534 21620
L28515 21545
L28515 21451
L28534 21376
L28553 21339
L28571 21320
L28609 21301
" />
<path d="M29115 21695
L28890 21695
" />
<path d="M29003 21695
L29003 21301
L28965 21357
L28928 21395
L28890 21414
" />
<path d="M29190 21732
L29490 21732
" />
<path d="M29715 21489
L29584 21489
" />
<path d="M29584 21695
L29584 21301
L29771 21301
" />
<path d="M30071 21676
L30034 21695
L29959 21695
L29921 21676
L29902 21639
L29902 21489
L29921 21451
L29959 21432
L30034 21432
L30071 21451
L30090 21489
L30090 21526
L29902 21564
" />
<path d="M30259 21695
L30259 21432
" />
<path d="M30259 21470
L30277 21451
L30315 21432
L30371 21432
L30409 21451
L30427 21489
L30427 21695
" />
<path d="M30427 21489
L30446 21451
L30484 21432
L30540 21432
L30577 21451
L30596 21489
L30596 21695
" />
<path d="M30952 21695
L30952 21489
L30934 21451
L30896 21432
L30821 21432
L30784 21451
" />
<path d="M30952 21676
L30915 21695
L30821 21695
L30784 21676
L30765 21639
L30765 21601
L30784 21564
L30821 21545
L30915 21545
L30952 21526
" />
<path d="M31196 21695
L31159 21676
L31140 21639
L31140 21301
" />
<path d="M31496 21676
L31459 21695
L31384 21695
L31346 21676
L31327 21639
L31327 21489
L31346 21451
L31384 21432
L31459 21432
L31496 21451
L31515 21489
L31515 21526
L31327 21564
" />
<g transform="rotate(-90 29000 20300)">
<text x="29000" y="20496.9"
textLength="751.687" font-size="524.934" lengthAdjust="spacingAndGlyphs"
text-anchor="middle" opacity="0">J1</text>
</g>
<path d="M28784 20431
L29065 20431
L29121 20449
L29159 20487
L29178 20543
L29178 20581
" />
<path d="M29178 20037
L29178 20262
" />
<path d="M29178 20150
L28784 20150
L28840 20187
L28878 20225
L28896 20262
" />
<text x="21600" y="11079.5"
textLength="2757.69" font-size="524.934" lengthAdjust="spacingAndGlyphs"
text-anchor="middle" opacity="0">VSOURCE</text>
<path d="M20297 10667
L20428 11060
L20559 10667
" />
<path d="M20671 11042
L20728 11060
L20821 11060
L20859 11042
L20878 11023
L20896 10985
L20896 10948
L20878 10910
L20859 10892
L20821 10873
L20746 10854
L20709 10835
L20690 10817
L20671 10779
L20671 10742
L20690 10704
L20709 10685
L20746 10667
L20840 10667
L20896 10685
" />
<path d="M21140 10667
L21215 10667
L21253 10685
L21290 10723
L21309 10798
L21309 10929
L21290 11004
L21253 11042
L21215 11060
L21140 11060
L21103 11042
L21065 11004
L21046 10929
L21046 10798
L21065 10723
L21103 10685
L21140 10667
" />
<path d="M21478 10667
L21478 10985
L21496 11023
L21515 11042
L21553 11060
L21628 11060
L21665 11042
L21684 11023
L21703 10985
L21703 10667
" />
<path d="M22115 11060
L21984 10873
" />
<path d="M21890 11060
L21890 10667
L22040 10667
L22078 10685
L22096 10704
L22115 10742
L22115 10798
L22096 10835
L22078 10854
L22040 10873
L21890 10873
" />
<path d="M22509 11023
L22490 11042
L22434 11060
L22396 11060
L22340 11042
L22303 11004
L22284 10967
L22265 10892
L22265 10835
L22284 10760
L22303 10723
L22340 10685
L22396 10667
L22434 10667
L22490 10685
L22509 10704
" />
<path d="M22677 10854
L22809 10854
" />
<path d="M22865 11060
L22677 11060
L22677 10667
L22865 10667
" />
<g transform="rotate(-90 22100 11700)">
<text x="22100" y="11896.9"
textLength="789.183" font-size="524.934" lengthAdjust="spacingAndGlyphs"
text-anchor="middle" opacity="0">V2</text>
</g>
<path d="M21884 12018
L22278 11887
L21884 11756
" />
<path d="M21921 11643
L21903 11625
L21884 11587
L21884 11493
L21903 11456
L21921 11437
L21959 11418
L21996 11418
L22053 11437
L22278 11662
L22278 11418
" />
<text x="25100" y="12914.2"
textLength="6057.27" font-size="524.934" lengthAdjust="spacingAndGlyphs"
text-anchor="middle" opacity="0">Conn_01x01_Female</text>
<path d="M22428 12857
L22409 12876
L22353 12895
L22315 12895
L22259 12876
L22222 12839
L22203 12801
L22184 12726
L22184 12670
L22203 12595
L22222 12557
L22259 12520
L22315 12501
L22353 12501
L22409 12520
L22428 12539
" />
<path d="M22653 12895
L22615 12876
L22597 12857
L22578 12820
L22578 12707
L22597 12670
L22615 12651
L22653 12632
L22709 12632
L22747 12651
L22765 12670
L22784 12707
L22784 12820
L22765 12857
L22747 12876
L22709 12895
L22653 12895
" />
<path d="M22953 12632
L22953 12895
" />
<path d="M22953 12670
L22972 12651
L23009 12632
L23065 12632
L23103 12651
L23122 12689
L23122 12895
" />
<path d="M23309 12632
L23309 12895
" />
<path d="M23309 12670
L23328 12651
L23365 12632
L23422 12632
L23459 12651
L23478 12689
L23478 12895
" />
<path d="M23572 12932
L23872 12932
" />
<path d="M24040 12501
L24078 12501
L24115 12520
L24134 12539
L24153 12576
L24171 12651
L24171 12745
L24153 12820
L24134 12857
L24115 12876
L24078 12895
L24040 12895
L24003 12876
L23984 12857
L23965 12820
L23947 12745
L23947 12651
L23965 12576
L23984 12539
L24003 12520
L24040 12501
" />
<path d="M24546 12895
L24321 12895
" />
<path d="M24434 12895
L24434 12501
L24396 12557
L24359 12595
L24321 12614
" />
<path d="M24678 12895
L24884 12632
" />
<path d="M24678 12632
L24884 12895
" />
<path d="M25109 12501
L25146 12501
L25184 12520
L25203 12539
L25221 12576
L25240 12651
L25240 12745
L25221 12820
L25203 12857
L25184 12876
L25146 12895
L25109 12895
L25071 12876
L25053 12857
L25034 12820
L25015 12745
L25015 12651
L25034 12576
L25053 12539
L25071 12520
L25109 12501
" />
<path d="M25615 12895
L25390 12895
" />
<path d="M25503 12895
L25503 12501
L25465 12557
L25428 12595
L25390 12614
" />
<path d="M25690 12932
L25990 12932
" />
<path d="M26215 12689
L26084 12689
" />
<path d="M26084 12895
L26084 12501
L26271 12501
" />
<path d="M26571 12876
L26534 12895
L26459 12895
L26421 12876
L26402 12839
L26402 12689
L26421 12651
L26459 12632
L26534 12632
L26571 12651
L26590 12689
L26590 12726
L26402 12764
" />
<path d="M26759 12895
L26759 12632
" />
<path d="M26759 12670
L26777 12651
L26815 12632
L26871 12632
L26909 12651
L26927 12689
L26927 12895
" />
<path d="M26927 12689
L26946 12651
L26984 12632
L27040 12632
L27077 12651
L27096 12689
L27096 12895
" />
<path d="M27452 12895
L27452 12689
L27434 12651
L27396 12632
L27321 12632
L27284 12651
" />
<path d="M27452 12876
L27415 12895
L27321 12895
L27284 12876
L27265 12839
L27265 12801
L27284 12764
L27321 12745
L27415 12745
L27452 12726
" />
<path d="M27696 12895
L27659 12876
L27640 12839
L27640 12501
" />
<path d="M27996 12876
L27959 12895
L27884 12895
L27846 12876
L27827 12839
L27827 12689
L27846 12651
L27884 12632
L27959 12632
L27996 12651
L28015 12689
L28015 12726
L27827 12764
" />
<g transform="rotate(-90 25100 11800)">
<text x="25100" y="11996.9"
textLength="751.687" font-size="524.934" lengthAdjust="spacingAndGlyphs"
text-anchor="middle" opacity="0">J2</text>
</g>
<path d="M24884 11931
L25165 11931
L25221 11949
L25259 11987
L25278 12043
L25278 12081
" />
<path d="M24921 11762
L24903 11743
L24884 11706
L24884 11612
L24903 11575
L24921 11556
L24959 11537
L24996 11537
L25053 11556
L25278 11781
L25278 11537
" />
<text x="13100" y="20679.5"
textLength="2757.69" font-size="524.934" lengthAdjust="spacingAndGlyphs"
text-anchor="middle" opacity="0">VSOURCE</text>
<path d="M11797 20267
L11928 20660
L12059 20267
" />
<path d="M12171 20642
L12228 20660
L12321 20660
L12359 20642
L12378 20623
L12396 20585
L12396 20548
L12378 20510
L12359 20492
L12321 20473
L12246 20454
L12209 20435
L12190 20417
L12171 20379
L12171 20342
L12190 20304
L12209 20285
L12246 20267
L12340 20267
L12396 20285
" />
<path d="M12640 20267
L12715 20267
L12753 20285
L12790 20323
L12809 20398
L12809 20529
L12790 20604
L12753 20642
L12715 20660
L12640 20660
L12603 20642
L12565 20604
L12546 20529
L12546 20398
L12565 20323
L12603 20285
L12640 20267
" />
<path d="M12978 20267
L12978 20585
L12996 20623
L13015 20642
L13053 20660
L13128 20660
L13165 20642
L13184 20623
L13203 20585
L13203 20267
" />
<path d="M13615 20660
L13484 20473
" />
<path d="M13390 20660
L13390 20267
L13540 20267
L13578 20285
L13596 20304
L13615 20342
L13615 20398
L13596 20435
L13578 20454
L13540 20473
L13390 20473
" />
<path d="M14009 20623
L13990 20642
L13934 20660
L13896 20660
L13840 20642
L13803 20604
L13784 20567
L13765 20492
L13765 20435
L13784 20360
L13803 20323
L13840 20285
L13896 20267
L13934 20267
L13990 20285
L14009 20304
" />
<path d="M14177 20454
L14309 20454
" />
<path d="M14365 20660
L14177 20660
L14177 20267
L14365 20267
" />
<g transform="rotate(-90 13100 21400)">
<text x="13100" y="21596.9"
textLength="789.183" font-size="524.934" lengthAdjust="spacingAndGlyphs"
text-anchor="middle" opacity="0">V1</text>
</g>
<path d="M12884 21718
L13278 21587
L12884 21456
" />
<path d="M13278 21118
L13278 21343
" />
<path d="M13278 21231
L12884 21231
L12940 21268
L12978 21306
L12996 21343
" />
<text x="27293.7" y="16273.2"
textLength="1182.88" font-size="524.934" lengthAdjust="spacingAndGlyphs"
text-anchor="middle" opacity="0">10u</text>
<path d="M27040 16254
L26815 16254
" />
<path d="M26928 16254
L26928 15860
L26890 15917
L26853 15954
L26815 15973
" />
<path d="M27284 15860
L27321 15860
L27359 15879
L27378 15898
L27396 15935
L27415 16010
L27415 16104
L27396 16179
L27378 16216
L27359 16235
L27321 16254
L27284 16254
L27246 16235
L27228 16216
L27209 16179
L27190 16104
L27190 16010
L27209 15935
L27228 15898
L27246 15879
L27284 15860
" />
<path d="M27753 15992
L27753 16254
" />
<path d="M27584 15992
L27584 16198
L27603 16235
L27640 16254
L27696 16254
L27734 16235
L27753 16216
" />
<text x="27293.7" y="14796.9"
textLength="845.426" font-size="524.934" lengthAdjust="spacingAndGlyphs"
text-anchor="middle" opacity="0">C8</text>
<path d="M27228 14740
L27209 14759
L27153 14778
L27115 14778
L27059 14759
L27021 14721
L27003 14684
L26984 14609
L26984 14553
L27003 14478
L27021 14440
L27059 14403
L27115 14384
L27153 14384
L27209 14403
L27228 14421
" />
<path d="M27453 14553
L27415 14534
L27396 14515
L27378 14478
L27378 14459
L27396 14421
L27415 14403
L27453 14384
L27528 14384
L27565 14403
L27584 14421
L27603 14459
L27603 14478
L27584 14515
L27565 14534
L27528 14553
L27453 14553
L27415 14571
L27396 14590
L27378 14628
L27378 14703
L27396 14740
L27415 14759
L27453 14778
L27528 14778
L27565 14759
L27584 14740
L27603 14703
L27603 14628
L27584 14590
L27565 14571
L27528 14553
" />
<text x="25593.7" y="18773.2"
textLength="1182.88" font-size="524.934" lengthAdjust="spacingAndGlyphs"
text-anchor="middle" opacity="0">10u</text>
<path d="M25340 18754
L25115 18754
" />
<path d="M25228 18754
L25228 18360
L25190 18417
L25153 18454
L25115 18473
" />
<path d="M25584 18360
L25621 18360
L25659 18379
L25678 18398
L25696 18435
L25715 18510
L25715 18604
L25696 18679
L25678 18716
L25659 18735
L25621 18754
L25584 18754
L25546 18735
L25528 18716
L25509 18679
L25490 18604
L25490 18510
L25509 18435
L25528 18398
L25546 18379
L25584 18360
" />
<path d="M26053 18492
L26053 18754
" />
<path d="M25884 18492
L25884 18698
L25903 18735
L25940 18754
L25996 18754
L26034 18735
L26053 18716
" />
<text x="25593.7" y="17296.9"
textLength="845.426" font-size="524.934" lengthAdjust="spacingAndGlyphs"
text-anchor="middle" opacity="0">C7</text>
<path d="M25528 17240
L25509 17259
L25453 17278
L25415 17278
L25359 17259
L25321 17221
L25303 17184
L25284 17109
L25284 17053
L25303 16978
L25321 16940
L25359 16903
L25415 16884
L25453 16884
L25509 16903
L25528 16921
" />
<path d="M25659 16884
L25921 16884
L25753 17278
" />
<text x="25593.7" y="24073.2"
textLength="1182.88" font-size="524.934" lengthAdjust="spacingAndGlyphs"
text-anchor="middle" opacity="0">10u</text>
<path d="M25340 24054
L25115 24054
" />
<path d="M25228 24054
L25228 23660
L25190 23717
L25153 23754
L25115 23773
" />
<path d="M25584 23660
L25621 23660
L25659 23679
L25678 23698
L25696 23735
L25715 23810
L25715 23904
L25696 23979
L25678 24016
L25659 24035
L25621 24054
L25584 24054
L25546 24035
L25528 24016
L25509 23979
L25490 23904
L25490 23810
L25509 23735
L25528 23698
L25546 23679
L25584 23660
" />
<path d="M26053 23792
L26053 24054
" />
<path d="M25884 23792
L25884 23998
L25903 24035
L25940 24054
L25996 24054
L26034 24035
L26053 24016
" />
<text x="25593.7" y="22596.9"
textLength="845.426" font-size="524.934" lengthAdjust="spacingAndGlyphs"
text-anchor="middle" opacity="0">C5</text>
<path d="M25528 22540
L25509 22559
L25453 22578
L25415 22578
L25359 22559
L25321 22521
L25303 22484
L25284 22409
L25284 22353
L25303 22278
L25321 22240
L25359 22203
L25415 22184
L25453 22184
L25509 22203
L25528 22221
" />
<path d="M25884 22184
L25696 22184
L25678 22371
L25696 22353
L25734 22334
L25828 22334
L25865 22353
L25884 22371
L25903 22409
L25903 22503
L25884 22540
L25865 22559
L25828 22578
L25734 22578
L25696 22559
L25678 22540
" />
<g transform="rotate(-90 15976.4 19806.3)">
<text x="15976.4" y="20003.1"
textLength="1182.88" font-size="524.934" lengthAdjust="spacingAndGlyphs"
text-anchor="middle" opacity="0">10u</text>
</g>
<path d="M16154 20059
L16154 20284
" />
<path d="M16154 20171
L15760 20171
L15817 20209
L15854 20246
L15873 20284
" />
<path d="M15760 19815
L15760 19778
L15779 19740
L15798 19721
L15835 19703
L15910 19684
L16004 19684
L16079 19703
L16116 19721
L16135 19740
L16154 19778
L16154 19815
L16135 19853
L16116 19871
L16079 19890
L16004 19909
L15910 19909
L15835 19890
L15798 19871
L15779 19853
L15760 19815
" />
<path d="M15892 19346
L16154 19346
" />
<path d="M15892 19515
L16098 19515
L16135 19496
L16154 19459
L16154 19403
L16135 19365
L16116 19346
" />
<g transform="rotate(-90 14500 19806.3)">
<text x="14500" y="20003.1"
textLength="845.426" font-size="524.934" lengthAdjust="spacingAndGlyphs"
text-anchor="middle" opacity="0">C1</text>
</g>
<path d="M14640 19871
L14659 19890
L14678 19946
L14678 19984
L14659 20040
L14621 20078
L14584 20096
L14509 20115
L14453 20115
L14378 20096
L14340 20078
L14303 20040
L14284 19984
L14284 19946
L14303 19890
L14321 19871
" />
<path d="M14678 19496
L14678 19721
" />
<path d="M14678 19609
L14284 19609
L14340 19646
L14378 19684
L14396 19721
" />
<text x="13611" y="13129.9"
textLength="1557.84" font-size="524.934" lengthAdjust="spacingAndGlyphs"
text-anchor="middle" opacity="0">100u</text>
<path d="M13170 13111
L12945 13111
" />
<path d="M13057 13111
L13057 12717
L13020 12773
L12982 12811
L12945 12829
" />
<path d="M13414 12717
L13451 12717
L13489 12736
L13507 12754
L13526 12792
L13545 12867
L13545 12961
L13526 13036
L13507 13073
L13489 13092
L13451 13111
L13414 13111
L13376 13092
L13357 13073
L13339 13036
L13320 12961
L13320 12867
L13339 12792
L13357 12754
L13376 12736
L13414 12717
" />
<path d="M13789 12717
L13826 12717
L13864 12736
L13882 12754
L13901 12792
L13920 12867
L13920 12961
L13901 13036
L13882 13073
L13864 13092
L13826 13111
L13789 13111
L13751 13092
L13732 13073
L13714 13036
L13695 12961
L13695 12867
L13714 12792
L13732 12754
L13751 12736
L13789 12717
" />
<path d="M14257 12848
L14257 13111
" />
<path d="M14089 12848
L14089 13054
L14107 13092
L14145 13111
L14201 13111
L14239 13092
L14257 13073
" />
<text x="13611" y="15196.9"
textLength="1220.38" font-size="524.934" lengthAdjust="spacingAndGlyphs"
text-anchor="middle" opacity="0">C11</text>
<path d="M13357 15140
L13339 15159
L13282 15178
L13245 15178
L13189 15159
L13151 15121
L13132 15084
L13114 15009
L13114 14953
L13132 14878
L13151 14840
L13189 14803
L13245 14784
L13282 14784
L13339 14803
L13357 14821
" />
<path d="M13732 15178
L13507 15178
" />
<path d="M13620 15178
L13620 14784
L13582 14840
L13545 14878
L13507 14896
" />
<path d="M14107 15178
L13882 15178
" />
<path d="M13995 15178
L13995 14784
L13957 14840
L13920 14878
L13882 14896
" />
<text x="17900" y="10847.2"
textLength="1820.3" font-size="524.934" lengthAdjust="spacingAndGlyphs"
text-anchor="middle" opacity="0">DIODE</text>
<path d="M17121 10828
L17121 10434
L17215 10434
L17271 10453
L17309 10491
L17328 10528
L17346 10603
L17346 10659
L17328 10734
L17309 10772
L17271 10809
L17215 10828
L17121 10828
" />
<path d="M17515 10828
L17515 10434
" />
<path d="M17778 10434
L17853 10434
L17890 10453
L17928 10491
L17946 10566
L17946 10697
L17928 10772
L17890 10809
L17853 10828
L17778 10828
L17740 10809
L17703 10772
L17684 10697
L17684 10566
L17703 10491
L17740 10453
L17778 10434
" />
<path d="M18115 10828
L18115 10434
L18209 10434
L18265 10453
L18303 10491
L18321 10528
L18340 10603
L18340 10659
L18321 10734
L18303 10772
L18265 10809
L18209 10828
L18115 10828
" />
<path d="M18509 10622
L18640 10622
" />
<path d="M18696 10828
L18509 10828
L18509 10434
L18696 10434
" />
<text x="19900" y="12863"
textLength="470.472" font-size="524.934" lengthAdjust="spacingAndGlyphs"
text-anchor="middle" opacity="0">K</text>
<path d="M19796 12844
L19796 12450
" />
<path d="M20021 12844
L19853 12619
" />
<path d="M20021 12450
L19796 12675
" />
<text x="17675.6" y="11996.9"
textLength="845.426" font-size="524.934" lengthAdjust="spacingAndGlyphs"
text-anchor="middle" opacity="0">D5</text>
<path d="M17385 11978
L17385 11584
L17478 11584
L17534 11603
L17572 11640
L17591 11678
L17609 11753
L17609 11809
L17591 11884
L17572 11921
L17534 11959
L17478 11978
L17385 11978
" />
<path d="M17966 11584
L17778 11584
L17759 11771
L17778 11753
L17816 11734
L17909 11734
L17947 11753
L17966 11771
L17984 11809
L17984 11903
L17966 11940
L17947 11959
L17909 11978
L17816 11978
L17778 11959
L17759 11940
" />
<text x="17900" y="16546.5"
textLength="1820.3" font-size="524.934" lengthAdjust="spacingAndGlyphs"
text-anchor="middle" opacity="0">DIODE</text>
<path d="M17121 16527
L17121 16134
L17215 16134
L17271 16152
L17309 16190
L17328 16227
L17346 16302
L17346 16358
L17328 16433
L17309 16471
L17271 16508
L17215 16527
L17121 16527
" />
<path d="M17515 16527
L17515 16134
" />
<path d="M17778 16134
L17853 16134
L17890 16152
L17928 16190
L17946 16265
L17946 16396
L17928 16471
L17890 16508
L17853 16527
L17778 16527
L17740 16508
L17703 16471
L17684 16396
L17684 16265
L17703 16190
L17740 16152
L17778 16134
" />
<path d="M18115 16527
L18115 16134
L18209 16134
L18265 16152
L18303 16190
L18321 16227
L18340 16302
L18340 16358
L18321 16433
L18303 16471
L18265 16508
L18209 16527
L18115 16527
" />
<path d="M18509 16321
L18640 16321
" />
<path d="M18696 16527
L18509 16527
L18509 16134
L18696 16134
" />
<text x="15900" y="14530.7"
textLength="470.472" font-size="524.934" lengthAdjust="spacingAndGlyphs"
text-anchor="middle" opacity="0">K</text>
<path d="M15796 14511
L15796 14118
" />
<path d="M16021 14511
L15853 14286
" />
<path d="M16021 14118
L15796 14343
" />
<text x="25675.6" y="12196.9"
textLength="845.426" font-size="524.934" lengthAdjust="spacingAndGlyphs"
text-anchor="middle" opacity="0">D3</text>
<path d="M25385 12178
L25385 11784
L25478 11784
L25534 11803
L25572 11840
L25591 11878
L25609 11953
L25609 12009
L25591 12084
L25572 12121
L25534 12159
L25478 12178
L25385 12178
" />
<path d="M25741 11784
L25984 11784
L25853 11934
L25909 11934
L25947 11953
L25966 11971
L25984 12009
L25984 12103
L25966 12140
L25947 12159
L25909 12178
L25797 12178
L25759 12159
L25741 12140
" />
<g transform="rotate(-90 24833.1 19700)">
<text x="24833.1" y="19896.9"
textLength="1520.34" font-size="524.934" lengthAdjust="spacingAndGlyphs"
text-anchor="middle" opacity="0">100k</text>
</g>
<path d="M25011 20121
L25011 20346
" />
<path d="M25011 20234
L24617 20234
L24673 20271
L24711 20309
L24729 20346
" />
<path d="M24617 19878
L24617 19840
L24636 19803
L24654 19784
L24692 19765
L24767 19746
L24861 19746
L24936 19765
L24973 19784
L24992 19803
L25011 19840
L25011 19878
L24992 19915
L24973 19934
L24936 19953
L24861 19971
L24767 19971
L24692 19953
L24654 19934
L24636 19915
L24617 19878
" />
<path d="M24617 19503
L24617 19465
L24636 19428
L24654 19409
L24692 19390
L24767 19371
L24861 19371
L24936 19390
L24973 19409
L24992 19428
L25011 19465
L25011 19503
L24992 19540
L24973 19559
L24936 19578
L24861 19596
L24767 19596
L24692 19578
L24654 19559
L24636 19540
L24617 19503
" />
<path d="M25011 19203
L24617 19203
" />
<path d="M24861 19165
L25011 19053
" />
<path d="M24748 19053
L24898 19203
" />
<g transform="rotate(-90 23900 19700)">
<text x="23900" y="19896.9"
textLength="1220.38" font-size="524.934" lengthAdjust="spacingAndGlyphs"
text-anchor="middle" opacity="0">R12</text>
</g>
<path d="M24078 19953
L23890 20084
" />
<path d="M24078 20178
L23684 20178
L23684 20028
L23703 19990
L23721 19971
L23759 19953
L23815 19953
L23853 19971
L23871 19990
L23890 20028
L23890 20178
" />
<path d="M24078 19578
L24078 19803
" />
<path d="M24078 19690
L23684 19690
L23740 19728
L23778 19765
L23796 19803
" />
<path d="M23721 19428
L23703 19409
L23684 19371
L23684 19278
L23703 19240
L23721 19221
L23759 19203
L23796 19203
L23853 19221
L24078 19446
L24078 19203
" />
<text x="20184.3" y="23974.8"
textLength="807.93" font-size="524.934" lengthAdjust="spacingAndGlyphs"
text-anchor="middle" opacity="0">1u</text>
<path d="M20118 23956
L19893 23956
" />
<path d="M20006 23956
L20006 23562
L19968 23618
L19931 23656
L19893 23674
" />
<path d="M20456 23693
L20456 23956
" />
<path d="M20287 23693
L20287 23899
L20306 23937
L20343 23956
L20399 23956
L20437 23937
L20456 23918
" />
<text x="20184.3" y="22596.9"
textLength="845.426" font-size="524.934" lengthAdjust="spacingAndGlyphs"
text-anchor="middle" opacity="0">C6</text>
<path d="M20118 22540
L20099 22559
L20043 22578
L20006 22578
L19949 22559
L19912 22521
L19893 22484
L19874 22409
L19874 22353
L19893 22278
L19912 22240
L19949 22203
L20006 22184
L20043 22184
L20099 22203
L20118 22221
" />
<path d="M20456 22184
L20381 22184
L20343 22203
L20324 22221
L20287 22278
L20268 22353
L20268 22503
L20287 22540
L20306 22559
L20343 22578
L20418 22578
L20456 22559
L20474 22540
L20493 22503
L20493 22409
L20474 22371
L20456 22353
L20418 22334
L20343 22334
L20306 22353
L20287 22371
L20268 22409
" />
<text x="19984.3" y="18674.8"
textLength="807.93" font-size="524.934" lengthAdjust="spacingAndGlyphs"
text-anchor="middle" opacity="0">1u</text>
<path d="M19918 18656
L19693 18656
" />
<path d="M19806 18656
L19806 18262
L19768 18318
L19731 18356
L19693 18374
" />
<path d="M20256 18393
L20256 18656
" />
<path d="M20087 18393
L20087 18599
L20106 18637
L20143 18656
L20199 18656
L20237 18637
L20256 18618
" />
<text x="19984.3" y="17296.9"
textLength="845.426" font-size="524.934" lengthAdjust="spacingAndGlyphs"
text-anchor="middle" opacity="0">C4</text>
<path d="M19918 17240
L19899 17259
L19843 17278
L19806 17278
L19749 17259
L19712 17221
L19693 17184
L19674 17109
L19674 17053
L19693 16978
L19712 16940
L19749 16903
L19806 16884
L19843 16884
L19899 16903
L19918 16921
" />
<path d="M20256 17015
L20256 17278
" />
<path d="M20162 16865
L20068 17146
L20312 17146
" />
<g transform="rotate(-90 26798.4 19700)">
<text x="26798.4" y="19896.9"
textLength="2363.99" font-size="524.934" lengthAdjust="spacingAndGlyphs"
text-anchor="middle" opacity="0">2N2219</text>
</g>
<path d="M26620 20768
L26601 20749
L26582 20712
L26582 20618
L26601 20581
L26620 20562
L26657 20543
L26695 20543
L26751 20562
L26976 20787
L26976 20543
" />
<path d="M26976 20374
L26582 20374
L26976 20149
L26582 20149
" />
<path d="M26620 19981
L26601 19962
L26582 19924
L26582 19831
L26601 19793
L26620 19774
L26657 19756
L26695 19756
L26751 19774
L26976 19999
L26976 19756
" />
<path d="M26620 19606
L26601 19587
L26582 19550
L26582 19456
L26601 19418
L26620 19400
L26657 19381
L26695 19381
L26751 19400
L26976 19625
L26976 19381
" />
<path d="M26976 19006
L26976 19231
" />
<path d="M26976 19118
L26582 19118
L26639 19156
L26676 19193
L26695 19231
" />
<path d="M26976 18818
L26976 18743
L26957 18706
L26939 18687
L26882 18650
L26807 18631
L26657 18631
L26620 18650
L26601 18668
L26582 18706
L26582 18781
L26601 18818
L26620 18837
L26657 18856
L26751 18856
L26789 18837
L26807 18818
L26826 18781
L26826 18706
L26807 18668
L26789 18650
L26751 18631
" />
<g transform="rotate(-90 25700 19700)">
<text x="25700" y="19896.9"
textLength="864.173" font-size="524.934" lengthAdjust="spacingAndGlyphs"
text-anchor="middle" opacity="0">Q4</text>
</g>
<path d="M25915 19737
L25896 19774
L25859 19812
L25803 19868
L25784 19906
L25784 19943
" />
<path d="M25878 19924
L25859 19962
L25821 19999
L25746 20018
L25615 20018
L25540 19999
L25503 19962
L25484 19924
L25484 19849
L25503 19812
L25540 19774
L25615 19756
L25746 19756
L25821 19774
L25859 19812
L25878 19849
L25878 19924
" />
<path d="M25615 19418
L25878 19418
" />
<path d="M25465 19512
L25746 19606
L25746 19362
" />
<g transform="rotate(-90 23298.4 19700)">
<text x="23298.4" y="19896.9"
textLength="2363.99" font-size="524.934" lengthAdjust="spacingAndGlyphs"
text-anchor="middle" opacity="0">2N2219</text>
</g>
<path d="M23120 20768
L23101 20749
L23082 20712
L23082 20618
L23101 20581
L23120 20562
L23157 20543
L23195 20543
L23251 20562
L23476 20787
L23476 20543
" />
<path d="M23476 20374
L23082 20374
L23476 20149
L23082 20149
" />
<path d="M23120 19981
L23101 19962
L23082 19924
L23082 19831
L23101 19793
L23120 19774
L23157 19756
L23195 19756
L23251 19774
L23476 19999
L23476 19756
" />
<path d="M23120 19606
L23101 19587
L23082 19550
L23082 19456
L23101 19418
L23120 19400
L23157 19381
L23195 19381
L23251 19400
L23476 19625
L23476 19381
" />
<path d="M23476 19006
L23476 19231
" />
<path d="M23476 19118
L23082 19118
L23139 19156
L23176 19193
L23195 19231
" />
<path d="M23476 18818
L23476 18743
L23457 18706
L23439 18687
L23382 18650
L23307 18631
L23157 18631
L23120 18650
L23101 18668
L23082 18706
L23082 18781
L23101 18818
L23120 18837
L23157 18856
L23251 18856
L23289 18837
L23307 18818
L23326 18781
L23326 18706
L23307 18668
L23289 18650
L23251 18631
" />
<g transform="rotate(-90 22200 19700)">
<text x="22200" y="19896.9"
textLength="864.173" font-size="524.934" lengthAdjust="spacingAndGlyphs"
text-anchor="middle" opacity="0">Q3</text>
</g>
<path d="M22415 19737
L22396 19774
L22359 19812
L22303 19868
L22284 19906
L22284 19943
" />
<path d="M22378 19924
L22359 19962
L22321 19999
L22246 20018
L22115 20018
L22040 19999
L22003 19962
L21984 19924
L21984 19849
L22003 19812
L22040 19774
L22115 19756
L22246 19756
L22321 19774
L22359 19812
L22378 19849
L22378 19924
" />
<path d="M21984 19625
L21984 19381
L22134 19512
L22134 19456
L22153 19418
L22171 19400
L22209 19381
L22303 19381
L22340 19400
L22359 19418
L22378 19456
L22378 19568
L22359 19606
L22340 19625
" />
<g transform="rotate(-90 20798.4 19700)">
<text x="20798.4" y="19896.9"
textLength="2363.99" font-size="524.934" lengthAdjust="spacingAndGlyphs"
text-anchor="middle" opacity="0">2N2219</text>
</g>
<path d="M20620 20768
L20601 20749
L20582 20712
L20582 20618
L20601 20581
L20620 20562
L20657 20543
L20695 20543
L20751 20562
L20976 20787
L20976 20543
" />
<path d="M20976 20374
L20582 20374
L20976 20149
L20582 20149
" />
<path d="M20620 19981
L20601 19962
L20582 19924
L20582 19831
L20601 19793
L20620 19774
L20657 19756
L20695 19756
L20751 19774
L20976 19999
L20976 19756
" />
<path d="M20620 19606
L20601 19587
L20582 19550
L20582 19456
L20601 19418
L20620 19400
L20657 19381
L20695 19381
L20751 19400
L20976 19625
L20976 19381
" />
<path d="M20976 19006
L20976 19231
" />
<path d="M20976 19118
L20582 19118
L20639 19156
L20676 19193
L20695 19231
" />
<path d="M20976 18818
L20976 18743
L20957 18706
L20939 18687
L20882 18650
L20807 18631
L20657 18631
L20620 18650
L20601 18668
L20582 18706
L20582 18781
L20601 18818
L20620 18837
L20657 18856
L20751 18856
L20789 18837
L20807 18818
L20826 18781
L20826 18706
L20807 18668
L20789 18650
L20751 18631
" />
<g transform="rotate(-90 19700 19700)">
<text x="19700" y="19896.9"
textLength="864.173" font-size="524.934" lengthAdjust="spacingAndGlyphs"
text-anchor="middle" opacity="0">Q2</text>
</g>
<path d="M19915 19737
L19896 19774
L19859 19812
L19803 19868
L19784 19906
L19784 19943
" />
<path d="M19878 19924
L19859 19962
L19821 19999
L19746 20018
L19615 20018
L19540 19999
L19503 19962
L19484 19924
L19484 19849
L19503 19812
L19540 19774
L19615 19756
L19746 19756
L19821 19774
L19859 19812
L19878 19849
L19878 19924
" />
<path d="M19521 19606
L19503 19587
L19484 19550
L19484 19456
L19503 19418
L19521 19400
L19559 19381
L19596 19381
L19653 19400
L19878 19625
L19878 19381
" />
<g transform="rotate(-90 18298.4 19700)">
<text x="18298.4" y="19896.9"
textLength="2363.99" font-size="524.934" lengthAdjust="spacingAndGlyphs"
text-anchor="middle" opacity="0">2N2219</text>
</g>
<path d="M18120 20768
L18101 20749
L18082 20712
L18082 20618
L18101 20581
L18120 20562
L18157 20543
L18195 20543
L18251 20562
L18476 20787
L18476 20543
" />
<path d="M18476 20374
L18082 20374
L18476 20149
L18082 20149
" />
<path d="M18120 19981
L18101 19962
L18082 19924
L18082 19831
L18101 19793
L18120 19774
L18157 19756
L18195 19756
L18251 19774
L18476 19999
L18476 19756
" />
<path d="M18120 19606
L18101 19587
L18082 19550
L18082 19456
L18101 19418
L18120 19400
L18157 19381
L18195 19381
L18251 19400
L18476 19625
L18476 19381
" />
<path d="M18476 19006
L18476 19231
" />
<path d="M18476 19118
L18082 19118
L18139 19156
L18176 19193
L18195 19231
" />
<path d="M18476 18818
L18476 18743
L18457 18706
L18439 18687
L18382 18650
L18307 18631
L18157 18631
L18120 18650
L18101 18668
L18082 18706
L18082 18781
L18101 18818
L18120 18837
L18157 18856
L18251 18856
L18289 18837
L18307 18818
L18326 18781
L18326 18706
L18307 18668
L18289 18650
L18251 18631
" />
<g transform="rotate(-90 17200 19700)">
<text x="17200" y="19896.9"
textLength="864.173" font-size="524.934" lengthAdjust="spacingAndGlyphs"
text-anchor="middle" opacity="0">Q1</text>
</g>
<path d="M17415 19737
L17396 19774
L17359 19812
L17303 19868
L17284 19906
L17284 19943
" />
<path d="M17378 19924
L17359 19962
L17321 19999
L17246 20018
L17115 20018
L17040 19999
L17003 19962
L16984 19924
L16984 19849
L17003 19812
L17040 19774
L17115 19756
L17246 19756
L17321 19774
L17359 19812
L17378 19849
L17378 19924
" />
<path d="M17378 19381
L17378 19606
" />
<path d="M17378 19493
L16984 19493
L17040 19531
L17078 19568
L17096 19606
" />
<text x="23100" y="16546.5"
textLength="1820.3" font-size="524.934" lengthAdjust="spacingAndGlyphs"
text-anchor="middle" opacity="0">DIODE</text>
<path d="M22321 16527
L22321 16134
L22415 16134
L22471 16152
L22509 16190
L22528 16227
L22546 16302
L22546 16358
L22528 16433
L22509 16471
L22471 16508
L22415 16527
L22321 16527
" />
<path d="M22715 16527
L22715 16134
" />
<path d="M22978 16134
L23053 16134
L23090 16152
L23128 16190
L23146 16265
L23146 16396
L23128 16471
L23090 16508
L23053 16527
L22978 16527
L22940 16508
L22903 16471
L22884 16396
L22884 16265
L22903 16190
L22940 16152
L22978 16134
" />
<path d="M23315 16527
L23315 16134
L23409 16134
L23465 16152
L23503 16190
L23521 16227
L23540 16302
L23540 16358
L23521 16433
L23503 16471
L23465 16508
L23409 16527
L23315 16527
" />
<path d="M23709 16321
L23840 16321
" />
<path d="M23896 16527
L23709 16527
L23709 16134
L23896 16134
" />
<text x="21100" y="14530.7"
textLength="470.472" font-size="524.934" lengthAdjust="spacingAndGlyphs"
text-anchor="middle" opacity="0">K</text>
<path d="M20996 14511
L20996 14118
" />
<path d="M21221 14511
L21053 14286
" />
<path d="M21221 14118
L20996 14343
" />
<text x="23324.4" y="15396.9"
textLength="845.426" font-size="524.934" lengthAdjust="spacingAndGlyphs"
text-anchor="middle" opacity="0">D4</text>
<path d="M23033 15378
L23033 14984
L23127 14984
L23183 15003
L23221 15040
L23240 15078
L23258 15153
L23258 15209
L23240 15284
L23221 15321
L23183 15359
L23127 15378
L23033 15378
" />
<path d="M23596 15115
L23596 15378
" />
<path d="M23502 14965
L23408 15246
L23652 15246
" />
<text x="23100" y="12547.2"
textLength="1820.3" font-size="524.934" lengthAdjust="spacingAndGlyphs"
text-anchor="middle" opacity="0">DIODE</text>
<path d="M22321 12528
L22321 12134
L22415 12134
L22471 12153
L22509 12191
L22528 12228
L22546 12303
L22546 12359
L22528 12434
L22509 12472
L22471 12509
L22415 12528
L22321 12528
" />
<path d="M22715 12528
L22715 12134
" />
<path d="M22978 12134
L23053 12134
L23090 12153
L23128 12191
L23146 12266
L23146 12397
L23128 12472
L23090 12509
L23053 12528
L22978 12528
L22940 12509
L22903 12472
L22884 12397
L22884 12266
L22903 12191
L22940 12153
L22978 12134
" />
<path d="M23315 12528
L23315 12134
L23409 12134
L23465 12153
L23503 12191
L23521 12228
L23540 12303
L23540 12359
L23521 12434
L23503 12472
L23465 12509
L23409 12528
L23315 12528
" />
<path d="M23709 12322
L23840 12322
" />
<path d="M23896 12528
L23709 12528
L23709 12134
L23896 12134
" />
<text x="25100" y="14563"
textLength="470.472" font-size="524.934" lengthAdjust="spacingAndGlyphs"
text-anchor="middle" opacity="0">K</text>
<path d="M24996 14544
L24996 14150
" />
<path d="M25221 14544
L25053 14319
" />
<path d="M25221 14150
L24996 14375
" />
<text x="22875.6" y="13696.9"
textLength="845.426" font-size="524.934" lengthAdjust="spacingAndGlyphs"
text-anchor="middle" opacity="0">D2</text>
<path d="M22585 13678
L22585 13284
L22678 13284
L22734 13303
L22772 13340
L22791 13378
L22809 13453
L22809 13509
L22791 13584
L22772 13621
L22734 13659
L22678 13678
L22585 13678
" />
<path d="M22959 13321
L22978 13303
L23016 13284
L23109 13284
L23147 13303
L23166 13321
L23184 13359
L23184 13396
L23166 13453
L22941 13678
L23184 13678
" />
<text x="17900" y="12547.2"
textLength="1820.3" font-size="524.934" lengthAdjust="spacingAndGlyphs"
text-anchor="middle" opacity="0">DIODE</text>
<path d="M17121 12528
L17121 12134
L17215 12134
L17271 12153
L17309 12191
L17328 12228
L17346 12303
L17346 12359
L17328 12434
L17309 12472
L17271 12509
L17215 12528
L17121 12528
" />
<path d="M17515 12528
L17515 12134
" />
<path d="M17778 12134
L17853 12134
L17890 12153
L17928 12191
L17946 12266
L17946 12397
L17928 12472
L17890 12509
L17853 12528
L17778 12528
L17740 12509
L17703 12472
L17684 12397
L17684 12266
L17703 12191
L17740 12153
L17778 12134
" />
<path d="M18115 12528
L18115 12134
L18209 12134
L18265 12153
L18303 12191
L18321 12228
L18340 12303
L18340 12359
L18321 12434
L18303 12472
L18265 12509
L18209 12528
L18115 12528
" />
<path d="M18509 12322
L18640 12322
" />
<path d="M18696 12528
L18509 12528
L18509 12134
L18696 12134
" />
<text x="19900" y="14563"
textLength="470.472" font-size="524.934" lengthAdjust="spacingAndGlyphs"
text-anchor="middle" opacity="0">K</text>
<path d="M19796 14544
L19796 14150
" />
<path d="M20021 14544
L19853 14319
" />
<path d="M20021 14150
L19796 14375
" />
<text x="17675.6" y="13696.9"
textLength="845.426" font-size="524.934" lengthAdjust="spacingAndGlyphs"
text-anchor="middle" opacity="0">D1</text>
<path d="M17385 13678
L17385 13284
L17478 13284
L17534 13303
L17572 13340
L17591 13378
L17609 13453
L17609 13509
L17591 13584
L17572 13621
L17534 13659
L17478 13678
L17385 13678
" />
<path d="M17984 13678
L17759 13678
" />
<path d="M17872 13678
L17872 13284
L17834 13340
L17797 13378
L17759 13396
" />
<g >
</g>
</g> 
</svg>
